<svg width="343" height="343" viewBox="0 0 343 343" fill="none" xmlns="http://www.w3.org/2000/svg">
<path d="M174.854 327.64C262.259 327.64 333.115 286.734 333.115 236.272C333.115 185.811 262.259 144.904 174.854 144.904C87.4497 144.904 16.5942 185.811 16.5942 236.272C16.5942 286.734 87.4497 327.64 174.854 327.64Z" fill="#F5F5F5"/>
<path d="M178.936 311.156L232.959 279.799L192.348 256.351L188.65 250.582C188.65 250.582 168.756 246.315 162.266 249.56C155.777 252.805 121.6 265.084 121.6 265.084C121.6 265.084 64.0244 219.41 59.929 217.064C55.8335 214.718 31.7412 229.639 42.3948 239.86C53.0484 250.081 74.6368 262.752 84.5358 267.067C94.4348 271.382 111.413 275.484 111.413 275.484C111.413 275.484 108.724 279.271 116.62 285.088C124.516 290.905 158.884 306.69 163.584 308.261C168.893 310.031 175.287 309.077 175.287 309.077L178.936 311.156Z" fill="#E0E0E0"/>
<path d="M323.367 227.141L286.487 248.407C286.202 248.55 285.887 248.624 285.568 248.624C285.249 248.624 284.934 248.55 284.649 248.407L207.172 203.605C206.664 203.31 206.664 202.837 207.172 202.548L244.058 181.282C244.342 181.137 244.655 181.061 244.974 181.061C245.293 181.061 245.607 181.137 245.89 181.282L323.408 226.078C323.874 226.38 323.874 226.853 323.367 227.141Z" fill="#E0E0E0"/>
<path d="M247.687 131.259L215.616 149.644V204.03L247.687 185.645V131.259Z" fill="#FCBA04"/>
<path opacity="0.35" d="M247.687 131.259L215.616 149.644V204.03L247.687 185.645V131.259Z" fill="black"/>
<path d="M216.529 150.549L247.687 132.796C249.1 134.442 251.195 135.586 253.971 136.226L223.053 153.938C223.053 153.938 221.29 153.527 216.529 150.549Z" fill="#F5F5F5"/>
<path d="M225.694 153.842C224.875 154.258 223.97 154.475 223.053 154.475C222.135 154.475 221.23 154.258 220.411 153.842L215.781 151.167C214.32 150.33 214.32 148.965 215.781 148.121L246.534 130.594L247.687 131.28L217.372 148.642C216.494 149.143 216.501 149.966 217.372 150.467L221.681 152.923C222.171 153.174 222.714 153.304 223.265 153.304C223.816 153.304 224.359 153.174 224.85 152.923L255.15 135.588L256.454 136.342L225.694 153.842Z" fill="#FCBA04"/>
<path opacity="0.25" d="M225.694 153.842C224.875 154.258 223.97 154.475 223.053 154.475C222.135 154.475 221.23 154.258 220.411 153.842L215.781 151.167C214.32 150.33 214.32 148.965 215.781 148.121L246.534 130.594L247.687 131.28L217.372 148.642C216.494 149.143 216.501 149.966 217.372 150.467L221.681 152.923C222.171 153.174 222.714 153.304 223.265 153.304C223.816 153.304 224.359 153.174 224.85 152.923L255.15 135.588L256.454 136.342L225.694 153.842Z" fill="black"/>
<path d="M256.447 136.322V190.708L225.694 208.228C224.875 208.641 223.97 208.856 223.053 208.856C222.135 208.856 221.231 208.641 220.412 208.228L215.774 205.553C215.474 205.418 215.215 205.207 215.023 204.939C214.831 204.671 214.714 204.358 214.684 204.03V149.644C214.714 149.972 214.831 150.285 215.023 150.553C215.215 150.82 215.474 151.032 215.774 151.167L220.412 153.849C221.231 154.262 222.135 154.477 223.053 154.477C223.97 154.477 224.875 154.262 225.694 153.849L256.447 136.322Z" fill="#FCBA04"/>
<path opacity="0.05" d="M256.447 136.322V190.708L225.694 208.228C224.875 208.641 223.97 208.856 223.053 208.856C222.135 208.856 221.231 208.641 220.412 208.228L215.774 205.553C215.474 205.418 215.215 205.207 215.023 204.939C214.831 204.671 214.714 204.358 214.684 204.03V149.644C214.714 149.972 214.831 150.285 215.023 150.553C215.215 150.82 215.474 151.032 215.774 151.167L220.412 153.849C221.231 154.262 222.135 154.477 223.053 154.477C223.97 154.477 224.875 154.262 225.694 153.849L256.447 136.322Z" fill="black"/>
<path d="M223.053 154.48C222.133 154.498 221.224 154.28 220.412 153.849L215.774 151.167C215.474 151.032 215.215 150.82 215.023 150.553C214.831 150.285 214.714 149.972 214.684 149.644V204.03C214.714 204.358 214.831 204.671 215.023 204.939C215.215 205.206 215.474 205.418 215.774 205.553L220.412 208.228C221.224 208.66 222.133 208.877 223.053 208.859V154.48Z" fill="#FCBA04"/>
<path opacity="0.2" d="M223.053 154.48C222.133 154.498 221.224 154.28 220.412 153.849L215.774 151.167C215.474 151.032 215.215 150.82 215.023 150.553C214.831 150.285 214.714 149.972 214.684 149.644V204.03C214.714 204.358 214.831 204.671 215.023 204.939C215.215 205.206 215.474 205.418 215.774 205.553L220.412 208.228C221.224 208.66 222.133 208.877 223.053 208.859V154.48Z" fill="black"/>
<path d="M255.494 143.607L228.63 159.221V210.636L255.494 195.03V143.607Z" fill="#FCBA04"/>
<path opacity="0.55" d="M255.494 143.607L228.63 159.221V210.636L255.494 195.03V143.607Z" fill="white"/>
<path d="M229.494 160.071L255.494 145.062C257.079 146.756 259.162 147.902 261.441 148.334L235.661 163.268C235.661 163.268 233.994 162.891 229.494 160.071Z" fill="#F5F5F5"/>
<path d="M238.159 163.192C237.385 163.587 236.53 163.793 235.662 163.793C234.793 163.793 233.938 163.587 233.164 163.192L228.788 160.661C227.416 159.865 227.416 158.603 228.788 157.78L254.41 142.983L255.494 143.607L230.29 158.253C230.109 158.314 229.952 158.431 229.841 158.586C229.73 158.741 229.67 158.927 229.67 159.118C229.67 159.308 229.73 159.495 229.841 159.65C229.952 159.805 230.109 159.921 230.29 159.982L234.358 162.301C234.822 162.537 235.336 162.661 235.857 162.661C236.378 162.661 236.892 162.537 237.356 162.301L262.546 147.689L263.781 148.375L238.159 163.192Z" fill="#FCBA04"/>
<path opacity="0.8" d="M238.159 163.192C237.385 163.587 236.53 163.793 235.662 163.793C234.793 163.793 233.938 163.587 233.164 163.192L228.788 160.661C227.416 159.865 227.416 158.603 228.788 157.78L254.41 142.983L255.494 143.607L230.29 158.253C230.109 158.314 229.952 158.431 229.841 158.586C229.73 158.741 229.67 158.927 229.67 159.118C229.67 159.308 229.73 159.495 229.841 159.65C229.952 159.805 230.109 159.921 230.29 159.982L234.358 162.301C234.822 162.537 235.336 162.661 235.857 162.661C236.378 162.661 236.892 162.537 237.356 162.301L262.546 147.689L263.781 148.375L238.159 163.192Z" fill="white"/>
<path d="M263.781 148.396V199.811L238.159 214.608C237.385 215.003 236.53 215.209 235.662 215.209C234.793 215.209 233.938 215.003 233.165 214.608L228.781 212.077C228.496 211.951 228.251 211.75 228.07 211.497C227.889 211.244 227.779 210.946 227.752 210.636V159.186C227.781 159.496 227.891 159.793 228.072 160.046C228.252 160.299 228.497 160.499 228.781 160.627L233.165 163.158C233.938 163.553 234.793 163.759 235.662 163.759C236.53 163.759 237.385 163.553 238.159 163.158L263.781 148.396Z" fill="#FCBA04"/>
<path opacity="0.7" d="M263.781 148.396V199.811L238.159 214.608C237.385 215.003 236.53 215.209 235.662 215.209C234.793 215.209 233.938 215.003 233.165 214.608L228.781 212.077C228.496 211.951 228.251 211.75 228.07 211.497C227.889 211.244 227.779 210.946 227.752 210.636V159.186C227.781 159.496 227.891 159.793 228.072 160.046C228.252 160.299 228.497 160.499 228.781 160.627L233.165 163.158C233.938 163.553 234.793 163.759 235.662 163.759C236.53 163.759 237.385 163.553 238.159 163.158L263.781 148.396Z" fill="white"/>
<path d="M235.662 163.789C234.792 163.807 233.932 163.602 233.165 163.193L228.781 160.661C228.497 160.534 228.252 160.333 228.072 160.08C227.891 159.827 227.781 159.53 227.752 159.221V210.671C227.779 210.981 227.889 211.278 228.07 211.531C228.251 211.785 228.496 211.985 228.781 212.111L233.165 214.643C233.932 215.052 234.792 215.257 235.662 215.239V163.789Z" fill="#FCBA04"/>
<path opacity="0.55" d="M235.662 163.789C234.792 163.807 233.932 163.602 233.165 163.193L228.781 160.661C228.497 160.534 228.252 160.333 228.072 160.08C227.891 159.827 227.781 159.53 227.752 159.221V210.671C227.779 210.981 227.889 211.278 228.07 211.531C228.251 211.785 228.496 211.985 228.781 212.111L233.165 214.643C233.932 215.052 234.792 215.257 235.662 215.239V163.789Z" fill="white"/>
<path d="M289.176 152.703L289.464 156.614L254.89 175.163L254.108 172.886L289.176 152.703Z" fill="#FCBA04"/>
<path opacity="0.35" d="M289.176 152.703L289.464 156.614L254.89 175.163L254.108 172.886L289.176 152.703Z" fill="black"/>
<path d="M254.568 173.791L288.058 154.46L293.882 157.821L259.733 177.797L254.568 173.791Z" fill="#F5F5F5"/>
<path d="M266.024 175.726L270.188 209.175C270.164 209.605 270.039 210.024 269.823 210.397C269.608 210.77 269.307 211.087 268.946 211.322L249.519 222.566C249.208 222.735 248.864 222.833 248.51 222.854L259.733 179.046C260.086 179.029 260.431 178.933 260.742 178.765L262.114 177.955L266.024 175.726Z" fill="#FCBA04"/>
<path opacity="0.35" d="M266.024 175.726L270.188 209.175C270.164 209.605 270.039 210.024 269.823 210.397C269.608 210.77 269.307 211.087 268.946 211.322L249.519 222.566C249.208 222.735 248.864 222.833 248.51 222.854L259.733 179.046C260.086 179.029 260.431 178.933 260.742 178.765L262.114 177.955L266.024 175.726Z" fill="black"/>
<path d="M258.258 178.778L254.794 175.815L252.249 173.633C251.988 173.222 251.687 172.913 251.851 172.57L240.786 216.008V216.049C240.621 216.392 240.573 217.16 241.047 217.421L247.049 222.559C247.503 222.802 248.019 222.902 248.531 222.847L259.733 179.046C259.226 179.105 258.713 179.012 258.258 178.778Z" fill="#FCBA04"/>
<path opacity="0.25" d="M258.258 178.778L254.794 175.815L252.249 173.633C251.988 173.222 251.687 172.913 251.851 172.57L240.786 216.008V216.049C240.621 216.392 240.573 217.16 241.047 217.421L247.049 222.559C247.503 222.802 248.019 222.902 248.531 222.847L259.733 179.046C259.226 179.105 258.713 179.012 258.258 178.778Z" fill="black"/>
<path d="M252.249 172.186C251.563 172.584 251.734 173.023 252.249 173.62L258.258 178.765C258.643 178.96 259.068 179.062 259.5 179.062C259.931 179.062 260.357 178.96 260.742 178.765L266.024 175.712C266.71 175.321 266.833 174.745 266.291 174.436C265.936 174.289 265.552 174.227 265.168 174.254C264.785 174.282 264.413 174.398 264.082 174.594L259.911 176.988C259.783 177.052 259.64 177.085 259.496 177.085C259.352 177.085 259.21 177.052 259.081 176.988L254.691 173.174C254.465 173.043 254.465 172.831 254.691 172.694L289.176 152.676L287.523 151.723L252.249 172.186Z" fill="#FCBA04"/>
<path opacity="0.15" d="M252.249 172.186C251.563 172.584 251.734 173.023 252.249 173.62L258.258 178.765C258.643 178.96 259.068 179.062 259.5 179.062C259.931 179.062 260.357 178.96 260.742 178.765L266.024 175.712C266.71 175.321 266.833 174.745 266.291 174.436C265.936 174.289 265.552 174.227 265.168 174.254C264.785 174.282 264.413 174.398 264.082 174.594L259.911 176.988C259.783 177.052 259.64 177.085 259.496 177.085C259.352 177.085 259.21 177.052 259.081 176.988L254.691 173.174C254.465 173.043 254.465 172.831 254.691 172.694L289.176 152.676L287.523 151.723L252.249 172.186Z" fill="black"/>
<path d="M295.858 153.293L264.453 171.541V231.635L295.858 213.394V153.293Z" fill="#455A64"/>
<path d="M265.482 172.536L295.872 154.995C297.436 156.824 299.752 158.098 302.821 158.816L272.671 176.302C272.671 176.302 270.73 175.829 265.482 172.536Z" fill="#F5F5F5"/>
<path d="M275.593 176.178C274.689 176.638 273.689 176.878 272.675 176.878C271.66 176.878 270.66 176.638 269.756 176.178L264.638 173.229C263.026 172.296 263.026 170.786 264.638 169.854L294.589 152.559L295.858 153.293L266.401 170.409C265.434 170.965 265.434 171.87 266.401 172.426L271.155 175.17C271.699 175.444 272.299 175.586 272.908 175.586C273.517 175.586 274.117 175.444 274.661 175.17L304.11 158.089L305.544 158.919L275.593 176.178Z" fill="#263238"/>
<path d="M305.544 158.884V218.985L275.593 236.272C274.689 236.732 273.689 236.971 272.674 236.971C271.66 236.971 270.66 236.732 269.756 236.272L264.638 233.322C264.305 233.173 264.018 232.938 263.806 232.642C263.594 232.345 263.464 231.998 263.431 231.635V171.541C263.466 171.903 263.596 172.249 263.808 172.544C264.02 172.839 264.306 173.073 264.638 173.222L269.756 176.185C270.661 176.642 271.661 176.88 272.674 176.88C273.688 176.88 274.688 176.642 275.593 176.185L305.544 158.884Z" fill="#455A64"/>
<path d="M272.671 176.885C271.657 176.909 270.653 176.673 269.756 176.199L264.638 173.236C264.306 173.087 264.02 172.853 263.808 172.558C263.596 172.263 263.466 171.917 263.431 171.555V231.648C263.464 232.011 263.594 232.359 263.806 232.655C264.018 232.952 264.305 233.187 264.638 233.336L269.756 236.286C270.653 236.76 271.657 236.996 272.671 236.972V176.885Z" fill="#37474F"/>
<path d="M308.7 160.709L277.295 178.957V239.057L308.7 220.81V160.709Z" fill="#FCBA04"/>
<path opacity="0.35" d="M308.7 160.709L277.295 178.957V239.057L308.7 220.81V160.709Z" fill="black"/>
<path d="M278.31 179.951L308.7 162.41C310.264 164.24 312.58 165.513 315.649 166.231L285.513 183.704C285.513 183.704 283.565 183.244 278.31 179.951Z" fill="#EBEBEB"/>
<path d="M278.31 179.951L308.7 162.41C310.264 164.24 312.58 165.513 315.649 166.231L285.513 183.704C285.513 183.704 283.565 183.244 278.31 179.951Z" fill="#F5F5F5"/>
<path d="M288.435 183.594C287.531 184.054 286.531 184.293 285.517 184.293C284.502 184.293 283.502 184.054 282.598 183.594L277.48 180.644C275.868 179.711 275.868 178.202 277.48 177.269L307.431 159.982L308.7 160.709L279.243 177.859C278.276 178.415 278.276 179.32 279.243 179.876L283.997 182.62C284.541 182.894 285.141 183.037 285.75 183.037C286.359 183.037 286.959 182.894 287.503 182.62L316.932 165.477L318.373 166.307L288.435 183.594Z" fill="#FCBA04"/>
<path opacity="0.25" d="M288.435 183.594C287.531 184.054 286.531 184.293 285.517 184.293C284.502 184.293 283.502 184.054 282.598 183.594L277.48 180.644C275.868 179.711 275.868 178.202 277.48 177.269L307.431 159.982L308.7 160.709L279.243 177.859C278.276 178.415 278.276 179.32 279.243 179.876L283.997 182.62C284.541 182.894 285.141 183.037 285.75 183.037C286.359 183.037 286.959 182.894 287.503 182.62L316.932 165.477L318.373 166.307L288.435 183.594Z" fill="black"/>
<path d="M318.379 166.3V226.38L288.435 243.674C287.53 244.131 286.53 244.368 285.517 244.368C284.503 244.368 283.503 244.131 282.598 243.674L277.48 240.717C277.147 240.568 276.86 240.333 276.648 240.037C276.436 239.74 276.306 239.393 276.273 239.03V178.936C276.308 179.298 276.438 179.644 276.65 179.939C276.862 180.235 277.148 180.468 277.48 180.617L282.598 183.58C283.502 184.04 284.502 184.28 285.517 184.28C286.531 184.28 287.531 184.04 288.435 183.58L318.379 166.3Z" fill="#FCBA04"/>
<path opacity="0.15" d="M285.513 184.301C284.499 184.325 283.495 184.089 282.598 183.615L277.48 180.651C277.148 180.503 276.862 180.269 276.65 179.974C276.438 179.678 276.308 179.332 276.273 178.97V239.064C276.306 239.427 276.436 239.775 276.648 240.071C276.86 240.368 277.147 240.602 277.48 240.752L282.598 243.708C283.496 244.18 284.499 244.416 285.513 244.394V184.301Z" fill="black"/>
<path d="M190.331 241.019C190.331 241.019 188.143 229.09 185.124 216.46C182.565 205.786 175.342 198.419 161.965 202.301L174.622 245.43C175.071 247.268 175.984 248.96 177.274 250.343C178.564 251.727 180.187 252.756 181.989 253.333L190.331 255.988L215.754 265.311L218.327 257.298C214.862 255.261 190.331 241.019 190.331 241.019Z" fill="#B78876"/>
<path d="M159.385 202.301C159.385 202.301 167.967 200.12 172.138 201.252C176.309 202.384 181.667 203.948 184.561 213.216C187.456 222.484 189.501 234.784 189.501 234.784C189.501 234.784 185.481 242.069 172.687 240.779L159.385 202.301Z" fill="#FCBA04"/>
<path d="M179.341 305.146L232.787 274.29L198.645 254.581L145.199 285.438L179.341 305.146Z" fill="#FCBA04"/>
<path opacity="0.15" d="M179.341 305.146L232.787 274.29L198.645 254.581L145.199 285.438L179.341 305.146Z" fill="black"/>
<path d="M205.354 289.314V288.353C205.354 287.18 207.453 283.819 210.074 282.303L231.305 270.051V274.331L205.354 289.314Z" fill="#F5F5F5"/>
<path d="M231.298 270.051L210.067 282.31C207.446 283.819 205.34 287.18 205.347 288.353V289.314L172.687 270.455V269.502C172.687 268.322 174.786 264.961 177.406 263.451L198.624 251.199L231.298 270.051Z" fill="#FAFAFA"/>
<path d="M231.298 270.051L210.067 282.31C207.446 283.819 205.34 287.18 205.347 288.353V289.314L172.687 270.455V269.502C172.687 268.322 174.786 264.961 177.406 263.451L198.638 251.193L231.298 270.051Z" fill="#FAFAFA"/>
<path d="M205.347 288.422L203.289 287.249L200.607 285.698C201.729 285.494 202.887 285.661 203.907 286.172C204.319 286.393 204.667 286.716 204.919 287.11C205.171 287.503 205.319 287.955 205.347 288.422Z" fill="#F0F0F0"/>
<path d="M205.347 288.422L203.289 287.249L200.607 285.698C201.729 285.494 202.887 285.661 203.907 286.172C204.319 286.393 204.667 286.716 204.919 287.11C205.171 287.503 205.319 287.955 205.347 288.422Z" fill="#E0E0E0"/>
<path d="M179.348 306.038L179.341 305.147L145.199 285.438V286.323L179.348 306.038Z" fill="#FCBA04"/>
<path opacity="0.3" d="M179.348 306.038L179.341 305.147L145.199 285.438V286.323L179.348 306.038Z" fill="black"/>
<path d="M179.348 306.038L232.794 275.182L232.787 274.29L179.341 305.147L179.348 306.038Z" fill="#FCBA04"/>
<path d="M205.347 288.422C205.347 287.249 203.186 286.268 200.545 287.77L179.327 299.933V304.33L205.34 289.314C205.34 289.314 205.361 289.602 205.347 288.422Z" fill="#F5F5F5"/>
<path d="M179.341 304.33V299.933L146.68 281.075V285.472L179.341 304.33Z" fill="#EBEBEB"/>
<path d="M200.566 287.77L199.612 288.319L179.341 299.933L150.488 283.277L146.68 281.075L167.905 268.912C169.826 267.808 170.903 267.89 171.665 268.322L204.771 287.434C203.577 286.748 202.178 286.913 200.566 287.77Z" fill="#FAFAFA"/>
<path d="M177.852 296.62L195.928 286.192L196.882 285.644L197.575 286.048L196.621 286.59L178.552 297.017L177.852 296.62Z" fill="#E0E0E0"/>
<path d="M176.185 295.652L194.261 285.225L195.208 284.683L195.908 285.081L194.954 285.63L176.878 296.057L176.185 295.652Z" fill="#E0E0E0"/>
<path d="M174.518 294.692L192.588 284.265L193.541 283.716L194.234 284.121L193.287 284.663L175.211 295.09L174.518 294.692Z" fill="#E0E0E0"/>
<path d="M172.844 293.725L190.921 283.297L191.874 282.755L192.567 283.153L191.613 283.702L173.544 294.129L172.844 293.725Z" fill="#E0E0E0"/>
<path d="M171.177 292.764L189.254 282.337L190.2 281.788L190.9 282.193L189.946 282.735L171.87 293.162L171.177 292.764Z" fill="#E0E0E0"/>
<path d="M169.51 291.797L187.58 281.37L188.533 280.828L189.233 281.226L188.279 281.774L170.203 292.202L169.51 291.797Z" fill="#E0E0E0"/>
<path d="M167.837 290.837L185.913 280.409L186.866 279.861L187.559 280.265L186.612 280.807L168.536 291.234L167.837 290.837Z" fill="#E0E0E0"/>
<path d="M166.17 289.869L184.246 279.442L185.199 278.9L185.892 279.298L184.939 279.847L166.869 290.274L166.17 289.869Z" fill="#E0E0E0"/>
<path d="M164.503 288.909L182.579 278.482L183.525 277.933L184.225 278.338L183.272 278.88L165.196 289.314L164.503 288.909Z" fill="#E0E0E0"/>
<path d="M162.836 287.949L180.905 277.514L181.858 276.973L182.551 277.37L181.605 277.919L163.529 288.346L162.836 287.949Z" fill="#E0E0E0"/>
<path d="M161.162 286.981L179.238 276.554L180.192 276.012L180.884 276.41L179.931 276.952L161.862 287.386L161.162 286.981Z" fill="#E0E0E0"/>
<path d="M159.495 286.021L177.571 275.587L178.518 275.045L179.217 275.45L178.264 275.991L160.188 286.419L159.495 286.021Z" fill="#E0E0E0"/>
<path d="M157.828 285.054L175.897 274.626L176.851 274.084L177.544 274.482L176.597 275.024L158.521 285.458L157.828 285.054Z" fill="#E0E0E0"/>
<path d="M156.154 284.093L174.23 273.659L175.184 273.117L175.877 273.522L174.93 274.064L156.854 284.491L156.154 284.093Z" fill="#E0E0E0"/>
<path d="M154.487 283.126L172.563 272.699L173.517 272.157L174.21 272.555L173.256 273.097L155.187 283.531L154.487 283.126Z" fill="#E0E0E0"/>
<path d="M152.82 282.166L170.896 271.732L171.843 271.19L172.536 271.594L171.589 272.136L153.513 282.563L152.82 282.166Z" fill="#E0E0E0"/>
<path d="M151.153 281.198L169.222 270.771L170.176 270.229L170.869 270.627L169.922 271.176L151.846 281.603L151.153 281.198Z" fill="#E0E0E0"/>
<path opacity="0.1" d="M200.765 286.631C200.374 286.673 199.543 286.94 199.084 287.043C197.156 287.475 193.754 289.032 190.488 290.665C186.132 292.847 182.03 295.172 182.03 295.172L152.148 277.94L167.926 268.919C168.526 268.549 169.181 268.275 169.867 268.109C170.348 268.184 170.812 268.342 171.239 268.576L171.452 268.212L171.692 268.329L204.771 287.434C203.592 286.652 202.154 286.364 200.765 286.631Z" fill="black"/>
<path d="M179.32 300.893L182.558 299.247L179.341 301.209L176.103 299.343L179.32 300.893Z" fill="#E6E6E6"/>
<path d="M179.341 303.088L185.282 299.665L179.348 302.862L172.666 299.233L179.341 303.088Z" fill="#E6E6E6"/>
<path d="M146.68 282.049L151.674 285.061L146.68 282.509V282.049Z" fill="#E6E6E6"/>
<path d="M146.687 283.764L154.103 288.298L146.68 284.176L146.687 283.764Z" fill="#E6E6E6"/>
<path d="M200.634 285.698C200.207 285.744 199.784 285.815 199.365 285.911C197.431 286.35 194.028 287.9 190.77 289.533C186.413 291.715 182.304 294.047 182.304 294.047L149.63 275.196C149.63 275.196 162.06 268.041 166.938 267.094C169.229 266.655 170.635 266.964 171.486 267.451L203.927 286.179C202.91 285.667 201.755 285.498 200.634 285.698Z" fill="#F5F5F5"/>
<path d="M200.223 284.004C199.203 283.493 198.046 283.325 196.923 283.524C196.497 283.575 196.073 283.649 195.654 283.743C193.816 284.265 192.029 284.954 190.317 285.801C189.254 286.288 188.149 286.823 187.058 287.372C184.438 288.683 181.906 290.048 180.308 290.933L181.049 291.358C182.647 290.48 185.165 289.115 187.799 287.804C188.89 287.256 189.994 286.721 191.058 286.227C192.77 285.379 194.556 284.69 196.395 284.169C196.815 284.067 197.241 283.994 197.671 283.949C198.791 283.753 199.944 283.918 200.964 284.422L200.223 284.004Z" fill="#E0E0E0"/>
<path d="M198.556 283.064C197.535 282.557 196.378 282.391 195.256 282.591C194.827 282.637 194.401 282.708 193.98 282.803C192.143 283.328 190.357 284.017 188.643 284.861C187.58 285.349 186.475 285.89 185.385 286.432C182.764 287.75 180.233 289.115 178.634 289.993L179.375 290.418C180.974 289.54 183.491 288.175 186.125 286.865C187.216 286.316 188.327 285.781 189.391 285.294C191.101 284.446 192.885 283.758 194.721 283.236C195.142 283.138 195.568 283.065 195.997 283.016C197.12 282.817 198.277 282.986 199.297 283.496L198.556 283.064Z" fill="#E0E0E0"/>
<path d="M196.882 282.104C195.862 281.593 194.705 281.425 193.582 281.624C193.153 281.672 192.727 281.746 192.306 281.843C190.47 282.364 188.686 283.053 186.976 283.901C185.913 284.395 184.808 284.93 183.717 285.479C181.104 286.748 178.566 288.12 176.988 289.019L177.736 289.451C179.334 288.566 181.852 287.201 184.486 285.89C185.577 285.342 186.681 284.807 187.744 284.319C189.456 283.471 191.243 282.782 193.081 282.261C193.5 282.167 193.924 282.094 194.35 282.042C195.473 281.843 196.63 282.011 197.65 282.522L196.882 282.104Z" fill="#E0E0E0"/>
<path d="M195.208 281.137C194.188 280.626 193.031 280.457 191.908 280.656C191.482 280.708 191.058 280.781 190.639 280.876C188.801 281.396 187.014 282.085 185.302 282.934C184.239 283.421 183.134 283.956 182.044 284.505C179.423 285.815 176.892 287.18 175.293 288.065L176.034 288.49C177.633 287.612 180.15 286.247 182.785 284.93C183.875 284.388 184.98 283.853 186.043 283.359C187.757 282.515 189.543 281.826 191.38 281.301C191.799 281.205 192.222 281.134 192.649 281.089C193.771 280.888 194.928 281.054 195.949 281.562L195.208 281.137Z" fill="#E0E0E0"/>
<path d="M193.534 280.169C192.517 279.659 191.362 279.491 190.241 279.689C189.813 279.74 189.387 279.813 188.965 279.909C187.127 280.43 185.341 281.119 183.628 281.967C182.565 282.454 181.461 282.996 180.37 283.537C177.749 284.855 175.218 286.22 173.62 287.098L174.361 287.523C175.959 286.645 178.477 285.28 181.111 283.97C182.201 283.421 183.306 282.886 184.369 282.392C186.081 281.544 187.868 280.855 189.706 280.334C190.127 280.236 190.553 280.163 190.982 280.114C192.105 279.916 193.262 280.084 194.282 280.595L193.534 280.169Z" fill="#E0E0E0"/>
<path d="M191.867 279.202C190.846 278.697 189.69 278.531 188.568 278.729C188.138 278.774 187.712 278.847 187.292 278.948C185.453 279.469 183.667 280.158 181.955 281.006C180.898 281.5 179.787 282.035 178.696 282.577C176.076 283.894 173.544 285.259 171.946 286.137L172.687 286.57C174.292 285.685 176.803 284.319 179.444 283.009C180.535 282.46 181.639 281.925 182.702 281.438C184.412 280.591 186.197 279.902 188.033 279.38C188.492 279.277 188.917 279.209 189.308 279.161C190.431 278.962 191.588 279.13 192.608 279.641L191.867 279.202Z" fill="#E0E0E0"/>
<path d="M190.193 278.242C189.174 277.731 188.017 277.562 186.894 277.761C186.465 277.81 186.039 277.883 185.618 277.981C183.783 278.505 181.999 279.194 180.288 280.039C179.224 280.533 178.12 281.068 177.029 281.617C174.402 282.927 171.877 284.292 170.279 285.17L171.02 285.602C172.618 284.724 175.136 283.359 177.77 282.042C178.861 281.5 179.965 280.958 181.028 280.471C182.74 279.622 184.527 278.934 186.366 278.413C186.785 278.318 187.208 278.245 187.635 278.194C188.758 277.995 189.915 278.163 190.934 278.674L190.193 278.242Z" fill="#E0E0E0"/>
<path d="M188.52 277.274C187.5 276.764 186.343 276.595 185.22 276.794C184.793 276.846 184.37 276.919 183.951 277.014C182.112 277.534 180.326 278.223 178.614 279.072C177.55 279.559 176.446 280.094 175.355 280.643C172.735 281.953 170.203 283.318 168.605 284.203L169.346 284.628C170.944 283.75 173.462 282.385 176.096 281.075C177.187 280.526 178.291 279.991 179.355 279.497C181.067 278.649 182.853 277.96 184.692 277.439C185.112 277.337 185.538 277.264 185.968 277.219C187.088 277.023 188.241 277.189 189.26 277.693L188.52 277.274Z" fill="#E0E0E0"/>
<path d="M184.294 276.259C183.865 276.308 183.439 276.381 183.018 276.479C181.09 276.911 177.688 278.468 174.422 280.101C171.802 281.411 169.27 282.776 167.672 283.654L166.931 283.229C168.53 282.351 171.047 280.986 173.681 279.668C176.94 278.036 180.349 276.485 182.277 276.046C182.698 275.95 183.124 275.879 183.553 275.834C184.673 275.634 185.827 275.8 186.846 276.307L187.593 276.739C186.574 276.229 185.417 276.06 184.294 276.259Z" fill="#E0E0E0"/>
<path d="M182.62 275.292C182.229 275.34 181.804 275.408 181.344 275.511C179.416 275.943 176.014 277.501 172.755 279.133C170.128 280.444 167.603 281.809 166.005 282.694L165.257 282.262C166.863 281.383 169.373 280.018 172.008 278.708C175.273 277.075 178.675 275.518 180.603 275.086C181.024 274.989 181.45 274.915 181.879 274.866C183.002 274.668 184.159 274.836 185.179 275.347L185.906 275.772C184.89 275.264 183.738 275.096 182.62 275.292Z" fill="#E0E0E0"/>
<path d="M180.946 274.331C180.519 274.377 180.095 274.448 179.677 274.544C177.742 274.983 174.34 276.533 171.081 278.166C168.461 279.483 165.929 280.848 164.331 281.726L163.59 281.301C165.188 280.416 167.706 279.051 170.34 277.741C173.599 276.108 177.001 274.551 178.936 274.119C179.355 274.024 179.779 273.951 180.205 273.899C181.328 273.7 182.485 273.869 183.505 274.379L184.246 274.805C183.225 274.297 182.068 274.131 180.946 274.331Z" fill="#E0E0E0"/>
<path d="M179.279 273.364C178.85 273.412 178.424 273.486 178.003 273.584C176.076 274.016 172.666 275.573 169.408 277.206C166.787 278.516 164.256 279.881 162.657 280.759L161.917 280.334C163.515 279.456 166.033 278.091 168.667 276.774C171.925 275.141 175.328 273.591 177.262 273.152C177.681 273.057 178.105 272.984 178.531 272.932C179.654 272.733 180.811 272.901 181.831 273.412L182.579 273.844C181.559 273.335 180.402 273.166 179.279 273.364Z" fill="#E0E0E0"/>
<path d="M177.605 272.397C177.214 272.445 176.789 272.513 176.329 272.616C174.402 273.049 170.999 274.606 167.734 276.238C165.113 277.549 162.589 278.914 160.984 279.799L160.243 279.367C161.841 278.488 164.359 277.123 166.993 275.813C170.251 274.174 173.661 272.623 175.589 272.191C176.009 272.09 176.435 272.017 176.864 271.971C177.987 271.775 179.142 271.941 180.164 272.445L180.905 272.877C179.885 272.366 178.728 272.198 177.605 272.397Z" fill="#E0E0E0"/>
<path d="M175.932 271.43C175.505 271.481 175.081 271.554 174.662 271.649C172.728 272.088 169.325 273.638 166.067 275.271C163.439 276.588 160.915 277.953 159.317 278.832L158.569 278.399C160.174 277.521 162.685 276.156 165.326 274.846C168.584 273.213 171.987 271.656 173.915 271.224C174.335 271.126 174.761 271.053 175.191 271.004C176.314 270.805 177.471 270.974 178.49 271.484L179.231 271.91C178.212 271.399 177.054 271.231 175.932 271.43Z" fill="#E0E0E0"/>
<path d="M174.244 270.469C173.814 270.514 173.388 270.587 172.968 270.689C171.034 271.121 167.631 272.671 164.372 274.311C161.752 275.621 159.221 276.986 157.622 277.864L156.881 277.439C158.48 276.554 160.997 275.189 163.632 273.879C166.89 272.246 170.293 270.689 172.227 270.257C172.646 270.162 173.07 270.089 173.496 270.037C174.619 269.838 175.776 270.007 176.796 270.517L177.537 270.943C176.518 270.439 175.364 270.273 174.244 270.469Z" fill="#E0E0E0"/>
<path d="M172.59 269.502C172.161 269.551 171.735 269.624 171.314 269.721C169.387 270.154 165.977 271.711 162.719 273.344C160.098 274.654 157.567 276.019 155.969 276.897L155.228 276.472C156.826 275.594 159.344 274.228 161.978 272.911C165.237 271.279 168.646 269.728 170.574 269.289C170.994 269.193 171.42 269.122 171.85 269.077C172.97 268.877 174.124 269.043 175.142 269.55L175.89 269.982C174.87 269.472 173.713 269.304 172.59 269.502Z" fill="#E0E0E0"/>
<path d="M170.917 268.535C170.526 268.583 170.101 268.651 169.641 268.754C167.713 269.186 164.311 270.744 161.052 272.376C158.425 273.687 155.9 275.052 154.295 275.937L153.554 275.504C155.153 274.626 157.67 273.261 160.304 271.951C163.57 270.318 166.972 268.761 168.9 268.329C169.321 268.231 169.747 268.158 170.176 268.109C171.299 267.91 172.456 268.079 173.476 268.59L174.217 269.015C173.197 268.504 172.04 268.336 170.917 268.535Z" fill="#E0E0E0"/>
<path d="M207.014 280.574C206.014 281.179 205.119 281.944 204.366 282.838L203.68 282.447C204.433 281.553 205.328 280.788 206.328 280.183L225.351 269.207L226.037 269.605L207.014 280.574Z" fill="#E0E0E0"/>
<path d="M205.34 279.579C204.342 280.184 203.449 280.949 202.699 281.843L202.013 281.452C202.762 280.556 203.654 279.791 204.654 279.188L223.684 268.212L224.37 268.603L205.34 279.579Z" fill="#E0E0E0"/>
<path d="M203.673 278.612C202.674 279.219 201.78 279.983 201.025 280.876L200.339 280.485C201.094 279.592 201.988 278.827 202.987 278.221L222.01 267.245L222.696 267.643L203.673 278.612Z" fill="#E0E0E0"/>
<path d="M201.999 277.652C200.999 278.254 200.107 279.019 199.358 279.915L198.672 279.518C199.423 278.625 200.315 277.863 201.313 277.261L220.343 266.285L221.029 266.676L201.999 277.652Z" fill="#E0E0E0"/>
<path d="M200.312 276.684C199.313 277.291 198.419 278.055 197.664 278.948L196.978 278.557C197.733 277.664 198.627 276.9 199.626 276.293L218.656 265.317L219.342 265.708L200.312 276.684Z" fill="#E0E0E0"/>
<path d="M198.659 275.724C197.658 276.326 196.766 277.092 196.018 277.988L195.332 277.59C196.082 276.698 196.974 275.935 197.973 275.333L217.002 264.357L217.688 264.748L198.659 275.724Z" fill="#E0E0E0"/>
<path d="M196.992 274.757C195.993 275.362 195.101 276.126 194.351 277.02L193.665 276.629C194.413 275.733 195.306 274.968 196.306 274.366L215.335 263.39L216.021 263.781L196.992 274.757Z" fill="#E0E0E0"/>
<path d="M195.318 273.796C194.319 274.398 193.427 275.161 192.677 276.053L191.991 275.662C192.743 274.77 193.635 274.005 194.632 273.398L213.661 262.422L214.347 262.813L195.318 273.796Z" fill="#E0E0E0"/>
<path d="M193.651 272.829C192.651 273.432 191.758 274.197 191.01 275.093L190.324 274.702C191.072 273.806 191.965 273.041 192.965 272.438L211.994 261.462L212.68 261.853L193.651 272.829Z" fill="#E0E0E0"/>
<path d="M191.984 271.869C190.983 272.471 190.089 273.233 189.336 274.126L188.65 273.735C189.403 272.84 190.297 272.075 191.298 271.471L210.321 260.495L211.007 260.886L191.984 271.869Z" fill="#E0E0E0"/>
<path d="M190.31 270.901C189.311 271.506 188.419 272.271 187.669 273.165L186.983 272.774C187.731 271.878 188.624 271.113 189.624 270.51L208.654 259.534L209.34 259.925L190.31 270.901Z" fill="#E0E0E0"/>
<path d="M188.65 269.934C187.651 270.541 186.756 271.305 186.002 272.198L185.316 271.807C186.07 270.914 186.965 270.15 187.964 269.543L206.994 258.567L207.68 258.965L188.65 269.934Z" fill="#E0E0E0"/>
<path d="M186.969 268.974C185.969 269.576 185.076 270.341 184.328 271.238L183.642 270.84C184.393 269.947 185.285 269.185 186.283 268.583L205.313 257.607L205.999 257.998L186.969 268.974Z" fill="#E0E0E0"/>
<path d="M185.302 268.006C184.303 268.613 183.409 269.377 182.654 270.27L181.968 269.879C182.723 268.986 183.617 268.222 184.616 267.615L203.646 256.639L204.332 257.03L185.302 268.006Z" fill="#E0E0E0"/>
<path d="M183.628 267.046C182.628 267.649 181.736 268.414 180.987 269.31L180.301 268.912C181.052 268.02 181.944 267.257 182.942 266.655L201.972 255.679L202.658 256.07L183.628 267.046Z" fill="#E0E0E0"/>
<path d="M181.961 266.079C180.963 266.684 180.071 267.449 179.32 268.343L178.634 267.952C179.383 267.056 180.275 266.291 181.275 265.688L200.305 254.712L200.991 255.103L181.961 266.079Z" fill="#E0E0E0"/>
<path d="M180.294 265.118C179.293 265.718 178.398 266.481 177.646 267.375L176.96 266.984C177.712 266.09 178.607 265.327 179.608 264.727L198.631 253.751L199.317 254.142L180.294 265.118Z" fill="#E0E0E0"/>
<path d="M226.846 273.796L231.292 271.443L231.299 271.08L226.846 273.796Z" fill="#E6E6E6"/>
<path d="M231.299 272.754L223.876 276.904L231.299 272.486V272.754Z" fill="#E6E6E6"/>
<path opacity="0.02" d="M154.72 272.404C158.733 270.284 164.105 267.643 166.938 267.094C169.229 266.655 170.635 266.964 171.486 267.451L203.927 286.179C202.907 285.667 201.749 285.501 200.627 285.705C200.627 285.705 184.575 275.902 174.244 272.555C167.896 270.564 161.098 270.512 154.72 272.404Z" fill="black"/>
<path d="M80.6117 157.952C79.9519 160.502 79.0586 162.987 77.9432 165.374C77.2572 166.842 76.3448 169.168 74.6572 169.051C74.7739 168.653 74.8768 168.262 74.9591 167.892C74.9591 167.892 74.8493 166.307 69.7043 165.024C64.5593 163.741 63.1942 165.024 63.1942 165.024L62.9678 165.882C62.0677 165.604 61.1837 165.276 60.3198 164.901C59.1193 164.366 57.1917 163.474 56.5468 162.26C56.3259 161.802 56.1822 161.31 56.1215 160.805C55.95 159.824 55.7717 158.85 55.6002 157.869C55.2856 156.521 55.1815 155.133 55.2915 153.753C55.3174 153.263 55.4582 152.786 55.7025 152.361C55.9468 151.936 56.2877 151.574 56.6978 151.304C57.1931 151.082 57.7329 150.976 58.2756 150.995C60.1483 150.906 62.5219 150.104 64.381 149.925C66.1165 149.754 67.811 149.349 69.5328 149.198C71.3066 149.116 73.081 149.348 74.7739 149.884C78.4234 151.037 81.5858 154.35 80.6117 157.952Z" fill="#263238"/>
<path d="M60.2857 159.955C60.5944 156.415 60.711 151.153 60.711 151.153L60.4091 151.215C58.5707 151.517 56.252 152.477 54.3929 152.704C53.8505 152.72 53.3194 152.863 52.8426 153.122C52.4513 153.42 52.1356 153.805 51.921 154.247C51.7065 154.689 51.5992 155.176 51.6078 155.667C51.5948 157.062 51.7961 158.45 52.2046 159.783L52.8906 162.671C52.9899 163.171 53.1657 163.652 53.4119 164.098C54.146 165.257 56.1559 166.012 57.3633 166.465C58.2508 166.781 59.1555 167.047 60.073 167.261L60.2445 166.389C60.0693 164.247 60.0831 162.094 60.2857 159.955Z" fill="#37474F"/>
<path d="M48.7059 167.857L46.3872 159.248L59.7779 158.898L62.6591 166.842C62.6591 166.842 61.4243 168.097 60.7177 168.941C59.535 170.396 57.8968 171.41 56.0672 171.819C54.2377 172.229 52.3235 172.01 50.6335 171.198C50.261 171.032 49.9217 170.799 49.632 170.512L48.7059 167.857Z" fill="#B78876"/>
<path d="M21.0945 133.502C20.8133 136.137 21.17 141.652 24.5931 144.863C28.0163 148.073 36.1111 152.347 39.4313 154.268C43.7257 156.751 46.6069 162.047 46.6069 162.047C46.6069 162.047 48.6649 164.475 54.5027 163.59C58.6187 162.966 60.4504 161.327 61.0266 160.16C61.0266 160.16 61.1912 158.253 61.3147 157.176C61.7572 153.991 61.7733 150.762 61.3627 147.572L21.0945 133.502Z" fill="#263238"/>
<path d="M59.3802 150.92C55.9982 153.438 50.3044 154.048 43.712 150.234C37.1195 146.42 28.277 142.393 24.8401 139.752C20.1959 136.185 17.7194 128.776 30.4859 129.537C39.987 130.072 45.1869 137.159 49.9066 138.956C54.6262 140.754 65.9178 146.015 59.3802 150.92Z" fill="#37474F"/>
<path d="M70.9324 227.491C63.3864 223.952 61.4588 222.648 59.5517 219.424C56.252 213.813 52.4585 187.011 48.2944 166.444C50.2838 168.735 61.0883 166.149 61.5891 163.474C61.5891 163.474 79.1576 200.038 81.7026 213.01C90.2571 214.293 103.195 216.241 107.352 217.126C128.008 221.66 133.009 230.928 137.461 238.714L123.103 253.21C108.889 245.211 78.4373 231.024 70.9324 227.491Z" fill="#FCBA04"/>
<path opacity="0.4" d="M70.9324 227.491C63.3864 223.952 61.4588 222.648 59.5517 219.424C56.252 213.813 52.4585 187.011 48.2944 166.444C50.2838 168.735 61.0883 166.149 61.5891 163.474C61.5891 163.474 79.1576 200.038 81.7026 213.01C90.2571 214.293 103.195 216.241 107.352 217.126C128.008 221.66 133.009 230.928 137.461 238.714L123.103 253.21C108.889 245.211 78.4373 231.024 70.9324 227.491Z" fill="#BA8901"/>
<path d="M74.9592 167.892C74.8769 168.262 74.774 168.653 74.6574 169.051C73.9714 171.733 73.2099 174.807 73.1962 175.04L61.5959 171.123L62.9679 165.889L63.1943 165.031C63.1943 165.031 64.5663 163.748 69.7045 165.031C74.8426 166.314 74.9592 167.892 74.9592 167.892Z" fill="#B78876"/>
<path d="M102.036 264.206C78.6019 256.18 51.5529 242.186 46.353 235.257C41.1531 228.328 60.9717 170.54 60.9717 170.54C62.5906 169.01 74.0537 171.452 73.8479 174.656C72.7228 190.866 73.7175 212.242 68.8538 221.852C77.2384 222.84 85.5386 224.445 93.687 226.654C106.303 222.614 117.107 229.09 117.107 229.09L102.036 264.206Z" fill="#FCBA04"/>
<path opacity="0.3" d="M102.036 264.206C78.6019 256.18 51.5529 242.186 46.353 235.257C41.1531 228.328 60.9717 170.54 60.9717 170.54C62.5906 169.01 74.0537 171.452 73.8479 174.656C72.7228 190.866 73.7175 212.242 68.8538 221.852C77.2384 222.84 85.5386 224.445 93.687 226.654C106.303 222.614 117.107 229.09 117.107 229.09L102.036 264.206Z" fill="#FCBA04"/>
<path opacity="0.05" d="M57.6582 223.43C64.8886 224.02 68.8537 221.846 68.8537 221.846C70.0222 219.365 70.844 216.736 71.2959 214.032C69.1418 220.329 57.6582 223.43 57.6582 223.43Z" fill="black"/>
<path d="M152.457 202.37C144.41 205.663 141.09 206.562 137.227 208.544C132.926 210.753 131.63 213.778 128.721 218.018C125.908 220.974 123.034 222.264 121.408 221.88C118.602 221.626 107.832 225.996 102.495 236.457C96.822 247.55 97.9539 258.739 101.645 264.926C110.199 267.581 120.352 271.1 137.413 269.866C145.199 269.289 156.744 262.025 161.519 257.339C172.248 246.823 175.973 238.282 178.627 225.427C181.886 209.587 174.477 193.322 152.457 202.37Z" fill="#263238"/>
<path d="M186.658 195.44C194.37 191.231 197.209 181.566 192.999 173.855C188.789 166.143 179.125 163.304 171.413 167.514C163.702 171.724 160.863 181.388 165.072 189.1C169.282 196.811 178.947 199.65 186.658 195.44Z" fill="#263238"/>
<path d="M156.95 196.484L153.239 205.402C152.237 208.146 152.992 213.332 159.667 215.864C160.877 216.38 162.202 216.57 163.508 216.416C164.815 216.262 166.059 215.769 167.117 214.986L171.047 209.312L156.95 196.484Z" fill="#B78876"/>
<path d="M152.457 189.336C152.457 189.336 153.273 193.658 154.158 195.586C154.618 196.485 155.282 197.265 156.099 197.861C156.915 198.456 157.86 198.852 158.857 199.016L159.385 193.02L152.457 189.336Z" fill="#263238"/>
<path d="M156.559 173.119C155.707 172.965 154.831 173.008 153.998 173.246C153.166 173.484 152.399 173.91 151.757 174.491C149.624 176.412 150.337 182.895 152.443 189.336L156.998 190.159L156.559 173.119Z" fill="#263238"/>
<path d="M152.649 193.843C152.913 194.03 153.198 194.185 153.5 194.303C154.429 194.703 155.431 194.904 156.443 194.893C157.069 194.931 157.691 194.771 158.221 194.434C158.751 194.098 159.161 193.603 159.392 193.02L158.953 197.918L157.821 210.78C158.449 210.761 159.074 210.701 159.694 210.602C161.492 210.305 163.267 209.879 165.004 209.326C166.636 208.825 167.7 208.386 167.7 208.386C169.793 209.241 171.943 209.949 174.134 210.506C174.134 210.506 178.635 211.48 180.878 211.281C184.603 210.952 187.12 208.18 188.499 204.257C190.701 197.945 191.717 192.807 190.996 180.075C190.201 166.122 174.114 164.949 165.072 169.874C156.031 174.8 159.084 186.551 159.084 186.551C158.494 184.685 158.089 183.45 157.026 182.195C155.962 180.939 151.695 180.137 149.61 183.889C147.682 187.347 150.076 192.135 152.649 193.843Z" fill="#B78876"/>
<path d="M169.202 177.393C169.185 177.914 169.111 178.431 168.982 178.936C168.982 179.053 168.948 179.17 168.934 179.279C168.265 183.157 166.261 186.678 163.268 189.233C162.84 189.604 162.381 189.937 161.896 190.228C161.381 190.537 160.524 190.982 159.982 190.653C159.44 190.324 159.454 189.816 159.406 189.219C159.344 188.324 159.23 187.433 159.063 186.551C157.691 182.483 156.442 181.571 154.947 181.221C155.159 179.883 155.441 178.559 155.667 177.317C155.893 176.076 156.127 174.909 156.353 173.709C156.662 172.2 156.031 170.718 156.079 169.161C156.077 167.886 156.502 166.647 157.286 165.642C157.902 164.974 158.646 164.438 159.474 164.064C162.904 162.363 166.808 162.006 170.519 161.045C172.632 160.524 174.69 159.817 176.768 159.207C178.14 158.788 179.67 158.418 181.07 158.837C182.469 159.255 183.628 160.792 183.128 162.164C185.124 160.881 187.079 160.696 189.144 161.834C190.022 162.296 190.732 163.024 191.172 163.914C191.612 164.803 191.759 165.809 191.593 166.787C192.926 166.595 194.285 166.861 195.448 167.542C196.023 167.892 196.481 168.405 196.763 169.016C197.045 169.626 197.139 170.307 197.033 170.972C196.773 171.843 196.26 172.617 195.558 173.194C193.726 174.923 191.284 175.993 188.959 176.913C186.32 177.926 183.546 178.541 180.727 178.737C176.834 179.074 172.913 178.617 169.202 177.393Z" fill="#263238"/>
<path d="M156.497 174.134L151.133 170.814C151.333 170.451 151.606 170.132 151.934 169.877C152.261 169.623 152.637 169.437 153.039 169.332C153.44 169.227 153.859 169.204 154.27 169.265C154.68 169.327 155.074 169.471 155.427 169.689C156.14 170.153 156.648 170.872 156.847 171.699C157.046 172.525 156.921 173.397 156.497 174.134Z" fill="#263238"/>
<path d="M159.667 200.374C159.667 200.374 160.401 204.757 161.985 207.069C162.513 207.837 165.031 210.204 169.531 211.562L170.903 209.58L167.713 208.379C166.403 207.867 165.16 207.199 164.009 206.39C162.26 205.045 160.058 201.54 159.667 200.374Z" fill="#AD7A66"/>
<path d="M177.468 192.718C177.435 193.042 177.308 193.349 177.101 193.601C176.895 193.854 176.619 194.039 176.308 194.136C175.997 194.232 175.664 194.235 175.351 194.143C175.038 194.052 174.76 193.871 174.549 193.622C174.339 193.373 174.206 193.068 174.168 192.745C174.13 192.421 174.188 192.094 174.334 191.803C174.481 191.512 174.71 191.27 174.993 191.109C175.275 190.947 175.6 190.872 175.925 190.893C176.146 190.911 176.361 190.973 176.559 191.075C176.756 191.176 176.932 191.316 177.075 191.485C177.219 191.655 177.327 191.851 177.394 192.063C177.462 192.274 177.487 192.497 177.468 192.718Z" fill="#263238"/>
<path d="M176.144 186.592L172.22 187.559C172.103 187.024 172.196 186.465 172.481 185.997C172.766 185.529 173.221 185.189 173.75 185.049C174.009 184.986 174.278 184.977 174.54 185.022C174.803 185.066 175.054 185.164 175.277 185.308C175.501 185.452 175.693 185.64 175.842 185.861C175.991 186.082 176.094 186.33 176.144 186.592Z" fill="#263238"/>
<path d="M174.827 202.693L178.511 204.353C178.413 204.6 178.265 204.826 178.078 205.015C177.891 205.205 177.667 205.355 177.421 205.456C177.174 205.557 176.91 205.607 176.643 205.604C176.377 205.601 176.114 205.544 175.87 205.437C175.374 205.203 174.989 204.787 174.794 204.275C174.6 203.763 174.611 203.196 174.827 202.693Z" fill="#AD7A66"/>
<path d="M190.605 187.086L186.928 185.316C187.033 185.072 187.185 184.851 187.377 184.668C187.57 184.484 187.797 184.341 188.046 184.248C188.295 184.155 188.56 184.114 188.825 184.126C189.091 184.139 189.351 184.205 189.59 184.321C190.081 184.565 190.46 184.987 190.649 185.501C190.838 186.016 190.822 186.583 190.605 187.086Z" fill="#263238"/>
<path d="M188.904 192.19C188.869 192.513 188.741 192.82 188.534 193.071C188.327 193.322 188.05 193.507 187.739 193.602C187.428 193.697 187.096 193.699 186.784 193.607C186.471 193.515 186.193 193.334 185.983 193.085C185.774 192.836 185.642 192.531 185.604 192.207C185.566 191.884 185.624 191.557 185.771 191.267C185.918 190.976 186.147 190.735 186.429 190.574C186.712 190.412 187.036 190.337 187.36 190.358C187.582 190.376 187.798 190.438 187.996 190.54C188.194 190.642 188.37 190.782 188.513 190.953C188.657 191.123 188.765 191.32 188.832 191.532C188.899 191.745 188.924 191.968 188.904 192.19Z" fill="#263238"/>
<path d="M181.756 190.873L180.192 200.792L186.263 200.545L181.756 190.873Z" fill="#AD7A66"/>
<path d="M224.37 268.617C223.684 266.95 223.91 264.192 222.833 261.757C222.092 260.097 220.583 258.794 218.326 257.291L216.776 261.682L218.628 262.752C219.314 263.781 219.582 265.606 220.549 267.375C222.168 270.284 225.008 270.099 224.37 268.617Z" fill="#B78876"/>
<path d="M138.709 208.921C127.891 211.549 125.675 216.467 121.257 232.245C118.411 242.446 113.533 265.317 113.025 269.818C112.339 275.848 112.415 276.362 118.452 280.457C124.063 284.265 154.343 301.127 161.217 303.473C168.091 305.819 176.343 304.323 176.343 304.323L163.954 297.141C163.954 297.141 164.997 296.777 168.104 295.858C171.212 294.939 172.776 294.438 173.915 293.306C175.054 292.174 174.128 290.946 170.444 291.248C166.76 291.55 162.212 289.334 157.471 289.945L133.043 269.818L140.733 236.553C140.733 236.553 147.305 213.634 138.709 208.921Z" fill="#B78876"/>
<path d="M140.849 206.863C129.764 209.779 125.071 213.517 122.629 220.446C120.221 227.237 115.9 248.428 115.9 248.428C115.9 248.428 119.33 251.968 126.032 253.765C132.734 255.562 137.104 253.765 137.104 253.765C137.104 253.765 143.079 231.985 144.218 227.011C147.339 213.442 140.849 206.863 140.849 206.863Z" fill="#FCBA04"/>
<path d="M46.1017 289.756C48.4368 288.656 51.0636 288.336 53.5947 288.843C54.9771 288.969 56.2786 289.55 57.2955 290.495C58.2169 291.515 58.392 293.312 57.3335 294.188C56.6475 294.653 55.8205 294.863 54.9958 294.782C53.0159 294.782 50.8152 294.409 49.239 295.604C48.3328 296.282 47.716 297.409 46.6499 297.744C46.1106 297.871 45.5446 297.817 45.0385 297.592C44.5325 297.366 44.1142 296.981 43.8477 296.495C43.3317 295.505 43.2172 294.354 43.5279 293.282C43.6555 292.535 43.9543 291.829 44.4008 291.217C44.8474 290.605 45.4295 290.105 46.1017 289.756Z" fill="#FCBA04"/>
<path d="M40.8779 279.651C42.2714 281.639 44.9823 280.984 46.2083 279.766C47.4343 278.547 47.9978 276.788 48.4927 275.113C49.5969 271.305 50.7086 267.254 49.8862 263.348C49.6819 262.16 49.155 261.051 48.3633 260.142C47.9628 259.696 47.4529 259.363 46.884 259.174C46.315 258.986 45.7067 258.95 45.1194 259.068C43.7563 259.426 42.9111 260.767 42.2943 262.038C40.4872 265.795 39.5403 269.908 39.5225 274.077C39.5225 276.019 39.7433 278.052 40.8398 279.651" fill="#FCBA04"/>
<path d="M37.0476 282.53C37.7642 281.595 38.2415 280.499 38.4379 279.338C38.6344 278.177 38.544 276.985 38.1746 275.867C37.4137 273.63 36.0485 271.648 34.2301 270.14C32.1687 268.303 29.7683 266.885 27.1636 265.968C26.1534 265.562 25.0681 265.378 23.9806 265.427C23.4388 265.46 22.9132 265.624 22.4489 265.905C21.9847 266.187 21.5957 266.576 21.3154 267.041C20.5539 268.458 21.3154 270.179 22.0769 271.61C23.4394 274.083 24.9924 276.445 26.7219 278.677C28.1154 280.474 29.7069 282.24 31.8239 283.055C33.9408 283.87 36.1491 283.771 37.2761 282.294" fill="#FCBA04"/>
<path d="M40.7789 309.699C40.8557 309.403 40.8991 309.099 40.9083 308.793C40.9692 308.138 41.053 307.308 41.152 306.326C41.251 305.344 41.4185 304.042 41.7003 302.709C42.0246 301.25 42.4651 299.819 43.0176 298.43C43.5623 297.047 44.2979 295.747 45.2031 294.569C45.9405 293.612 46.8822 292.831 47.9596 292.284C48.6802 291.929 49.4505 291.685 50.2441 291.561C50.5479 291.556 50.8499 291.513 51.1426 291.432C50.8389 291.4 50.5327 291.4 50.2289 291.432C49.3911 291.5 48.5717 291.714 47.8073 292.064C46.6753 292.592 45.68 293.373 44.8985 294.348C43.9446 295.542 43.1746 296.871 42.6141 298.292C42.053 299.699 41.6147 301.151 41.3043 302.633C41.0712 303.846 40.911 305.071 40.8246 306.303C40.7484 307.347 40.718 308.199 40.7027 308.786C40.6969 309.092 40.7224 309.398 40.7789 309.699Z" fill="#263238"/>
<path d="M40.9842 307.826C40.999 307.687 40.999 307.547 40.9842 307.407V306.212C40.9842 305.169 40.9842 303.661 41.0375 301.803C41.1289 298.079 41.4487 294.074 42.0655 288.424C42.6519 283.093 43.4362 276.933 44.2662 272.912C44.449 271.998 44.6241 271.176 44.7992 270.46C44.9744 269.744 45.0962 269.112 45.2257 268.61C45.3551 268.107 45.4313 267.749 45.5074 267.445C45.545 267.31 45.5705 267.173 45.5836 267.034C45.5126 267.154 45.4612 267.285 45.4313 267.422L45.0886 268.572C44.9287 269.074 44.7764 269.691 44.5936 270.407C44.4109 271.123 44.2053 271.93 44.0149 272.859C42.9835 277.611 42.2082 282.415 41.6924 287.251C41.0756 292.909 40.7938 298.064 40.771 301.795C40.771 303.661 40.771 305.169 40.8319 306.212C40.8319 306.699 40.8928 307.095 40.9081 307.415C40.9144 307.555 40.94 307.693 40.9842 307.826Z" fill="#263238"/>
<path d="M40.9847 297.858C41.0164 297.443 41.0164 297.025 40.9847 296.61C40.939 295.802 40.8248 294.637 40.604 293.213C40.3279 291.544 39.9567 289.891 39.4922 288.264C38.9566 286.261 38.2667 284.304 37.4286 282.408C35.9857 278.911 33.9218 275.704 31.3367 272.943C30.8896 272.47 30.4114 272.027 29.9052 271.618C29.6843 271.427 29.494 271.245 29.296 271.1L28.7401 270.719C28.4057 270.466 28.0518 270.239 27.6816 270.042C28.8984 270.998 30.0554 272.028 31.1464 273.125C33.639 275.911 35.6421 279.098 37.0707 282.553C37.8883 284.44 38.5827 286.378 39.1496 288.355C39.6237 289.969 40.0152 291.606 40.3222 293.259C40.5812 294.668 40.7335 295.818 40.8248 296.617C40.8494 297.034 40.9028 297.449 40.9847 297.858Z" fill="#263238"/>
<path d="M21.1169 43.745L19.8376 45.7705C19.8376 45.7705 33.3007 48.7631 37.268 56.3627C37.2378 56.6333 37.2741 56.9072 37.3736 57.1606C37.4731 57.414 37.6329 57.6394 37.8391 57.8172L40.253 59.8732C40.5116 60.0852 40.8287 60.2134 41.162 60.2406C41.4953 60.2678 41.829 60.1927 42.1186 60.0255C42.1186 60.0255 50.3198 61.4647 54.3023 69.3079L55.9167 72.1483L68.7705 43.9734L43.1238 17.3215L21.1169 43.745Z" fill="#FCBA04"/>
<path d="M21.3987 39.8232L19 43.4098C19 43.4098 33.6281 44.552 39.4458 58.1826L48.7816 39.4425C48.7816 39.4425 24.6959 36.8001 21.3987 39.8232Z" fill="#EBEBEB"/>
<path d="M37.4733 13.0039C37.4733 13.0039 56.5104 12.2424 56.5104 32.1018L39.4837 58.1826C39.4837 58.1826 36.3159 38.7496 19.7537 39.77L37.4733 13.0039Z" fill="#F5F5F5"/>
<path d="M39.4456 58.1826C39.4456 58.1826 54.8808 58.9441 57.4699 71.5618L71.6791 46.7984L55.9164 33.0004L39.4456 58.1826Z" fill="#EBEBEB"/>
<path d="M56.4423 32.1171C56.4423 32.1171 65.9304 26.505 73.1568 32.8177L77.6648 37.0287L63.8287 62.2489C63.8287 62.2489 52.6044 52.1898 39.4155 58.2207L56.4423 32.1171Z" fill="#F5F5F5"/>
<path d="M39.4456 58.1826C39.6165 57.8123 39.8204 57.458 40.0548 57.1242L41.8366 54.3219C43.4053 51.908 45.4917 48.6793 47.799 45.108L53.7386 35.8788L55.5205 33.0766C55.7229 32.7227 55.9547 32.3865 56.2134 32.0714C56.0589 32.4468 55.8729 32.8086 55.6575 33.1527C55.2768 33.8457 54.6981 34.8204 53.9747 36.0311C52.5278 38.4374 50.4642 41.727 48.1341 45.3212C45.8039 48.9154 43.6566 52.1746 42.0422 54.459L40.1537 57.2003C39.9456 57.547 39.7087 57.8756 39.4456 58.1826Z" fill="#263238"/>
<path d="M72.2883 38.9932C72.235 39.0465 71.5649 38.3384 70.2856 37.4703C69.5372 36.9547 68.7447 36.5062 67.9174 36.1301C66.9029 35.6788 65.8472 35.3269 64.7649 35.0792C63.6777 34.8494 62.571 34.7245 61.46 34.7061C60.5515 34.7029 59.6444 34.7793 58.7491 34.9345C57.2262 35.2011 56.3124 35.5666 56.2896 35.4904C56.4783 35.3597 56.6865 35.2595 56.9063 35.1934C57.1545 35.0891 57.4088 35.0001 57.6678 34.9269C58.0055 34.8198 58.3487 34.7309 58.6958 34.6604C59.6043 34.4624 60.5303 34.3553 61.46 34.3406C62.5986 34.3396 63.7343 34.457 64.8486 34.6909C65.961 34.9431 67.0434 35.3133 68.0773 35.795C68.9139 36.1999 69.7095 36.6844 70.4531 37.2418C70.7729 37.4703 71.0319 37.7139 71.2755 37.9195C71.4788 38.0939 71.6696 38.2821 71.8467 38.483C72.0163 38.6323 72.1649 38.8039 72.2883 38.9932Z" fill="#263238"/>
<path d="M71.0701 42.1001C71.0091 42.1534 70.3086 41.4452 69.0674 40.5771C68.319 40.0615 67.5265 39.613 66.6992 39.2369C64.6712 38.313 62.4702 37.8302 60.2418 37.8205C59.3334 37.8147 58.4263 37.8886 57.5309 38.0414C56.008 38.3079 55.0942 38.6734 55.0637 38.6049C55.255 38.4738 55.4657 38.3736 55.6881 38.3079C55.9329 38.1951 56.1879 38.1059 56.4496 38.0414C56.7889 37.929 57.1348 37.8374 57.4852 37.7672C58.394 37.5721 59.32 37.4675 60.2494 37.455C61.3879 37.4478 62.524 37.5627 63.638 37.7977C64.7479 38.0536 65.8276 38.4263 66.8591 38.9095C67.6988 39.3055 68.495 39.7878 69.2349 40.3487C69.522 40.5611 69.7966 40.79 70.0573 41.034C70.2643 41.2041 70.4578 41.3899 70.636 41.5899C70.8038 41.7388 70.95 41.9105 71.0701 42.1001Z" fill="#263238"/>
<path d="M69.1819 45.0928C69.1285 45.1461 68.4584 44.4379 67.1792 43.5698C66.429 43.057 65.6368 42.6087 64.8109 42.2296C63.7952 41.7817 62.7397 41.4299 61.6584 41.1788C60.5711 40.9513 59.4644 40.8289 58.3536 40.8133C57.4454 40.8119 56.5387 40.8858 55.6427 41.0341C54.1197 41.3082 53.2059 41.6661 53.1831 41.5976C53.3731 41.4691 53.5809 41.369 53.7999 41.3006C54.0467 41.1929 54.3013 41.1038 54.5614 41.0341C54.8989 40.9242 55.242 40.8327 55.5894 40.7599C56.4983 40.5652 57.4242 40.4607 58.3536 40.4477C59.492 40.4436 60.6276 40.5585 61.7422 40.7904C62.8538 41.0487 63.9359 41.4212 64.9709 41.9022C65.8084 42.3052 66.6042 42.7898 67.3467 43.349C67.6353 43.5567 67.91 43.7831 68.1691 44.0267C68.3743 44.1988 68.5676 44.3845 68.7478 44.5826C69.0448 44.8872 69.2047 45.0699 69.1819 45.0928Z" fill="#263238"/>
<path d="M40.4812 49.1133C40.4127 49.1133 40.4051 48.0168 39.971 46.3263C39.413 44.1155 38.3287 42.0725 36.8106 40.3713C35.2924 38.6702 33.3853 37.3613 31.252 36.5564C29.6225 35.932 28.5259 35.795 28.5412 35.7264C28.7962 35.7077 29.0527 35.7256 29.3027 35.7797C29.9959 35.8929 30.6785 36.0635 31.3434 36.2899C33.5605 37.0418 35.5451 38.3552 37.1038 40.102C38.6625 41.8489 39.7421 43.9696 40.2376 46.2577C40.3957 46.9428 40.4875 47.6415 40.5117 48.3442C40.5439 48.6005 40.5337 48.8604 40.4812 49.1133Z" fill="#263238"/>
<path d="M42.5908 45.7095C42.5223 45.7095 42.5147 44.6129 42.0806 42.9225C41.5228 40.7128 40.4395 38.6706 38.9227 36.9696C37.406 35.2685 35.5008 33.9591 33.3693 33.1526C31.7321 32.5282 30.6356 32.3912 30.6508 32.3226C30.9059 32.3039 31.1623 32.3218 31.4123 32.3759C32.1055 32.4891 32.7881 32.6597 33.453 32.8861C35.6687 33.6391 37.6517 34.953 39.209 36.6997C40.7663 38.4465 41.8448 40.5667 42.3396 42.8539C42.4977 43.539 42.5895 44.2377 42.6137 44.9404C42.6533 45.196 42.6455 45.4567 42.5908 45.7095Z" fill="#263238"/>
<path d="M44.7 42.3057C44.6314 42.3057 44.6238 41.2091 44.1898 39.5186C43.6319 37.309 42.5486 35.2668 41.0319 33.5657C39.5151 31.8647 37.61 30.5553 35.4784 29.7488C33.8412 29.1244 32.7447 28.9874 32.7599 28.9188C33.015 28.9001 33.2714 28.918 33.5214 28.9721C34.2146 29.0853 34.8973 29.2559 35.5622 29.4823C37.7849 30.2313 39.7757 31.5431 41.341 33.2899C42.9063 35.0366 43.9927 37.1589 44.4944 39.4501C44.645 40.1365 44.7367 40.8346 44.7685 41.5366C44.7913 41.795 44.7681 42.0554 44.7 42.3057Z" fill="#263238"/>
<path d="M46.8168 38.9019C46.7407 38.9019 46.7331 37.8053 46.299 36.1148C45.7412 33.9052 44.6578 31.8629 43.1411 30.1619C41.6244 28.4609 39.7192 27.1515 37.5877 26.345C35.9505 25.7206 34.8616 25.5835 34.8692 25.515C35.1243 25.4963 35.3807 25.5142 35.6307 25.5683C36.3239 25.6815 37.0065 25.8521 37.6715 26.0785C39.8871 26.833 41.8701 28.1472 43.4284 29.8936C44.9867 31.64 46.0673 33.7594 46.5656 36.0463C46.7162 36.7327 46.8079 37.4308 46.8397 38.1328C46.8695 38.3889 46.8618 38.648 46.8168 38.9019Z" fill="#263238"/>
<path d="M48.9262 35.4981C48.8501 35.4981 48.8425 34.4015 48.4084 32.711C47.8506 30.5014 46.7672 28.4591 45.2505 26.7581C43.7338 25.0571 41.8286 23.7477 39.6971 22.9412C38.0599 22.3168 36.9709 22.1797 36.9786 22.1112C37.2336 22.0924 37.4901 22.1104 37.74 22.1645C38.4335 22.2768 39.1161 22.4474 39.7808 22.6747C41.9964 23.4292 43.9795 24.7434 45.5378 26.4898C47.0961 28.2362 48.1767 30.3556 48.6749 32.6425C48.8255 33.3289 48.9172 34.0269 48.9491 34.729C48.9789 34.9851 48.9712 35.2442 48.9262 35.4981Z" fill="#263238"/>
<path d="M51.0356 32.0942C50.9594 32.0942 50.9518 30.9977 50.5178 29.3072C49.96 27.0975 48.8766 25.0553 47.3599 23.3543C45.8432 21.6533 43.938 20.3439 41.8064 19.5374C40.1692 18.913 39.0803 18.7759 39.0879 18.7074C39.343 18.6886 39.5994 18.7066 39.8494 18.7607C40.5428 18.873 41.2255 19.0436 41.8902 19.2709C44.1058 20.0254 46.0889 21.3396 47.6471 23.086C49.2054 24.8324 50.2861 26.9518 50.7843 29.2387C50.9349 29.9251 51.0266 30.6231 51.0584 31.3251C51.0883 31.5813 51.0806 31.8404 51.0356 32.0942Z" fill="#263238"/>
<path d="M52.5889 45.0927L47.624 52.2811C47.624 52.2811 55.2389 51.3902 61.8637 55.6088L66.4326 47.9102C66.4326 47.9102 59.3965 42.3818 52.5584 45.0927" fill="#EBEBEB"/>
<path d="M272.342 67.5527L273.004 69.2919C273.004 69.2919 281.21 62.3244 287.806 63.4389C287.958 63.5862 288.145 63.6932 288.349 63.7506C288.553 63.8079 288.767 63.8137 288.974 63.7674L291.392 63.2343C291.646 63.1728 291.876 63.0352 292.05 62.8399C292.224 62.6447 292.334 62.4009 292.366 62.1413C293.941 60.8096 295.785 59.8343 297.772 59.2822C299.76 58.7301 301.842 58.6144 303.878 58.9429L306.388 59.2444L294.946 38.0134L266.23 41.411L272.342 67.5527Z" fill="#FCBA04"/>
<path d="M270.027 65.5278L271.141 68.7208C271.141 68.7208 278.739 60.1649 289.96 62.9648L282.707 48.3244C282.707 48.3244 269.709 62.0441 270.027 65.5278Z" fill="#EBEBEB"/>
<path d="M260.921 42.897C260.921 42.897 269.429 30.6957 281.77 40.054L289.938 62.965C289.938 62.965 276.364 55.7767 269.186 66.5618L260.921 42.897Z" fill="#F5F5F5"/>
<path d="M289.938 62.965C289.938 62.965 297.681 53.7145 306.727 58.0221L298.042 37.491L282.045 40.8779L289.938 62.965Z" fill="#EBEBEB"/>
<path d="M281.743 40.1025C281.743 40.1025 282.739 31.568 290.056 30.0335L294.789 29.2096L303.943 49.6815C303.943 49.6815 292.404 51.9268 289.943 62.9704L281.743 40.1025Z" fill="#F5F5F5"/>
<path d="M293.486 33.485C293.492 33.555 292.743 33.6465 291.591 34.0342C288.587 35.042 286.082 37.1612 284.591 39.9571C284.031 41.0232 283.843 41.7825 283.751 41.734C283.66 41.6855 283.757 41.5455 283.837 41.2063C283.964 40.7348 284.131 40.2753 284.338 39.8333C285.02 38.3579 286.016 37.0494 287.257 35.9995C288.491 34.9441 289.938 34.1656 291.499 33.7165C291.97 33.5827 292.451 33.4908 292.937 33.4419C293.293 33.4634 293.481 33.458 293.486 33.485Z" fill="#263238"/>
<path d="M294.844 35.703C294.849 35.773 294.095 35.8699 292.948 36.2522C289.944 37.26 287.44 39.3792 285.949 42.1751C285.383 43.2466 285.2 44.0004 285.103 43.9574C285.006 43.9143 285.114 43.7635 285.195 43.4243C285.319 42.9523 285.487 42.4927 285.696 42.0513C286.376 40.5753 287.372 39.2666 288.614 38.2175C289.846 37.1627 291.292 36.3859 292.852 35.9399C293.321 35.8039 293.802 35.712 294.289 35.6653C294.65 35.6814 294.838 35.676 294.844 35.703Z" fill="#263238"/>
<path d="M295.813 38.288C295.829 38.358 295.07 38.4495 293.923 38.8318C292.434 39.3448 291.054 40.1299 289.852 41.1472C288.656 42.1712 287.664 43.4115 286.928 44.8032C286.374 45.8747 286.18 46.6286 286.094 46.5855C286.007 46.5424 286.099 46.3863 286.185 46.0524C286.304 45.5776 286.47 45.1158 286.681 44.674C287.366 43.2041 288.36 41.8986 289.594 40.8456C290.828 39.7873 292.277 39.0101 293.842 38.568C294.311 38.4311 294.793 38.3392 295.28 38.2934C295.624 38.2611 295.813 38.2557 295.813 38.288Z" fill="#263238"/>
<path d="M297.089 40.5653C297.1 40.6406 296.34 40.7322 295.194 41.1145C292.189 42.1223 289.685 44.2415 288.194 47.0374C287.634 48.1143 287.445 48.8628 287.354 48.8251C287.262 48.7874 287.359 48.6258 287.445 48.292C287.564 47.8171 287.73 47.3554 287.941 46.9136C288.628 45.4415 289.623 44.1341 290.859 43.0798C292.091 42.0231 293.539 41.2477 295.102 40.8076C295.571 40.6685 296.053 40.5765 296.54 40.5329C296.895 40.5437 297.084 40.5383 297.089 40.5653Z" fill="#263238"/>
<path d="M298.473 42.9615C298.483 43.0261 297.73 43.1231 296.583 43.5054C295.094 44.0174 293.713 44.8026 292.512 45.8207C291.318 46.8426 290.327 48.0813 289.594 49.4714C289.028 50.5429 288.845 51.2967 288.748 51.2536C288.651 51.2106 288.759 51.0598 288.84 50.7206C288.964 50.2485 289.132 49.7889 289.341 49.3475C290.028 47.8754 291.023 46.568 292.259 45.5138C293.486 44.4701 294.924 43.7042 296.475 43.2684C296.952 43.1185 297.442 43.0175 297.94 42.9669C298.29 42.94 298.473 42.9292 298.473 42.9615Z" fill="#263238"/>
<path d="M300.131 45.6001C300.142 45.6754 299.323 45.7724 298.085 46.2139C297.358 46.4705 296.652 46.7837 295.974 47.1508C295.153 47.6114 294.369 48.1333 293.626 48.7123C292.892 49.3041 292.207 49.9561 291.58 50.6615C291.074 51.2448 290.62 51.8719 290.223 52.5353C289.556 53.666 289.351 54.4845 289.26 54.4468C289.267 54.25 289.305 54.0556 289.373 53.8706C289.429 53.6491 289.505 53.4329 289.599 53.2245C289.707 52.9411 289.834 52.6658 289.981 52.4007C290.344 51.7112 290.775 51.0599 291.268 50.4569C291.897 49.723 292.591 49.0472 293.341 48.4377C294.102 47.8413 294.915 47.3133 295.77 46.86C296.471 46.4996 297.205 46.2057 297.961 45.9824C298.245 45.8925 298.534 45.8223 298.828 45.7724C299.049 45.7197 299.274 45.6855 299.501 45.6701C299.942 45.5947 300.131 45.5785 300.131 45.6001Z" fill="#263238"/>
<path d="M300.971 47.8725C300.982 47.9478 300.158 48.0394 298.925 48.5078C298.204 48.7868 297.507 49.1235 296.841 49.5147C296.031 50.0035 295.261 50.5544 294.536 51.1624C293.815 51.7747 293.146 52.4446 292.533 53.1654C292.04 53.7637 291.598 54.4032 291.214 55.0769C290.557 56.2184 290.342 57.0261 290.261 56.9992C290.18 56.9723 290.277 56.7892 290.374 56.423C290.432 56.2007 290.505 55.9829 290.595 55.7715C290.702 55.486 290.826 55.2073 290.966 54.9369C291.321 54.2401 291.741 53.5784 292.221 52.9608C292.827 52.2042 293.501 51.5048 294.235 50.8716C294.976 50.244 295.775 49.687 296.62 49.2078C297.313 48.8211 298.044 48.5054 298.801 48.2655C299.082 48.1748 299.367 48.1011 299.657 48.0448C299.88 47.9906 300.107 47.9546 300.335 47.9371C300.766 47.8509 300.976 47.8455 300.971 47.8725Z" fill="#263238"/>
<path d="M284.802 58.0324C284.753 58.0809 284.064 57.5855 282.809 57.0632C281.179 56.3928 279.416 56.1037 277.657 56.2178C275.892 56.3718 274.189 56.936 272.681 57.8655C271.518 58.5762 270.915 59.1793 270.867 59.1308C270.966 58.9541 271.098 58.7971 271.254 58.6678C271.647 58.2831 272.074 57.9353 272.53 57.6286C274.044 56.5969 275.8 55.9769 277.626 55.8297C279.452 55.6824 281.285 56.0128 282.944 56.7886C283.445 57.0163 283.921 57.2941 284.366 57.6178C284.534 57.7294 284.682 57.8698 284.802 58.0324Z" fill="#263238"/>
<path d="M283.676 55.1195C283.628 55.168 282.944 54.6672 281.684 54.1503C280.05 53.4675 278.276 53.1851 276.511 53.3265C274.745 53.468 273.039 54.0291 271.534 54.9633C270.377 55.6795 269.768 56.2879 269.72 56.2395C269.82 56.0627 269.951 55.9058 270.107 55.7764C270.5 55.3924 270.925 55.043 271.378 54.7318C272.893 53.7 274.65 53.0805 276.477 52.9341C278.304 52.7878 280.137 53.1197 281.797 53.8972C282.297 54.127 282.775 54.4028 283.224 54.721C283.399 54.8238 283.552 54.9591 283.676 55.1195Z" fill="#263238"/>
<path d="M282.561 52.2068C282.513 52.2552 281.824 51.7598 280.542 51.2645C278.912 50.5805 277.143 50.295 275.38 50.4317C273.618 50.5684 271.914 51.1234 270.409 52.0506C269.251 52.7667 268.642 53.3752 268.599 53.3213C268.699 53.1446 268.831 52.9876 268.987 52.8583C269.38 52.4743 269.805 52.1248 270.258 51.8137C271.774 50.7851 273.531 50.1673 275.357 50.0206C277.183 49.8798 279.015 50.2098 280.677 50.9791C281.176 51.2102 281.652 51.4878 282.098 51.8083C282.275 51.9126 282.432 52.0475 282.561 52.2068Z" fill="#263238"/>
<path d="M281.431 49.2882C281.382 49.3367 280.698 48.836 279.412 48.346C277.776 47.6625 276.001 47.3802 274.235 47.5225C272.468 47.6649 270.761 48.2279 269.256 49.1644C268.104 49.8752 267.496 50.4836 267.447 50.4351C267.547 50.2584 267.678 50.1014 267.835 49.9721C268.225 49.5852 268.651 49.2355 269.106 48.9275C270.619 47.8922 272.376 47.2705 274.204 47.1241C276.032 46.9777 277.866 47.3116 279.525 48.0929C280.022 48.3219 280.498 48.5958 280.946 48.9113C281.13 49.0051 281.295 49.133 281.431 49.2882Z" fill="#263238"/>
<path d="M280.31 46.3701C280.262 46.4186 279.573 45.9232 278.291 45.4278C276.657 44.7451 274.883 44.4627 273.118 44.6041C271.352 44.7455 269.646 45.3067 268.141 46.2409C266.984 46.957 266.375 47.5655 266.332 47.5116C266.432 47.3349 266.564 47.1779 266.72 47.0486C267.108 46.6589 267.533 46.3089 267.991 46.004C269.505 44.9715 271.262 44.3515 273.09 44.2052C274.917 44.0588 276.75 44.3911 278.41 45.1694C278.904 45.403 279.378 45.6786 279.826 45.9932C280.008 46.0896 280.172 46.2172 280.31 46.3701Z" fill="#263238"/>
<path d="M279.18 43.4515C279.131 43.5 278.453 43.0046 277.193 42.4877C275.559 41.8043 273.785 41.5216 272.02 41.663C270.254 41.8044 268.548 42.366 267.043 43.3008C265.88 44.0115 265.283 44.62 265.234 44.5715C265.334 44.3947 265.465 44.2378 265.622 44.1084C266.009 43.7187 266.435 43.3688 266.893 43.0638C268.407 42.0314 270.164 41.4114 271.991 41.265C273.818 41.1187 275.652 41.451 277.312 42.2292C277.81 42.4561 278.284 42.7321 278.728 43.0531C278.901 43.1582 279.054 43.2931 279.18 43.4515Z" fill="#263238"/>
<path d="M149.734 102.659L150.946 104.531C150.946 104.531 158.714 94.305 166.677 93.9059C166.893 94.0368 167.138 94.1129 167.391 94.1277C167.643 94.1425 167.895 94.0954 168.126 93.9907L170.803 92.744C171.083 92.6074 171.316 92.3885 171.469 92.1164C171.621 91.8444 171.688 91.5321 171.658 91.2214C173.148 89.2659 175.045 87.6564 177.216 86.5038C179.388 85.3512 181.784 84.6827 184.238 84.5444L187.237 84.2484L168.466 62.4672L135.951 73.7519L149.734 102.659Z" fill="#E0E0E0"/>
<path d="M146.528 100.898L148.631 104.313C148.631 104.313 155.276 92.3904 169.064 92.7787L156.852 77.5931C156.852 77.5931 145.259 96.9179 146.528 100.898Z" fill="#EBEBEB"/>
<path d="M130.1 76.8784C130.1 76.8784 136.881 60.4878 153.632 68.2446L169.085 92.8146C169.085 92.8146 151.426 87.9388 145.866 102.321L130.1 76.8784Z" fill="#F5F5F5"/>
<path d="M153.624 68.2728C153.624 68.2728 152.551 58.127 160.719 54.4159L166.033 52.2452L181.956 73.7333C181.956 73.7333 169.087 79.3091 169.048 92.8121L153.624 68.2728Z" fill="#F5F5F5"/>
<path d="M165.604 57.5526C165.645 57.6244 164.782 57.9315 163.567 58.7284C160.33 60.6879 157.965 63.8123 156.958 67.4603C156.579 68.8754 156.53 69.7647 156.442 69.7561C156.353 69.7475 156.396 69.5315 156.408 69.1177C156.421 68.5392 156.489 67.9632 156.611 67.3976C157.035 65.5049 157.86 63.7251 159.031 62.1785C160.201 60.6319 161.69 59.3545 163.396 58.4323C163.909 58.1569 164.445 57.9274 164.998 57.7468C165.378 57.5755 165.597 57.5205 165.604 57.5526Z" fill="#E0E0E0"/>
<path d="M167.758 59.79C167.799 59.8618 166.927 60.1741 165.69 60.912C164.086 61.8875 162.68 63.1576 161.548 64.6553C160.421 66.1578 159.585 67.8575 159.082 69.667C158.703 71.082 158.649 71.9624 158.566 71.9628C158.522 71.7511 158.513 71.5336 158.541 71.3192C158.554 70.7407 158.622 70.1647 158.744 69.5991C159.168 67.7064 159.993 65.9267 161.164 64.3801C162.334 62.8335 163.823 61.556 165.529 60.6338C166.043 60.3521 166.582 60.1207 167.14 59.9431C167.334 59.8527 167.544 59.8007 167.758 59.79Z" fill="#E0E0E0"/>
<path d="M169.552 62.546C169.593 62.6177 168.721 62.93 167.515 63.7217C164.271 65.6764 161.905 68.8074 160.911 72.4626C160.532 73.8777 160.478 74.758 160.39 74.7494C160.301 74.7408 160.344 74.5248 160.356 74.111C160.372 73.5327 160.44 72.957 160.559 72.3909C160.986 70.4992 161.812 68.7206 162.982 67.1743C164.152 65.6281 165.64 64.35 167.344 63.4257C167.857 63.1502 168.393 62.9208 168.946 62.7401C169.326 62.5688 169.545 62.5139 169.552 62.546Z" fill="#E0E0E0"/>
<path d="M171.618 64.8816C171.66 64.9533 170.796 65.2604 169.56 65.9983C167.956 66.9732 166.549 68.2398 165.412 69.7326C164.289 71.2374 163.453 72.9364 162.947 74.7444C162.568 76.1594 162.514 77.0398 162.43 77.0402C162.347 77.0406 162.388 76.8014 162.397 76.4017C162.406 75.823 162.474 75.2468 162.6 74.6817C163.015 72.789 163.836 71.0089 165.006 69.4646C166.181 67.9267 167.671 66.6583 169.377 65.7447C169.887 65.4639 170.424 65.2343 170.979 65.0592C171.387 64.8954 171.612 64.8495 171.618 64.8816Z" fill="#E0E0E0"/>
<path d="M173.852 67.3001C173.893 67.3718 173.021 67.6841 171.815 68.4758C168.569 70.4332 166.201 73.5651 165.203 77.2219C164.823 78.6369 164.769 79.5173 164.681 79.5087C164.637 79.297 164.628 79.0795 164.656 78.8651C164.672 78.2868 164.74 77.7111 164.859 77.145C165.283 75.2523 166.108 73.4726 167.279 71.926C168.449 70.3794 169.938 69.1019 171.644 68.1797C172.157 67.9037 172.693 67.6742 173.246 67.4942C173.436 67.3969 173.641 67.3313 173.852 67.3001Z" fill="#E0E0E0"/>
<path d="M176.462 69.9557C176.503 70.0275 175.513 70.3839 174.246 71.235C173.468 71.7181 172.731 72.2637 172.042 72.8663C170.349 74.3325 168.933 76.0899 167.861 78.0553C167.423 78.8614 167.057 79.705 166.768 80.576C166.273 82.0584 166.226 83.0544 166.137 83.0458C166.098 82.8161 166.092 82.5821 166.118 82.3507C166.125 82.0788 166.157 81.8081 166.214 81.5421C166.266 81.1838 166.346 80.8299 166.452 80.4836C166.697 79.5751 167.04 78.6957 167.473 77.8605C168.018 76.8353 168.659 75.8645 169.388 74.9609C170.12 74.0714 170.93 73.2479 171.806 72.4999C172.532 71.9012 173.309 71.3684 174.129 70.9079C174.43 70.7365 174.742 70.5844 175.062 70.4527C175.305 70.33 175.558 70.2279 175.819 70.1474C176.213 69.9799 176.455 69.9236 176.462 69.9557Z" fill="#E0E0E0"/>
<path d="M178.018 72.3824C178.065 72.4631 177.069 72.8106 175.802 73.6617C175.032 74.1672 174.302 74.7324 173.621 75.3521C172.806 76.1299 172.05 76.9664 171.357 77.8548C170.684 78.7614 170.081 79.7176 169.552 80.7153C169.143 81.5408 168.797 82.3962 168.518 83.2742C168.031 84.7514 167.994 85.7654 167.911 85.7657C167.827 85.7661 167.872 85.5128 167.887 85.0617C167.895 84.7872 167.925 84.5138 167.977 84.2441C168.028 83.8854 168.103 83.5305 168.201 83.1818C168.437 82.2683 168.761 81.3799 169.17 80.5294C170.182 78.4409 171.593 76.5701 173.322 75.0219C174.032 74.3963 174.801 73.8404 175.617 73.3619C175.92 73.1611 176.234 72.9795 176.559 72.818C176.803 72.6953 177.056 72.5932 177.316 72.5127C177.774 72.4156 178.012 72.3503 178.018 72.3824Z" fill="#E0E0E0"/>
<path d="M161.797 88.3743C161.743 88.4054 160.835 88.0329 159.231 87.7625C157.153 87.3873 155.015 87.5142 152.996 88.1327C150.977 88.7512 149.135 89.8433 147.624 91.3181C146.457 92.4463 145.915 93.3096 145.838 93.2585C145.916 93.0294 146.03 92.8142 146.175 92.621C146.529 92.0691 146.937 91.5534 147.392 91.0814C148.889 89.4948 150.77 88.3219 152.854 87.6766C154.946 87.0439 157.164 86.957 159.299 87.4243C159.937 87.5683 160.561 87.7685 161.163 88.0225C161.592 88.2056 161.814 88.3408 161.797 88.3743Z" fill="#E0E0E0"/>
<path d="M159.74 85.2675C159.687 85.2986 158.778 84.9262 157.174 84.6558C155.096 84.2805 152.959 84.4075 150.94 85.0259C148.921 85.6444 147.079 86.7366 145.567 88.2113C144.4 89.3395 143.849 90.208 143.781 90.1517C143.859 89.9227 143.973 89.7074 144.118 89.5142C144.471 88.9651 144.875 88.4513 145.326 87.9798C146.823 86.3871 148.709 85.2119 150.799 84.5697C152.888 83.9275 155.109 83.8406 157.242 84.3175C157.897 84.4654 158.537 84.6724 159.154 84.9361C159.535 85.0988 159.757 85.234 159.74 85.2675Z" fill="#E0E0E0"/>
<path d="M157.699 82.1877C157.645 82.2188 156.728 81.8516 155.133 81.576C153.055 81.2008 150.917 81.3277 148.898 81.9462C146.879 82.5646 145.037 83.6568 143.526 85.1315C142.359 86.2597 141.808 87.1282 141.74 87.0719C141.815 86.84 141.927 86.6218 142.072 86.4255C142.424 85.8764 142.829 85.3625 143.279 84.8911C144.778 83.2991 146.666 82.125 148.756 81.4844C150.846 80.8438 153.068 80.7588 155.201 81.2378C155.839 81.3818 156.463 81.5819 157.065 81.8359C157.461 82.0025 157.726 82.1722 157.699 82.1877Z" fill="#E0E0E0"/>
<path d="M155.627 79.0543C155.599 79.1302 154.655 78.7181 153.061 78.4425C150.983 78.0673 148.845 78.1942 146.826 78.8127C144.807 79.4312 142.965 80.5233 141.453 81.9981C140.287 83.1263 139.735 83.9947 139.667 83.9385C139.743 83.712 139.854 83.4987 139.996 83.3062C140.353 82.7566 140.76 82.2413 141.212 81.7666C142.707 80.1738 144.592 78.9986 146.68 78.3572C148.769 77.7158 150.988 77.6305 153.119 78.1095C153.761 78.2486 154.388 78.4471 154.993 78.7025C155.422 78.8856 155.643 79.0208 155.627 79.0543Z" fill="#E0E0E0"/>
<path d="M153.57 75.9475C153.517 75.9786 152.599 75.6113 151.004 75.3357C148.926 74.9605 146.789 75.0874 144.77 75.7059C142.75 76.3244 140.908 77.4165 139.397 78.8913C138.23 80.0195 137.679 80.8879 137.611 80.8317C137.687 80.6052 137.798 80.3919 137.939 80.1994C138.297 79.6498 138.704 79.1345 139.156 78.6598C140.65 77.0742 142.531 75.9046 144.614 75.2662C146.697 74.6277 148.91 74.5422 151.036 75.0182C151.678 75.1573 152.305 75.3558 152.91 75.6112C153.148 75.6827 153.372 75.7966 153.57 75.9475Z" fill="#E0E0E0"/>
<path d="M151.513 72.8412C151.459 72.8723 150.541 72.505 148.947 72.2295C146.869 71.8542 144.731 71.9812 142.712 72.5996C140.693 73.2181 138.851 74.3103 137.34 75.785C136.173 76.9132 135.622 77.7817 135.553 77.7254C135.485 77.6692 135.641 77.4835 135.882 77.0931C136.238 76.5426 136.645 76.0271 137.098 75.5535C138.593 73.9607 140.478 72.7855 142.566 72.1441C144.655 71.5028 146.874 71.4174 149.006 71.8964C149.646 72.0393 150.273 72.2377 150.879 72.4894C151.109 72.5685 151.324 72.6876 151.513 72.8412Z" fill="#E0E0E0"/>
</svg>
