<svg width="30" height="30" viewBox="0 0 30 30" fill="none" xmlns="http://www.w3.org/2000/svg">
<g id="Icon settings">
<path id="Vector" d="M24.2749 16.8478L24.8932 16.0618L24.2749 16.8478L26.2081 18.3687L24.0327 22.1321L21.7688 21.2138C21.101 20.9429 20.3759 21.0642 19.8315 21.4391C19.5097 21.6606 19.1801 21.8567 18.8294 22.0295C18.2472 22.3163 17.7794 22.8767 17.6795 23.5917L17.3433 26H12.98L12.6451 23.6007C12.5437 22.8746 12.0643 22.3143 11.4823 22.0289C11.1401 21.8611 10.8153 21.6652 10.4944 21.4424C9.94868 21.0635 9.22203 20.9431 8.55457 21.2138L6.29062 22.1321L4.11523 18.3687L6.04844 16.8478C6.60777 16.4077 6.86515 15.7266 6.81151 15.0693C6.79575 14.8762 6.78666 14.6876 6.78666 14.5C6.78666 14.305 6.79648 14.1046 6.81359 13.8941C6.86763 13.2294 6.60068 12.5476 6.03756 12.1126L4.11672 10.6287L6.29121 6.86686L8.56664 7.78068C9.22381 8.04461 9.94035 7.93107 10.4835 7.5595C10.8086 7.33707 11.1366 7.14012 11.4816 6.9713C12.0645 6.68601 12.5437 6.1252 12.6451 5.39928L12.98 3H17.3433L17.6783 5.39928C17.7796 6.1252 18.2588 6.68601 18.8418 6.9713C19.1867 7.14012 19.5147 7.33707 19.8398 7.5595C20.383 7.93107 21.0995 8.04461 21.7567 7.78068L24.0321 6.86686L26.2066 10.6287L24.2858 12.1126C23.7227 12.5476 23.4557 13.2294 23.5097 13.8941C23.5268 14.1046 23.5367 14.305 23.5367 14.5C23.5367 14.6876 23.5276 14.8762 23.5118 15.0693C23.4582 15.7266 23.7156 16.4077 24.2749 16.8478Z" stroke="white" stroke-width="2"/>
<circle id="Ellipse 33" cx="15.1616" cy="14.5" r="2.75" stroke="white" stroke-width="2"/>
</g>
</svg>
