<svg width="283" height="327" viewBox="0 0 283 327" fill="none" xmlns="http://www.w3.org/2000/svg">
<path fill-rule="evenodd" clip-rule="evenodd" d="M74.6355 73.5575C74.3002 79.0355 73.9648 84.5126 73.6299 89.9907C75.786 89.3698 89.5011 85.3344 88.6542 89.4259C88.0461 92.3606 84.1903 95.5353 82.2256 97.5784C80.4176 99.4595 78.5555 101.292 76.6463 103.07C80.1554 101.727 83.6939 100.455 87.2576 99.2647C89.9543 98.3641 92.671 97.4853 95.4343 96.8102C96.4599 96.5594 99.2293 95.5367 100.198 96.234C102.745 98.0667 88.9292 111.564 87.0367 113.466C89.7125 112.222 92.453 111.091 95.2395 110.121C97.2517 109.421 103.468 106.744 105.248 109.03C107.154 111.475 102.433 117.091 101.123 118.871C99.2474 121.423 97.2142 123.87 95.0809 126.21C103.947 134.174 114.367 141.262 125.455 145.668C133.585 148.898 141.572 149.721 150.151 147.948C158.965 146.127 167.418 142.634 175.453 138.64C180.172 136.294 184.828 133.756 189.265 130.905C187.436 128.681 185.66 126.409 183.935 124.104C181.473 120.812 178.446 117.215 177.043 113.296C175.668 109.46 180.823 110.209 183.296 110.418C186.877 110.719 190.448 111.359 193.957 112.125C191.476 110.399 189.04 108.604 186.653 106.751C183.541 104.336 179.391 101.606 177.354 98.1313C175.563 95.0764 179.494 95.8478 181.311 96.2478C185.645 97.2026 189.861 98.8291 193.994 100.416C197.02 101.578 200.028 102.795 203.007 104.076C201.158 102.469 199.371 100.784 197.654 99.0381C195.345 96.691 192.232 93.8242 191.197 90.5921C189.089 84.0091 203.268 88.9746 205.688 89.9907C205.241 83.1716 204.794 76.3526 204.347 69.5335C185.573 74.5289 166.799 79.5253 148.024 84.5212C145.996 85.0613 143.457 86.237 141.34 86.2997C139.424 86.3572 137.109 85.4941 135.24 85.1373L101.266 78.646C92.3893 76.9497 83.5124 75.2538 74.6355 73.5575Z" fill="#FF5678"/>
<path fill-rule="evenodd" clip-rule="evenodd" d="M276.418 308.101C274.392 309.261 272.017 310.157 269.766 310.757C268.443 311.11 266.258 312.201 265.096 311.202C264.538 310.721 264.411 309.632 264.081 309.001C263.561 308.001 262.82 307.138 262.127 306.254C260.446 304.113 258.697 302.047 256.866 300.033C255.999 299.078 254.415 296.85 252.886 296.996C250.982 297.179 251.027 299.816 251.505 301.163C253.025 305.451 257.625 309.19 260.631 312.421C259.867 313.597 255.67 313.457 254.505 313.182C252.725 312.762 252.545 311.495 251.734 310.045C249.834 306.659 245.981 304.764 242.814 302.773C241.66 302.046 239.206 300.034 237.701 300.541C236.275 301.021 236.336 302.843 236.79 304.032C237.476 305.83 239.428 307.077 240.872 308.213C242.797 309.728 244.557 311.376 246.16 313.23C243.848 313.419 241.545 313.745 239.239 313.935C236.45 314.165 234.126 312.634 231.558 311.767C229.173 310.961 226.796 310.28 224.45 309.351C221.817 308.308 219.058 307.945 216.401 307.029C205.974 303.439 195.758 298.922 185.711 294.369C180.923 292.2 176.234 290.03 171.246 288.332C167.61 287.094 161.898 284.628 161.028 280.298C160.569 278.009 162.241 275.549 162.488 273.263C162.776 270.573 162.549 267.614 161.73 265.034C161.007 262.761 159.811 260.656 158.868 258.473C157.769 255.929 158.753 255.971 160.887 255.681C163.442 255.335 166.423 253.897 168.824 252.96C171.591 251.881 174.333 250.373 176.866 248.822C179.158 247.42 181.152 245.612 182.976 243.648C184.832 241.651 186.033 239.285 187.827 237.238C194.449 245.382 200.742 253.649 207.778 261.441C211.099 265.118 214.71 268.159 218.802 270.955C220.511 272.124 222.207 273.457 224.068 274.381C226.396 275.536 228.999 276.253 231.392 277.307C240.566 281.35 249.323 285.769 257.882 290.985C262.023 293.508 265.498 296.401 269.144 299.566C270.279 300.552 279.576 306.295 276.418 308.101ZM168.792 241.388C167.31 242.059 165.896 242.932 164.315 243.363C164.763 240.634 167.309 236.519 170.574 236.971C171.821 237.144 172.762 238.112 172.214 239.448C171.715 240.661 169.849 240.91 168.792 241.388ZM65.5902 167.381C63.9096 168.309 62.3434 168.85 61.3577 166.858C62.0878 166.711 65.404 166.269 65.5902 167.381ZM62.7918 161.75C61.4926 161.356 62.5315 160.942 62.9785 160.466C63.3267 160.097 64.4796 158.799 64.8829 158.585C66.6648 157.641 68.0419 161.153 68.8941 162.292C66.8771 162.113 64.7551 162.346 62.7918 161.75ZM76.6803 173.91C74.2182 174.327 74.4914 171.247 74.565 169.686C75.0842 170.32 78.5999 173.584 76.6803 173.91ZM84.8395 168.589C81.8377 169.096 79.8545 163.91 80.3927 161.641C80.8658 159.643 83.192 158.527 85.0442 158.233C86.8389 157.947 89.338 158.337 89.871 160.407C90.3422 162.236 86.8398 168.252 84.8395 168.589ZM155.891 246.876C153.734 247.538 151.621 247.622 149.453 248.273C146.993 249.011 144.716 248.946 142.251 249.448C141.248 249.652 138.544 251.113 137.566 250.787C136.596 250.464 135.194 247.457 134.637 246.675C138.998 244.862 142.719 242.522 145.593 238.702C147.878 235.665 150.33 231.114 148.892 227.194C147.27 222.774 141.68 221.815 137.953 223.661C136.189 224.534 134.442 225.619 132.988 226.95C131.326 228.471 130.672 230.131 129.595 232.007C128.506 233.905 127.742 232.849 126.654 231.238C125.724 229.861 125.845 228.47 124.683 227.111C124.09 226.418 123.172 225.749 122.863 224.853C122.667 224.286 123.08 223.279 122.708 222.832C122.185 222.204 121.548 222.942 121.11 222.381C120.792 221.974 120.896 221.046 120.567 220.536C120.282 220.246 119.965 219.999 119.614 219.793C119.188 219.583 119.111 219.32 119.38 219.004C119.042 218.378 119.368 218.166 118.644 217.404C117.514 216.216 116.484 215.078 115.68 213.676C115.313 213.034 115.349 212.083 114.892 211.527C114.266 210.764 113.222 210.879 112.683 209.935C112.204 209.094 112.525 207.623 111.733 206.859C111.316 206.74 110.899 206.623 110.481 206.508C110.167 206.203 109.984 205.832 109.932 205.397C109.492 204.72 109.405 203.925 108.85 203.21C107.788 201.843 106.359 200.58 105.421 199.138C104.435 197.623 104.958 197.368 106.671 196.826C108.216 196.336 109.627 195.882 111.059 195.049C117.679 191.196 123.956 180.976 113.447 177.853C109.548 176.694 106.344 173.579 102.02 174.803C100.145 175.334 98.3674 176.465 96.9689 177.806C96.0027 178.734 95.1077 181.214 93.9216 181.689C91.7887 182.543 92.6903 180.41 92.0851 179.429C91.7958 178.961 90.6325 178.422 90.2011 177.996C89.6952 177.497 89.2059 176.866 88.8544 176.249C88.2022 175.102 87.8032 174.464 86.8626 173.53C86.5082 173.178 84.7378 171.357 86.3344 171.595C85.6879 169.624 86.6313 169.328 87.9357 167.888C89.4672 166.198 91.0486 163.848 91.0576 161.479C91.0752 156.93 85.6855 154.893 82.3004 157.592C81.6116 158.142 77.5378 163.445 78.3714 160.063C78.8208 158.239 82.9821 153.477 84.9112 154.709C82.7493 151.558 77.7829 159.209 76.6238 160.775C75.6367 158.957 75.5669 157.536 73.9337 156.129C72.6041 158.261 73.3062 155.931 73.0131 155.457C72.3799 154.434 72.7276 155.604 72.3841 155.24C71.9566 154.788 71.2835 154.431 70.8284 153.832C70.0489 154.889 70.3605 153.751 70.1216 153.356C69.5634 152.433 69.7791 151.898 68.8224 151.094C68.126 150.51 66.7541 149.603 65.8168 149.521C64.7362 149.425 64.4369 149.839 63.3358 149.532C61.9349 149.143 60.172 148.544 60.8499 150.887C61.3425 152.59 63.3443 153.558 63.7828 155.297C64.2241 157.048 62.4926 158.813 61.6527 160.249C60.5739 162.09 59.6918 161.94 57.7375 162.355C56.4887 162.621 54.8218 163.189 55.893 164.704C56.6578 165.786 58.4505 165.558 59.46 166.199C60.8756 167.098 60.8561 169.315 62.6636 169.7C64.654 170.125 65.794 167.909 67.4723 167.374C68.6656 166.993 72.3623 167.035 73.3014 167.931C74.5812 169.152 73.4753 171.485 73.7974 173.001C74.2767 175.251 75.7982 175.388 77.7225 175.46C80.0915 175.548 80.9242 177.823 82.1983 179.627C85.1824 183.853 87.7761 188.359 90.8329 192.528C92.1863 194.375 94.1657 196.017 95.2735 198.021C96.6416 200.496 94.7424 201.923 93.1031 203.699C90.9612 206.02 89.3622 208.661 87.5044 211.198C85.8537 213.453 83.802 212.892 81.1641 212.892C81.7518 211.68 82.4591 210.924 83.9055 211.071C82.393 209.224 81.1836 211.336 80.2027 212.506C78.7833 214.199 76.933 214.607 75.1099 215.72C74.4648 216.113 70.9519 218.665 72.0193 219.536C72.1404 219.635 77.9558 215.81 78.618 215.459C78.618 216.871 78.3092 218.338 78.5073 219.743C78.6522 220.772 79.3761 221.846 79.2217 222.917C78.9296 224.938 76.3174 226.53 75.1963 228.105C74.3522 229.291 74.556 230.226 74.1266 231.498C73.7347 232.658 73.9403 232.307 72.9642 232.666C70.9766 233.396 67.631 233.002 65.8311 231.964C64.7138 231.32 63.8573 230.301 62.9496 229.404C62.266 228.727 60.5464 227.571 60.3564 226.624C60.0305 224.994 63.2669 221.965 63.9072 220.284C65.7161 215.538 62.6142 211.849 57.7869 211.58C59.2747 210.432 61.1188 211.297 62.6869 211.735C60.0063 208.02 55.4274 211.077 53.1535 213.601C51.5996 209.674 50.8505 205.531 49.9014 201.434C49.2549 198.645 46.7937 193.668 47.8915 190.796C48.4222 189.408 49.9204 188.634 50.9564 187.671C52.134 186.577 53.1425 185.27 54.0033 183.915C56.0312 180.726 57.2026 176.699 54.4099 173.556C55.2583 173.417 56.1072 173.277 56.9556 173.138C55.5756 171.841 53.3981 172.473 51.6072 172.088C50.471 171.844 47.2009 172.002 46.4422 171.359C45.5297 170.586 46.1145 167.028 46.1472 165.975C46.2223 163.514 46.428 161.147 46.6997 158.702C46.9572 156.391 46.9054 153.894 47.3828 151.624C47.7704 149.782 49.0093 149.22 50.4387 148.135C53.8551 145.539 56.6392 142.381 55.4726 137.908C55.8858 137.842 56.2991 137.776 56.7124 137.711C55.3757 136.744 53.6461 137.096 52.1592 136.585C53.5245 132.742 56.5442 125.986 61.4475 125.622C61.6161 127.34 61.5007 129.383 62.6598 130.805C63.9794 132.424 66.2957 132.588 68.0832 131.731C69.7055 130.953 71.2279 129.305 71.9756 127.676C72.4815 126.574 72.3903 124.71 73.2782 123.836C74.4686 122.664 82.6776 123.371 82.4263 125.349C82.2781 126.512 80.083 128.467 79.4697 129.498C78.3467 131.384 77.448 133.424 77.0357 135.591C76.41 138.881 76.7725 143.224 80.1134 144.954C83.9131 146.921 88.5437 144.42 91.66 142.258C93.371 141.072 95.0284 139.762 96.5912 138.386C97.424 137.655 98.2605 136.9 98.9944 136.068C99.5364 135.454 99.9692 134.463 100.636 134.003C102.212 132.916 103.756 134.76 105.09 135.692C107.261 137.209 109.422 138.65 111.754 139.913C116.484 142.475 120.809 145.87 124.992 149.24C129.199 152.631 133.537 156.118 136.945 160.342C134.881 161.612 135.249 161.942 134.331 164.206C133.679 165.814 132.781 167.182 132.677 168.968C132.498 172.05 134.477 174.676 137.48 175.358C139.16 175.74 140.76 175.434 142.315 174.748C143.525 174.214 144.73 172.901 145.994 172.574C148.342 171.969 150.221 176.405 151.538 177.968C157.384 184.909 163.564 191.576 169.07 198.799C169.68 199.6 171.491 201.163 171.638 202.222C171.849 203.743 169.456 205.193 168.464 206.065C167.942 206.523 162.415 211.723 164.271 212.549C164.8 212.784 166.349 209.594 166.736 209.321C168.186 208.3 167.089 210.302 167.003 211.315C166.787 213.83 168.515 215.201 170.944 214.882C173.536 214.542 175.843 212.495 177.447 210.563C179.457 212.891 182.599 216.41 183.18 219.521C183.552 221.507 181.833 226.37 185.042 226.775C185.532 226.837 187.305 225.522 187.635 226.269C187.911 226.892 185.994 227.957 185.718 228.163C184.537 229.045 183.824 229.989 182.87 231.057C181.751 232.311 180.221 233.366 178.962 234.568C177.635 235.833 175.011 239.269 173.26 237.609C172.381 236.775 172.612 235.684 171.202 235.194C169.919 234.748 168.293 235.314 167.101 235.808C165.758 236.365 161.336 238.396 160.845 240.069C160.168 242.375 163.823 239.602 164.473 239.197C163.732 241.078 163.322 243.801 161.435 244.899C159.867 245.811 157.611 246.347 155.891 246.876ZM130.824 232.647C132.079 228.613 139.48 221.421 144.158 223.671C138.707 224.813 134.38 228.544 130.824 232.647ZM133.592 244.198C131.768 243.181 131.866 240.229 131.23 238.501C130.864 237.51 130.133 236.786 130.348 235.686C130.599 234.396 132.244 232.963 133.12 232.033C135.875 229.105 140.724 225.105 145.159 225.776C150.804 226.63 146.977 234.209 145.055 236.819C143.416 239.044 137.104 246.155 133.592 244.198ZM120.423 239.265C114.318 238.857 108.235 238.311 102.213 237.191C100.078 236.794 98.29 236.852 99.5113 234.398C99.9146 233.588 102.346 228.511 102.895 228.656C103.221 228.742 103.147 232.232 103.242 232.632C103.673 234.429 104.884 236.103 106.925 235.989C110.264 235.802 112.415 231.485 114.174 229.168C115.582 231.062 116.601 233.165 118.017 235.027C118.694 235.917 121.05 237.988 120.423 239.265ZM84.6333 215.301C83.6091 217.652 81.5494 219.887 80.1167 222.017C79.3068 220.302 78.7372 216.366 80.6582 215.098C81.3855 214.619 85.2808 213.816 84.6333 215.301ZM105.806 222.3C106.088 221.395 106.4 220.498 106.748 219.617C107.345 221.497 107.65 221.552 105.806 222.3ZM111.031 224.225C111.772 225.481 113.007 226.716 112.814 228.294C112.667 229.489 111.587 230.714 110.815 231.547C109.538 232.924 106.71 235.569 104.86 233.739C103.315 232.211 103.853 228.009 104.572 226.289C105.598 223.833 109.265 221.234 111.031 224.225ZM107.406 221.652C107.83 221.483 106.938 218.742 107.766 218.469C108.488 220.115 109.169 220.561 107.406 221.652ZM95.7409 184.759C95.4659 183.748 94.8351 183.79 95.0621 182.54C95.2113 181.72 95.8621 180.845 96.3556 180.195C97.3394 178.9 98.6372 177.833 100.04 177.025C103.003 175.32 107.071 174.611 109.724 177.281C107.244 177.672 99.6424 180.12 99.5939 183.512C102.351 182.981 104.52 180.211 107.286 179.338C109.556 178.621 112.017 178.672 114.276 179.429C120.457 181.499 117.887 186.842 114.398 190.312C112.327 192.373 109.843 193.911 107.128 194.972C105.872 195.463 105.101 195.518 103.866 195.271C103.635 195.224 103.364 194.795 103.087 194.704C102.398 194.475 102.598 195.249 102.03 194.901C101.534 194.599 100.478 192.643 100.141 192.084C99.6048 191.193 99.355 190.327 98.6966 189.514C98.0377 188.7 97.7171 187.61 97.1076 186.874C96.815 186.519 96.0126 186.534 95.7975 186.188C95.474 185.669 95.8858 185.29 95.7409 184.759ZM86.2475 224.606C87.6526 222.165 90.0562 220.092 91.916 217.958C92.03 221.465 89.5157 223.867 86.2475 224.606ZM88.1461 225.733C91.0476 224.712 92.6461 222.27 92.9421 219.308C93.3178 215.557 95.673 213.588 97.091 210.218C97.6349 208.927 98.2686 204.676 100.376 205.893C101.099 206.31 101.528 207.88 101.905 208.588C102.817 210.303 103.853 211.966 104.82 213.65C105.607 215.021 106.787 216.4 106.44 218.05C106.137 219.489 105.162 221.023 104.591 222.38C103.244 225.585 101.473 228.537 99.9939 231.672C99.3973 232.937 98.6909 235.931 96.8687 235.915C95.4265 235.903 95.5875 234.326 94.6379 233.786C93.4394 233.104 92.0766 234.402 91.0918 234.94C92.2257 233.025 94.208 231.941 96.4359 232.302C93.7681 229.645 91.9654 233.23 89.6757 234.028C87.5063 234.785 83.6576 231.217 81.8311 230.206C82.5299 229.022 83.1612 227.575 84.363 226.797C85.5026 226.058 86.9016 226.171 88.1461 225.733ZM64.5571 250.013C64.8749 248.483 65.7727 247.579 66.3418 246.19C67.0016 247.874 65.4563 248.868 64.5571 250.013ZM110.655 259.401C110.499 264.553 110.078 269.691 109.926 274.844C109.856 277.22 109.436 279.487 109.156 281.836C108.92 283.823 109.04 285.774 107.79 287.471C105.819 290.146 101.986 290.915 99.0101 291.907C96.825 292.635 94.6146 293.295 92.4566 294.103C90.5146 294.831 88.9499 295.934 87.1035 296.798C85.4518 297.573 83.669 298.031 82.0249 298.856C80.3243 299.709 78.9804 300.748 77.2337 301.507C75.1427 302.416 73.4197 304.033 71.56 305.316C69.923 306.447 68.191 307.319 66.7826 308.74C65.462 310.073 63.7904 310.658 62.294 311.842C60.7117 313.095 59.0553 313.909 57.3071 314.891C53.7259 316.903 48.8943 320.34 44.5844 318.385C45.8171 316.811 48.34 315.298 48.5319 313.129C48.7813 310.303 46.322 311.343 44.8979 312.246C42.7408 313.612 41.5475 315.262 39.9053 317.083C37.9857 319.213 35.5607 317.78 33.2117 317.181C34.8178 315.735 36.411 314.276 38.0142 312.828C39.3676 311.605 41.4387 310.283 42.2629 308.593C42.8519 307.384 42.823 305.727 41.4017 305.1C39.8113 304.398 38.0128 305.878 36.8347 306.759C33.7081 309.099 31.6488 312.065 29.5957 315.321C28.5036 317.052 28.0006 316.92 25.9912 316.573C23.8621 316.207 21.733 315.816 19.5864 315.559C22.4299 312.638 25.6078 309.474 27.8538 306.057C28.5815 304.95 29.5306 302.032 27.3137 301.763C26.4002 301.653 24.5813 303.52 23.8768 304.024C20.7972 306.225 17.8363 309.002 15.7956 312.215C15.1215 313.276 14.9102 314.456 13.6052 314.544C11.8994 314.659 8.73 313.031 7.08449 312.528C10.2292 308.564 13.3521 304.571 17.0264 301.074C20.4025 297.862 23.77 295.528 27.7184 293.064C31.95 290.422 35.8918 287.382 39.7766 284.261C43.4956 281.274 47.3804 278.457 50.8035 275.122C57.6416 268.46 63.7319 260.798 68.7753 252.697C69.9553 250.801 71.0664 248.856 72.0265 246.839C72.9285 244.945 73.3442 242.679 74.5617 240.956C74.9821 240.361 75.5749 239.919 75.9497 239.298C76.3032 238.713 76.1834 238.006 76.7226 237.488C77.9696 236.291 80.2402 237.013 81.4055 237.852C83.2799 239.201 84.7962 240.839 86.8564 241.969C88.9285 243.105 91.1697 243.931 93.4641 244.489C98.8263 245.793 104.142 246.863 109.605 247.654C109.043 249.739 110.424 250.068 110.881 251.943C111.436 254.22 110.725 257.082 110.655 259.401ZM59.022 224.637C57.8064 222.83 56.7214 220.942 55.5263 219.124C54.7985 218.016 53.8964 216.827 54.5187 215.473C55.5662 213.19 59.2624 212.783 61.2679 213.779C65.8278 216.042 61.5919 222.512 59.022 224.637ZM46.9529 183.324C46.533 179.794 47.883 177.289 51.0771 175.438C53.3534 174.118 55.1866 175.921 54.8754 178.326C54.4028 181.991 50.4871 186.067 47.4987 187.979C47.3035 186.429 47.1377 184.875 46.9529 183.324ZM46.466 173.223C47.408 172.475 49.9313 173.429 51.023 173.494C49.5219 174.806 48.0203 176.118 46.5187 177.429C46.4204 176.529 45.5967 173.913 46.466 173.223ZM51.5317 139.126C59.1284 138.138 50.3836 146.291 48.1818 147.569C48.54 145.834 49.4202 139.401 51.5317 139.126ZM71.7557 124.853C70.7358 129.031 62.8056 133.589 62.7225 126.745C62.6921 124.195 64.1243 124.401 66.2154 124.156C67.4082 124.017 72.339 122.464 71.7557 124.853ZM44.364 131.324C43.4738 133.66 42.7598 136.057 41.8872 138.397C41.5005 139.432 41.0459 140.144 40.3257 140.965C39.7229 141.652 39.0056 141.825 39.0294 142.91C39.7847 142.764 40.3756 142.313 40.9855 141.88C40.8378 144.03 40.0778 146.345 39.7096 148.488C39.2688 151.058 38.9016 153.63 38.7652 156.236C38.4698 161.904 38.4674 167.551 38.5919 173.223C38.6555 176.112 38.684 179.004 38.8398 181.89C38.9177 183.326 39.0056 184.768 39.1833 186.195C39.2555 186.772 39.6735 187.998 39.4151 188.538C38.4004 190.658 33.9057 184.835 31.9538 185.69C32.2345 184.077 31.5871 184.43 30.5054 183.636C29.9815 183.252 29.6404 182.597 29.0941 182.255C28.9288 182.077 28.7468 181.918 28.5483 181.779C28.3226 181.471 28.0842 181.504 27.8338 181.877C25.6344 180.563 25.0663 177.761 23.8859 175.877C23.2788 174.908 22.6921 174.757 22.5886 173.417C22.4988 172.249 22.6745 171.059 22.627 169.887C22.5733 168.565 22.4959 167.106 22.1249 165.826C21.6945 164.339 21.1022 164.46 19.9483 163.668C20.3036 163.512 20.5383 163.251 20.6519 162.884C20.2832 162.95 19.1636 163.407 18.8852 163.078C18.338 162.434 19.6291 162.348 19.9683 162.09C18.5209 161.448 18.8325 160.919 19.355 159.742C19.5027 159.408 19.6438 158.911 19.7697 158.629C20.0443 158.016 20.2025 158.405 20.2932 157.642C20.3792 156.914 19.7346 155.485 19.5446 154.71C19.2263 153.41 19.05 152.287 19.336 150.933C19.5678 149.837 20.1915 148.844 20.2348 147.716C20.2471 147.4 19.765 147.295 19.7583 146.989C19.7488 146.542 20.1659 146.346 20.2742 145.933C20.5511 144.877 20.4262 143.759 20.8998 142.757C21.3259 141.856 22.1867 140.691 22.7957 139.906C23.218 139.361 24.254 138.747 24.3675 138.029C24.4426 137.552 23.7011 137.607 23.7339 137.248C23.779 136.762 24.1866 136.605 24.2982 136.244C24.6065 135.253 24.6839 134.301 25.4805 133.542C26.4843 132.586 26.9199 132.986 26.9617 131.41C26.9816 130.641 26.3665 130.523 26.6961 129.636C26.8752 129.155 27.4035 128.87 27.7412 128.529C28.7445 127.517 29.4209 126.618 30.1354 125.368C30.7672 124.263 31.7747 123.62 32.4222 122.666C33.2649 121.423 32.0046 120.806 33.7152 120.455C33.472 119.683 33.2136 119.059 33.8534 118.405C34.2572 117.993 35.2809 118.245 35.6381 117.768C36.0476 117.221 35.4424 115.924 36.0595 115.568C36.5611 115.28 37.3121 116.169 38.1007 115.729C38.7011 115.393 39.6084 113.54 39.4151 112.858C40.9684 113.732 40.5813 113.13 41.3247 112.009C41.4915 111.758 41.9964 111.702 42.1399 111.448C42.4268 110.941 42.3612 110.425 42.775 110.012C43.4638 109.326 44.591 109.503 45.3492 109.012C45.9757 108.608 45.9425 108.171 46.4422 107.789C46.8693 107.463 47.5709 107.4 47.9861 107.062C48.7993 106.399 48.8074 105.7 49.8249 105.129C51.0301 104.454 52.0975 103.879 53.1938 102.984C53.9083 102.4 54.5866 101.365 55.4227 100.981C56.5789 100.448 57.4796 100.41 58.6106 99.6504C59.4281 99.1013 60.201 98.1949 61.0034 97.7318C61.609 97.3831 62.0337 97.4582 62.7966 97.242C64.1699 96.8525 64.5043 95.5585 65.6245 95.0317C66.3935 94.6702 67.5132 95.0013 68.3578 94.8113C70.9857 94.2213 73.5817 92.9487 76.2191 92.2438C79.4379 91.3839 82.68 90.6306 85.9235 89.87C82.9427 93.9102 79.1462 97.5555 75.2956 100.764C74.0315 101.818 67.1056 106.62 70.8389 108.67C72.3376 109.493 75.593 106.835 76.8029 106.185C79.2393 104.876 81.7627 103.829 84.3146 102.77C88.4407 101.059 93.8142 98.0149 98.3997 98.26C95.6084 101.685 92.1241 104.434 88.9314 107.459C85.9976 110.239 81.5769 112.846 82.9602 117.397C78.8393 116.349 75.1379 115.109 70.8531 115.384C68.934 115.507 67.0134 115.276 65.1029 115.545C63.0256 115.839 61.0694 116.534 59.0728 117.144C57.4933 117.626 55.7481 117.664 54.295 118.466C53.5929 118.855 52.7245 119.408 52.0937 119.89C51.2524 120.531 51.0614 120.957 50.4007 121.802C48.0445 124.819 45.7644 127.648 44.364 131.324ZM31.475 188.431C31.3462 187.909 31.2294 187.433 31.0816 186.836C32.3932 187.644 32.3932 187.644 31.475 188.431ZM21.5625 171.799C21.401 172.022 20.7217 172.094 20.5245 171.901C20.279 171.661 20.9245 170.727 21.0281 170.529C21.2841 170.725 21.8732 171.368 21.5625 171.799ZM18.7546 165.746C18.928 165.108 19.1023 164.47 19.2757 163.833C19.489 164.424 20.4504 165.077 20.4718 165.64C20.4851 166.014 18.9446 165.828 18.7546 165.746ZM19.3118 166.62C20.8167 167.611 20.9744 168.78 21.019 170.49C19.2182 169.894 19.4766 168.15 19.3118 166.62ZM45.4836 99.1374C45.3321 99.5488 44.687 100.83 44.2148 99.934C44.0638 99.6471 45.1696 99.2557 45.4836 99.1374ZM45.0518 97.7413C45.4238 97.4059 46.1734 97.823 46.5942 97.5522C46.8892 97.3617 46.7914 97.1694 46.9301 97.0568C46.9576 97.034 47.3586 96.2226 47.5229 96.0383C47.8132 95.7148 48.4459 95.5129 48.7984 95.2203C49.7841 94.4033 50.3403 93.3292 50.9607 92.2366C51.7003 90.9322 51.9364 90.7811 53.1297 90.1835C53.9525 89.7717 54.59 89.2677 55.2593 88.568C56.0307 87.7618 55.9742 87.1847 56.6074 86.3035C56.9205 85.8684 57.3708 85.8147 57.7351 85.4641C58.1722 85.0447 58.394 84.4575 58.7983 84.0343C58.9726 83.8509 59.5331 83.8514 59.6386 83.6946C59.7735 83.4961 59.8785 82.7023 60.0048 82.556C60.2457 82.8819 60.4875 83.2077 60.7283 83.5336C61.6793 81.861 62.3733 80.4791 63.9638 79.3661C65.634 78.1971 67.0757 76.487 68.8019 75.4405C69.19 75.2053 69.9805 75.1061 70.2769 74.7598C70.7781 74.1731 70.3439 73.6515 70.7097 73.1532C71.1244 72.5884 71.9281 73.0459 72.4554 72.8022C73.1228 72.4943 73.3138 71.5942 74.1726 71.6934C71.3476 75.0362 71.3828 80.2369 71.2331 84.4119C71.1681 86.2109 72.301 87.1177 70.6284 88.4373C69.2057 89.5608 67.1997 89.2273 65.5176 89.9665C63.4051 90.8947 61.1459 91.3882 58.9911 92.1972C56.7618 93.0337 54.9695 94.4983 52.8243 95.4673C50.9322 96.3214 49.6406 97.5356 47.9101 98.5902C47.2669 98.9821 46.2707 99.5512 45.5036 99.0828C45.0233 98.7892 44.4248 98.3066 45.0518 97.7413ZM76.962 69.7145C77.0846 69.2394 79.4963 67.9915 80.0896 67.5844C80.9798 66.9721 82.298 65.4777 83.2918 66.0715C83.6362 64.692 84.9801 63.1571 86.1672 62.865C87.4844 62.5401 89.7437 61.4109 91.0396 60.4248C91.4182 60.1369 91.5426 59.716 91.9882 59.4457C92.7639 58.9754 93.533 59.232 94.2802 58.5911C94.3942 58.4933 95.4279 56.7865 95.4688 56.8026C95.5215 56.986 95.5699 57.1713 95.6117 57.3575C96.396 56.9224 97.0948 56.5761 97.5836 56.0212C97.6943 55.8953 96.9755 55.568 97.2026 55.3191C97.4805 55.0137 98.1004 55.3548 98.3812 55.065C97.5081 59.3996 98.1579 64.9784 102.555 67.1754C97.3261 67.7407 92.2186 66.1684 86.9249 67.1341C84.391 67.5968 81.8149 68.3554 79.5101 69.5211C78.0978 70.2356 76.2917 72.7936 74.8861 71.5514C75.4438 70.8075 76.2951 70.3453 76.962 69.7145ZM102.334 57.2454C104.29 54.8536 107.256 53.9069 110.243 54.7633C113.74 55.7666 112.265 58.2102 111.737 60.9235C110.728 59.4438 108.542 57.9764 106.68 57.9318C104.041 57.8691 105.039 60.068 106.623 60.8556C108.064 61.5715 110.535 61.771 111.567 63.0731C112.57 64.3395 112.186 66.4111 112.348 67.9046C111.567 67.7887 110.787 67.6728 110.006 67.5569C110.661 64.0706 107.778 63.9015 105.09 62.9187C102.374 61.9259 100.109 59.9673 102.334 57.2454ZM111.093 48.6606V51.8961C110.007 51.2757 108.919 50.6562 107.831 50.0363C108.919 49.5779 110.007 49.119 111.093 48.6606ZM119.835 74.5127C123.465 75.4965 127.071 76.5378 130.562 77.8954C131.829 78.3885 133.218 78.5629 134.46 79.1196C135.643 79.6493 135.82 79.5942 135.399 80.6307C134.221 83.535 131.429 83.0334 128.983 82.5892C125.154 81.8938 121.405 80.9295 117.624 80.0222C113.928 79.1362 110.155 78.5548 106.515 77.4442C102.78 76.305 99.1403 75.2258 95.2982 74.4733C94.1771 74.2539 85.3074 73.4401 85.3748 72.5129C90.9607 71.7875 96.7119 72.5024 102.323 72.5779C108.154 72.6563 114.178 72.9798 119.835 74.5127ZM114.906 63.2787C114.975 61.2817 115.003 59.2785 115.251 57.2934C116.913 59.3445 118.413 59.9588 120.508 58.0358C122.513 56.1956 122.961 55.236 125.504 56.9661C127.708 58.4672 129.794 58.3978 132.134 57.0843C133.562 56.283 135.857 53.009 137.358 53.6831C138.073 54.0042 138.598 55.2992 139.32 55.7756C140.226 56.3723 141.619 56.7865 142.675 57.0183C145.17 57.5646 146.656 55.9604 148.222 54.2441C150.493 51.7559 150.426 53.201 152.531 54.9263C154.879 56.8511 156.842 55.911 158.969 54.2684C160.263 58.0634 160.748 62.2076 161.114 66.1859C161.237 67.5293 161.699 69.4366 160.492 70.3866C159.642 71.0564 157.837 71.0826 156.812 71.4526C153.152 72.776 149.635 74.6538 146.574 77.057C145.381 77.9938 144.341 79.1405 142.712 78.9272C141.158 78.7239 139.649 77.4237 138.4 76.5649C137.044 75.6338 135.672 74.5764 134.088 74.0577C133.16 73.7537 131.674 73.8639 130.862 73.3062C129.352 72.2701 131.129 69.552 130.753 67.7274C130.468 66.3422 129.671 63.454 127.763 64.2659C124.924 65.4739 126.576 70.19 128.138 71.6621C124.943 71.0949 121.407 70.2664 118.327 69.2138C115.947 68.401 114.82 65.7142 114.906 63.2787ZM168.473 73.005C175.03 71.1638 181.165 69.9225 187.988 69.5872C191.009 69.4385 193.933 69.5325 196.92 69.5596C198.639 69.5753 199.949 68.1887 198.576 66.5935C196.675 64.3851 190.875 65.2259 188.306 65.1266C181.419 64.8606 175.104 65.6434 168.582 67.9136C169.271 66.6429 170.928 66.4781 172.064 65.8211C173.457 65.0145 174.404 63.6858 174.999 62.2113C176.548 58.3764 174.989 54.7629 173.37 51.26C176.551 52.116 179.843 53.9905 183.042 54.4664C183.713 54.5662 184.143 54.5021 184.736 54.7462C185.1 54.8959 185.215 55.4137 185.667 55.5267C185.885 55.5813 186.408 55.0887 186.655 55.1586C187.629 55.4341 186.859 55.5072 187.475 55.9058C187.964 56.2222 187.924 56.6297 188.821 56.4801C189.218 56.4145 189.65 55.7994 189.859 55.7823C190.126 55.7609 190.064 55.436 190.473 55.5305C191.216 55.7034 191.15 56.6606 191.398 57.1318C191.662 57.633 191.287 58.2999 192.089 58.5745C192.688 58.7802 192.838 58.147 193.348 58.1926C193.657 58.2201 194.299 58.6657 194.573 58.9374C195.453 59.8124 196.658 60.7782 197.842 61.3473C197.726 61.2304 198.4 60.9487 198.239 60.8827C198.131 60.8385 198.839 61.0095 198.828 61.0067C199.511 61.1625 199.873 62.2118 200.218 62.5947C200.853 63.2958 201.841 64.0364 202.731 64.3461C204.27 64.8815 204.223 64.2412 204.785 66.071C205.88 64.3499 206.3 67.232 207.657 67.5493C208.36 67.7136 208.278 67.4125 208.917 67.7806C209.356 68.0329 209.648 68.8053 209.978 69.1782C210.12 68.6404 210.262 68.1022 210.403 67.5649C211.381 69.4176 213.492 72.3547 215.806 71.8236C215.806 72.329 215.597 72.9333 215.989 73.3646C216.262 73.6663 216.705 73.3238 216.918 73.499C217.105 73.652 217.552 74.261 217.695 74.3612C217.976 74.5588 218.488 74.7028 218.732 74.8999C218.948 75.0733 219.055 75.9013 219.294 76.2001C219.743 76.7625 220.52 76.8741 220.887 77.5482C220.971 76.8836 221.055 76.2181 221.139 75.5531C221.868 76.1165 221.93 76.5535 222.109 77.3777C222.364 78.551 222.026 78.2759 222.835 78.7714C223.631 79.2583 224.045 79.2037 224.775 80.0488C225.489 80.8772 225.496 81.3874 226.527 80.5247C226.719 81.1632 226.781 81.9888 227.293 82.4781C227.679 82.8476 229.281 82.8638 229.434 83.7369C226.425 81.1979 228.405 85.0542 229.436 83.7436C229.653 85.1463 230.68 85.5995 231.852 86.5985C232.946 87.5295 233.125 87.4621 233.498 89.0264C233.49 88.9922 234.048 89.338 234.088 89.4073C233.023 89.5594 234.675 90.7498 234.954 90.9674C235.158 91.1265 235.423 90.7469 235.762 91.0039C236.149 91.2984 236.464 91.9673 236.779 92.3706C237.633 93.4641 238.265 94.4032 239.164 95.2925C240.133 96.2521 240.605 97.4653 241.536 98.5868C242.569 99.8324 243.128 101.264 243.992 102.617C244.813 103.902 245.903 104.935 246.854 106.112C248.37 107.986 248.886 112.113 251.712 112.222C251.546 112.393 251.777 113.672 251.804 113.908C251.937 115.069 251.848 116.187 252.536 117.239C252.693 116.039 253.321 116.502 253.866 117.132C254.774 118.181 253.977 117.917 254.025 118.98C254.083 120.268 254.229 119.272 254.72 120.396C255.105 121.278 255.315 121.85 255.521 122.827C253.925 122.954 253.194 121.65 252.604 120.386C252.358 119.857 252.272 118.988 251.836 118.575C251.371 118.135 250.733 118.101 250.255 117.61C249.339 116.667 248.942 115.197 247.862 114.279C246.641 113.243 246.371 112.753 245.362 111.513C244.246 110.142 242.705 109.18 241.535 107.854C240.362 106.525 240.457 107.25 238.985 106.77C237.418 106.258 234.886 101.333 232.913 103.23C232.991 101.989 231.133 100.822 230.194 100.373C229.788 100.179 229.315 100.354 228.909 100.063C228.468 99.7473 228.437 99.1384 227.992 98.7588C227.992 98.7588 227.311 98.9246 227.173 98.8548C226.891 98.7123 226.889 98.2078 226.64 98.0415C225.953 97.5822 225.133 97.1005 224.404 96.709C222.63 95.7576 221.062 94.5861 219.351 93.4408C217.884 92.4594 216.109 90.6871 214.415 90.1698C212.934 89.718 212.004 89.9479 210.792 89.0435C210.131 88.5504 210.326 88.3851 209.265 88.0787C208.254 87.787 207.687 87.9371 207.152 86.8659C206.216 84.9915 206.807 81.3328 206.626 79.2308C206.433 77 206.205 74.7137 205.623 72.5447C204.935 69.981 204.027 68.6409 201.277 69.2447C195.828 70.4422 190.445 71.5813 184.972 72.633C174.065 74.7279 163.346 78.1472 152.679 81.1827C151.867 81.4145 147.334 82.4519 148.26 80.1081C148.686 79.027 151.556 78.6241 152.516 78.2845C157.788 76.4186 163.084 74.5175 168.473 73.005ZM166.641 68.2343C165.844 68.5378 165.048 68.8414 164.251 69.1454V66.9303C165.048 67.3645 165.844 67.7991 166.641 68.2343ZM163.33 56.5219C164.022 57.0877 165.43 55.7262 166.018 55.4502C167.024 54.9795 168.303 54.5748 169.427 54.6717C171.498 54.8507 173.013 56.8901 172.633 58.9579C171.991 62.456 167.007 64.1101 164.259 65.4777C164.171 64.2378 163.77 62.7477 164.639 61.6755C165.394 60.7445 166.857 60.8119 167.554 59.8215C169.306 57.3328 164.557 57.1071 163.495 59.0861C163.076 57.8211 162.658 56.5566 162.239 55.2916C163.249 55.1244 162.805 56.0934 163.33 56.5219ZM168.233 49.6748C167.244 50.3142 166.255 50.9536 165.266 51.593C164.776 49.3798 166.446 49.0886 168.233 49.6748ZM258.34 126.702C257.045 127.32 256.721 125.844 255.79 125.78C256.89 125.104 256.89 125.104 258.34 126.702ZM263.607 158.93C263.768 161.051 263.642 163.197 263.925 165.31C264.14 166.917 264.791 168.413 264.861 170.039C265.013 173.599 263.81 177.224 261.382 179.834C259.086 182.303 255.8 184.428 252.699 185.466C251.303 185.933 249.844 186.969 248.488 187.352C246.987 187.776 245.56 186.854 244.322 188.508C243.496 181.41 244.1 173.994 244.035 166.851C243.97 159.693 244.047 152.532 242.836 145.451C241.757 139.145 239.631 132.051 235.713 126.892C234.121 124.797 232.161 123.081 230.094 121.475C229.022 120.642 227.949 119.75 226.755 119.093C224.917 118.079 223.351 118.219 221.351 117.931C218.49 117.518 215.831 117.169 212.959 117.974C210.285 118.724 207.341 119.579 204.946 120.882C202.561 122.181 199.79 122.717 197.314 123.879C195.629 124.671 192.13 127.314 190.261 126.838C188.452 126.377 185.774 123.306 184.619 121.931C183.142 120.174 181.921 118.136 180.611 116.245C180.152 115.581 179.214 114.555 179.095 113.702C178.887 112.222 179.48 112.706 180.894 112.871C184.529 113.298 187.948 113.972 191.432 115.117C193.165 115.686 196.556 117.989 198.29 116.609C200.937 114.501 196.914 110.879 195.441 109.663C192.931 107.589 190.012 106.05 187.336 104.207C184.493 102.249 180.734 100.165 178.905 97.1503C184.247 98.7274 189.585 100.534 194.771 102.567C197.144 103.497 199.49 104.48 201.718 105.717C202.971 106.412 205.5 108.291 207.007 107.391C210.285 105.434 202.758 99.7526 201.672 98.5916C199.984 96.7874 198.331 95.0004 196.476 93.3634C195.225 92.259 193.259 91.4823 192.677 89.8534C194.754 90.6054 196.433 92.078 198.378 93.0784C199.396 93.6028 200.325 93.9045 201.45 94.065C202.649 94.2365 202.792 94.4275 203.736 94.9039C204.471 95.2759 205.227 95.7723 206.053 96.025C206.641 96.2055 207.669 96.2364 208.184 96.5703C208.447 96.9451 208.718 97.3142 208.999 97.6762C209.312 97.7688 209.621 97.8748 209.926 97.9959C210.382 98.4025 210.652 98.9635 211.096 99.383C214.317 102.429 218.625 104.609 222.236 107.161C225.653 109.575 229.278 111.758 232.56 114.393C236.336 117.426 240.255 120.685 243.467 124.321C245.282 126.376 246.774 128.706 248.299 130.979C249.403 132.624 251.008 133.989 251.962 135.686C254.043 139.385 255.769 143.383 258.009 147.022C260.291 150.731 263.264 154.416 263.607 158.93ZM232.913 180.392C233.535 177.825 237.046 174.827 239.289 173.695C238.159 176.492 235.146 178.4 232.913 180.392ZM238.702 189.347C236.788 193.317 228.374 193.771 229.516 187.896C230.075 185.018 232.449 183.251 234.487 181.368C235.429 180.497 237.736 177.383 239.195 177.885C239.126 180.124 238.995 182.372 238.999 184.611C239.002 186.106 239.379 187.942 238.702 189.347ZM236.27 143.59C237.046 145.333 237.819 146.785 236.379 148.345C235.729 149.049 233.612 150.589 232.653 150.247C229.578 149.15 235.441 144.374 236.27 143.59ZM217.668 128.076C218.409 128.035 219.128 128.146 219.86 128.101C220.589 128.055 220.666 127.926 221.342 128.018C221.413 128.122 221.484 128.225 221.556 128.329C221.648 129.025 222.014 129.1 222.652 128.556C223.539 128.754 224.116 128.886 224.965 129.365C222.674 131.016 219.887 132.936 217.08 133.49C212.642 134.366 213.868 128.285 217.668 128.076ZM149.638 165.21C149.179 166.136 147.855 163.823 147.527 163.392C148.138 163.39 150.104 164.276 149.638 165.21ZM185.294 140.844C188.742 138.832 192.837 137.065 196.54 135.567C197.191 138.705 194.015 142.754 192.059 144.901C190.478 146.637 188.571 148.438 186.427 149.437C184.108 150.517 181.574 150.042 181.687 147.011C181.728 145.903 181.98 144.121 182.431 143.109C183.013 141.804 184.112 141.532 185.294 140.844ZM138.688 83.7782C139.202 83.7483 144.776 83.0277 144.747 83.7212C144.659 85.8057 139.248 84.1687 138.688 83.7782ZM99.2695 124.031C102.214 120.398 106.967 116.477 107.036 111.4C107.139 103.929 98.8476 107.657 94.6793 107.967C96.8834 105.802 107.96 96.7157 101.408 93.4888C99.525 92.5611 96.8482 93.4674 94.9586 93.9534C91.6058 94.8156 88.4886 96.3091 85.1948 97.348C87.5486 94.8427 91.6148 91.9953 91.4818 88.2012C91.3189 83.5825 87.5276 84.6993 84.2495 85.3767C82.9897 85.6375 77.362 87.8763 76.3046 86.3562C75.9174 85.7995 76.544 85.0922 76.6765 84.5962C76.9112 83.7193 76.8385 83.4129 76.8466 82.517C76.8627 80.7095 78.0636 78.3881 77.0841 76.7069C76.8604 77.0888 76.6684 77.4864 76.5088 77.8992C76.1858 76.9212 76.4029 75.8832 76.0799 74.9047C84.2642 76.9981 92.5901 78.1439 100.826 79.9305C104.995 80.8349 108.919 82.3921 113.145 83.0932C117.408 83.7996 121.596 84.8812 125.866 85.5553C129.762 86.1695 133.495 87.1932 137.353 87.978C141.114 88.7433 144.972 87.0664 148.643 86.217C156.865 84.3155 165.085 82.3674 173.318 80.5224C182.818 78.3919 192.701 76.5711 201.795 73.0188C201.972 77.7534 202.35 82.479 202.929 87.1814C198.913 85.2827 192.953 82.8068 188.893 86.2042C187.268 87.5633 186.767 89.9099 187.409 91.906C188.108 94.0788 190.249 95.0878 191.662 96.7233C187.363 95.6208 176.27 87.8492 174.296 95.7048C172.901 101.253 179.704 104.837 183.029 107.96C179.726 107.313 175.303 104.672 173.364 108.916C171.688 112.586 173.707 116.578 175.775 119.604C176.895 121.243 178.155 122.786 179.347 124.375C179.977 125.215 180.592 126.067 181.254 126.883C181.918 127.701 183.17 128.557 183.635 129.437C184.572 131.212 182.682 131.321 181.212 131.963C179.376 132.763 177.8 134.108 176.122 135.18C172.278 137.634 168.919 139.913 164.377 140.697C159.701 141.504 155.198 142.348 150.584 143.474C145.984 144.596 142.228 145.675 137.526 144.224C135.382 143.563 133.636 142.975 131.362 143.099C128.974 143.23 127.577 143.106 125.613 141.627C117.163 135.262 107.991 130.04 99.2695 124.031ZM84.0352 117.642C87.3011 116.003 90.5888 114.356 93.9624 112.949C96.7547 111.783 100.995 110.425 104.052 110.936C103.19 113.149 101.618 114.965 99.9307 116.595C98.4391 118.037 96.5756 120.213 94.7709 121.219C93.1316 122.132 91.2248 120.685 89.6083 120.079C87.8322 119.414 85.3876 119.103 84.0352 117.642ZM84.8561 125.909C86.4835 125.232 89.9812 127.502 91.4614 128.092C94.3705 129.252 97.2952 130.463 99.859 132.293C96.7285 135.911 93.1834 139.218 88.9708 141.542C86.1995 143.071 81.528 144.824 78.9134 142.048C75.6291 138.56 79.5775 131.453 81.9028 128.463C81.9798 128.975 82.0572 129.486 82.1346 129.997C82.8766 128.81 83.4429 126.496 84.8561 125.909ZM144.604 156.871C142.573 157.299 141.883 156.913 140.543 155.355C139.637 154.303 138.746 153.21 137.725 152.264C136.682 151.298 134.107 148.97 137.388 150.311C140.378 151.532 142.94 152.143 146.23 151.664C149.991 151.118 153.499 149.527 157.208 148.722C155.174 150.501 153.156 152.298 151.119 154.072C148.966 155.946 147.338 156.295 144.604 156.871ZM145.068 171.18C140.618 174.529 131.66 174.167 134.675 166.799C135.133 165.68 135.774 164.627 136.516 163.674C136.763 163.355 137.203 162.696 137.555 162.482C138.539 161.885 138.266 161.813 139.212 162.808C140.029 163.667 146.408 170.681 145.068 171.18ZM143.749 158.379C144.156 158.246 145.873 157.251 146.265 157.802C146.661 158.36 143.294 160.289 143.749 158.379ZM176.14 209.446C175.14 211.84 167.133 215.306 168.625 210.48C169.286 208.343 169.908 206.724 172.401 206.562C173.839 206.469 177.022 207.339 176.14 209.446ZM190.503 177.006C191.821 175.087 196.174 172.492 198.032 175.354C198.928 176.733 196.755 177.44 195.441 177.085C194.735 176.894 194.158 176.472 193.391 176.441C192.405 176.4 191.441 177.174 190.503 177.006ZM193.997 178.912C193.101 179.819 187.696 184.367 186.82 183.666C188.585 181.142 190.612 178.324 193.997 178.912ZM185.169 224.941C183.292 225.047 184.229 222.218 184.411 221.087C184.865 221.875 187.254 224.823 185.169 224.941ZM189.938 219.871C189.331 218.791 187.695 217.182 188.065 215.792C188.348 214.729 190.902 213.3 191.971 213.91C193.391 214.72 191.332 220.05 189.938 219.871ZM234.478 208.54C233.675 211.307 232.843 210.593 230.325 211.129C227.799 211.667 226.053 213.812 223.829 214.962C224.602 213.329 225.081 211.339 226.374 210.014C226.673 209.708 228.506 209.104 227.462 208.395C226.549 207.776 225.236 209.786 224.844 210.334C222.918 213.031 221.571 216.324 220.459 219.427C219.912 220.951 219.474 222.504 219.215 224.104C218.984 225.53 219.233 227.022 218.998 228.412C218.619 230.649 215.58 230.66 213.753 231.237C212.098 231.759 210.451 232.326 208.734 232.607C207.245 232.851 205.701 232.406 204.258 232.699C202.696 233.017 201.994 233.944 200.218 233.735C198.77 233.564 197.416 232.898 195.948 232.832C194.575 232.77 193.205 233.245 191.84 232.858C190.463 232.468 190.529 232.317 190.843 230.963C191.038 231.329 191.235 231.694 191.431 232.059C191.98 231.628 192.36 230.315 192.696 229.699C193.218 228.744 193.643 228.414 193.45 227.225C193.165 225.468 191.581 224.219 191.222 222.548C190.847 220.805 192.136 219.38 192.898 217.925C193.939 215.933 193.926 214.455 193.053 212.396C193.711 212.569 194.369 212.743 195.027 212.917C194.125 210.959 191.066 211.753 189.532 212.333C188.761 212.624 187.539 213.77 186.709 213.741C185.569 213.701 184.975 212.202 184.485 211.377C183.067 208.989 181.449 206.631 179.772 204.413C179.311 203.804 178.707 203.412 178.866 202.717C179.001 202.127 180.324 201.291 180.752 200.928C182.361 199.567 184.408 198.814 185.919 197.382C188.202 195.219 190.835 193.669 193.17 191.548C195.602 189.339 198.108 187.31 200.642 185.223C203.209 183.108 205.433 180.617 207.981 178.48C208.642 179.677 209.921 183.962 211.383 184.293C213.089 184.68 213.038 182.661 212.954 181.447C212.833 179.716 211.872 178.035 211.765 176.383C211.65 174.616 213.35 173.827 214.633 172.804C216.614 171.226 221 167.63 218.642 164.67C216.612 162.121 210.008 167.009 208.188 168.479C206.641 169.727 205.446 170.857 203.704 171.842C202.479 172.534 200.424 175.197 198.973 174.951C197.246 174.659 196.571 172.773 194.459 172.836C192.395 172.896 190.641 174.383 189.361 175.875C186.467 179.249 185.473 183.765 182.835 187.282C181.535 189.016 179.849 190.448 178.439 192.089C176.89 193.889 176.561 195.964 175.034 197.727C170.663 191.905 165.902 186.392 161.293 180.761C158.991 177.949 156.738 175.103 154.486 172.252C153.641 171.183 152.69 170.181 151.917 169.058C150.858 167.521 151.048 166.286 150.633 164.571C150.449 163.812 149.586 162.902 149.817 162.175C150.128 161.2 152.309 160.433 153.096 160.034C156.309 158.403 159.223 156.365 162.219 154.373C167.766 150.683 173.378 147.224 179.278 144.073C179.177 145.431 178.293 146.838 178.887 148.2C179.163 147.416 179.601 143.925 180.647 143.775C180.446 143.804 180.611 148.252 180.773 148.886C181.256 150.782 182.656 152.078 184.661 152.065C188.479 152.04 191.9 147.887 194.02 145.137C195.454 143.274 196.832 141.108 197.337 138.776C197.792 136.683 197.292 135.227 199.468 134.165C203.932 131.984 208.433 130.208 213.207 129.052C212.993 131.109 212.397 133.642 214.267 135.122C216.331 136.756 219.032 135.3 220.976 134.219C222.901 133.149 225.869 130.209 228.131 131.063C230.355 131.903 231.903 134.692 233.148 136.544C234.245 138.177 235.439 139.354 234.168 141.174C232.744 143.213 231.817 145.204 230.676 147.419C230.238 148.27 229.819 148.826 230.13 149.698C230.23 149.981 231.373 151.667 231.684 151.909C233.665 153.45 236.34 150.518 237.754 149.405C238.253 154.198 238.364 158.97 238.565 163.778C238.713 167.3 240.076 170.767 237.186 173.342C234.297 175.915 231.885 178.557 230.124 182.042C229.184 183.903 228.34 185.814 227.323 187.637C226.643 188.855 225.209 190.641 226.087 192.074C227.012 191.196 227.288 189.86 228.059 188.869C228.522 190.925 228.987 193.206 231.162 194.078C233.664 195.08 236.151 193.346 238.368 192.38C237.573 197.877 236.023 203.218 234.478 208.54ZM231.92 214.859C230.203 218.529 228.652 222.955 225.48 225.658C224.784 226.251 221.825 228.568 220.699 228.18C219.743 227.85 220.269 225.919 220.436 225.091C221.281 220.891 222.743 218.248 226.149 215.568C227.558 214.459 229.368 213.041 231.186 212.768C233.143 212.473 232.579 213.448 231.92 214.859ZM280.361 301.982C275.908 295.927 269.615 291.222 263.668 286.673C260.974 284.613 258.005 283.068 255.283 281.007C252.207 278.677 249.081 276.429 245.635 274.673C239.1 271.343 231.971 269.022 225.804 265.085C222.797 263.165 219.507 261.309 216.68 259.153C215.437 258.206 214.34 256.994 213.218 255.91C212.175 254.902 209.936 253.439 209.522 251.964C211.257 251.68 212.244 249.996 213.793 249.824C214.303 249.767 217.5 250.613 217.063 249.062C218.222 249.033 218.357 249.016 219.329 248.762C219.732 248.657 220.209 248.822 220.616 248.678C221.238 248.458 221.662 247.823 222.291 247.58C222.738 247.407 224.397 247.6 224.649 247.385C225.336 246.797 224.606 246.85 224.196 246.116C225.532 246.083 226.449 246.757 227.787 246.04C228.195 245.821 228.54 245.318 228.935 245.057C229.635 244.594 229.888 245.312 230.368 244.351C230.817 245.676 230.805 245.31 231.887 244.92C232.965 244.531 233.743 244.251 234.971 244.153C237.903 243.922 240.847 244.277 243.766 244.069C244.834 243.993 245.746 243.75 246.807 243.89C247.741 244.013 247.46 244.663 248.237 243.787C248.417 243.584 247.834 243.027 248.113 242.735C248.237 242.605 248.639 242.697 248.791 242.63C250.156 242.034 250.162 242.867 250.404 243.951C251.205 243.763 252.021 243.594 252.717 243.125C252.365 242.811 251.778 242.465 252.117 241.892C253.271 242.329 254.026 242.127 253.449 243.395C254.61 243.779 254.827 243.278 255.871 243.169C256.488 243.104 257.349 243.487 257.863 242.994C258.424 242.457 257.539 241.872 258.57 241.409C258.782 241.517 258.938 241.679 259.04 241.896C259.597 242.064 259.497 242.284 258.74 242.554C260.768 243.605 260.291 242.43 261.143 241.187C261.34 240.9 262.22 240.01 262.622 240.44C263.23 241.092 261.988 241.299 262.254 241.947C262.716 243.071 264.327 241.631 264.821 241.062C265.195 240.632 265.348 239.807 265.751 239.486C266.311 239.04 267.117 239.729 267.819 239.606C271.023 239.044 274.048 234.736 271.634 231.853C270.986 231.078 270.437 231.232 269.664 230.743C268.9 230.26 268.471 229.423 267.858 228.732C266.458 227.156 264.744 225.975 262.787 225.221C258.247 223.469 253.355 222.192 248.587 221.252C246.379 220.816 244.029 220.151 241.769 220.155C240.437 220.158 238.431 221.193 237.186 220.697C234.765 219.733 238.319 214.795 238.906 213.2C240.628 208.515 241.928 203.519 242.78 198.6C242.947 197.637 242.883 196.39 243.229 195.473C243.628 194.419 243.713 194.568 244.565 194.482C246.104 194.326 247.787 195.134 249.39 194.855C251.166 194.546 253.085 194.689 254.879 194.14C255.703 193.888 256.467 193.613 257.01 192.918C257.181 192.7 256.99 192.509 257.098 192.357C257.132 192.309 257.745 191.647 257.765 191.609C257.759 191.267 257.788 190.928 257.854 190.591C258.476 191.107 258.169 192.189 259.217 192.214C259.403 191.061 259.405 190.828 260.162 190.179C260.105 190.229 260.733 189.695 260.652 189.752C260.69 189.547 260.766 189.355 260.878 189.177C261.232 189.007 261.607 188.915 262 188.905C262.818 188.064 262.479 187.615 262.479 186.482C263.139 186.825 263.799 187.168 264.46 187.511C264.62 184.155 266.663 182.317 268.021 179.597C268.6 178.438 269.189 177.532 269.328 176.134C269.408 175.327 269.199 174.616 269.533 173.855C269.836 173.166 270.514 172.794 270.797 172.043C271.354 170.564 270.939 168.677 270.969 167.142C271.012 165.012 271.224 162.89 271.294 160.762C271.43 156.584 271.01 152.291 270.385 148.162C270.086 146.186 269.586 144.27 269.193 142.315C268.87 140.709 268.097 139.202 267.821 137.708C267.706 137.087 267.884 136.53 267.696 135.843C267.449 134.94 267.037 134.053 266.73 133.166C266.014 131.095 265.306 129.027 264.5 126.988C262.939 123.037 261.112 119.205 259.375 115.329C257.705 111.603 256.322 107.76 254.159 104.281C252.028 100.853 249.733 97.4833 247.385 94.2023C244.939 90.7859 241.846 87.8502 239.474 84.4019C235.02 77.9277 228.807 72.5927 222.307 68.1872C208.895 59.0961 194.401 50.0192 178.317 46.9021C175.893 46.4327 173.438 46.1068 170.968 46.046C169.435 46.008 166.896 46.7491 165.445 46.2304C163.819 45.6489 163.968 43.8234 163.561 42.3916C163.038 40.5504 161.858 39.3448 160.517 38.0432C159.106 36.6732 157.826 35.0733 156.067 34.1418C154.283 33.1984 152.18 32.8454 150.204 32.5604C148.44 32.3048 145.805 32.5433 144.194 31.7747C142.726 31.0745 143.451 30.3453 144.825 30.9448C144.926 30.3387 145.007 29.9472 145.395 29.4789C145.59 29.2433 146.512 28.9131 146.534 28.6932C146.56 28.4362 145.787 27.7036 145.677 27.3719C145.439 26.6576 145.574 25.6683 145.856 24.9979C147.242 26.2296 147.643 26.775 149.19 25.5977C149.844 25.1006 150.044 24.8814 150.801 24.6306C151.006 24.5624 151.466 24.7727 151.645 24.6548C152.329 24.2045 151.7 24.3107 152.025 23.7785C151.943 23.9128 152.518 22.4985 152.49 22.7942C152.56 22.0408 152.783 22.2724 152.328 21.3468C151.437 19.536 149.169 19.4619 150.325 17.3955C150.779 16.5824 151.18 16.6634 151.308 15.4846C151.377 14.8507 151.292 14.124 151.289 13.4793C151.283 12.1607 151.531 11.2376 150.296 10.5662C149.108 9.92052 148.013 10.6289 147.531 9.02746C147.026 7.34708 147.535 5.19272 145.714 4.04201C144.384 3.2013 142.463 3.92007 140.993 3.50888C139.52 3.09712 138.165 1.58999 136.671 2.74712C135.608 3.56959 135.045 5.5916 133.044 4.49813C132.14 4.005 131.643 2.34923 131.073 1.42069C130.166 -0.0593165 129.438 -0.593964 128.042 0.847518C127.181 1.73663 125.366 3.90083 125.255 5.13154C125.133 6.49008 126.318 7.05779 124.83 7.86145C123.35 8.66116 122.519 8.07473 121.318 9.69787C120.126 11.3082 121.048 12.1978 119.668 13.7385C117.942 15.6643 117.023 16.4956 117.048 19.0902C117.064 20.8699 115.492 22.4071 116.409 24.0954C117.437 25.9876 120.437 26.7745 122.256 27.5446C121.649 28.6668 120.816 29.3862 121.525 30.541C122.167 31.5871 123.982 31.8046 125.107 31.6146C125.864 31.4868 125.891 31.6018 126.487 31.0693C126.877 30.7211 126.342 30.2859 127.146 30.0931C128.001 29.8864 129.367 31.5628 129.922 31.9823C128.681 33.5931 125.272 33.8943 123.468 34.7104C122.37 35.2087 121.359 35.9455 120.24 36.3906C119.225 36.7943 117.989 36.7008 117.069 37.3254C115.479 38.4047 114.818 41.0782 113.843 42.65C112.74 44.4295 111.671 45.2556 109.555 45.6252C106.915 46.0855 104.789 46.2707 102.327 47.4203C99.3208 48.8245 96.3571 50.3066 93.4043 51.8205C88.6416 54.2617 84.2172 56.7675 79.7946 59.7198C75.1678 62.8094 70.6674 66.0339 66.203 69.2618C61.7872 72.4544 58.08 76.382 54.2441 80.2426C51.1436 83.3635 48.4226 86.7325 45.334 89.8525C41.6876 93.5368 39.0056 98.1864 35.6248 102.094C33.7751 104.233 32.0051 106.335 30.8446 108.854C29.904 110.896 28.268 112.899 27.1759 115.041C25.7808 117.78 24.4602 120.474 22.8935 123.123C22.2508 124.209 21.487 125.142 20.8086 126.179C19.9393 127.507 19.9906 128.79 19.7569 130.322C19.5127 129.948 19.269 129.574 19.0249 129.201C18.5821 130.167 18.0473 131.118 17.6639 132.108C17.4193 132.74 17.4577 133.636 17.2121 134.189C16.9039 134.882 16.5286 134.79 16.1443 135.368C15.7334 135.985 15.6008 136.814 15.1681 137.477C13.296 140.341 12.5759 143.974 11.6139 147.241C10.3237 151.624 10.527 156.662 10.5973 161.181C10.6719 165.955 10.9327 170.729 11.6505 175.452C12.3008 179.73 13.6907 183.833 15.8669 187.583C17.7632 190.851 20.3778 192.756 23.7272 194.43C25.2654 195.198 26.6928 194.961 28.307 195.084C30.0755 195.218 31.2816 195.698 33.1528 195.276C34.0501 195.073 34.4752 194.42 35.1883 194.202C35.6296 194.067 35.8676 194.287 36.2913 194.236C36.8974 194.162 38.1582 193.865 38.8156 193.936C40.8616 194.16 40.5181 197.253 40.7195 198.831C41.0293 201.264 41.2558 203.723 41.6739 206.14C42.5522 211.223 44.449 215.972 45.5696 220.968C40.3747 221.602 35.9184 222.571 31.0493 224.537C26.1646 226.51 21.2257 227.179 16.0849 228.16C11.2757 229.077 6.64984 230.791 2.80019 233.896C0.996023 235.351 -0.87845 237.053 0.446411 239.449C1.29387 240.981 2.82109 241.371 4.1393 242.261C4.4058 241.924 3.63529 241.21 3.49421 241.012C4.60246 241.24 4.56873 241.757 5.37818 242.207C6.08551 242.601 6.66457 242.587 7.43887 242.865C9.32949 243.544 10.2586 245.239 12.1274 245.714C12.7155 245.864 13.4846 246.222 14.0855 246.324C14.808 246.445 15.3486 246.13 16.0806 246.264C16.4754 246.524 16.9029 246.71 17.3618 246.821C17.663 246.682 17.9603 246.534 18.2534 246.378C19.3051 246.488 19.9545 247.149 20.8091 247.692C20.8661 247.008 20.7839 246.297 21.4319 245.85C21.685 246.516 21.276 246.937 21.9667 247.395C22.8417 247.976 23.9909 247.251 24.7742 246.884C24.996 249.097 30.1202 248.967 31.7443 248.935C33.9936 248.892 36.2405 247.999 38.5097 248.497C39.6673 248.751 40.9029 249.016 42.0553 249.346C43.4429 249.742 45.1202 250.097 46.4859 250.597C47.0294 250.796 47.6944 251.433 48.2725 251.39C48.7328 251.355 48.8563 250.677 49.3922 250.696C49.9983 250.718 50.2021 251.394 50.7265 251.597C51.5122 251.901 52.2343 251.323 52.9806 251.615C53.249 251.719 53.6124 252.169 53.9558 252.316C54.4769 252.538 55.5087 252.541 56.0887 252.648C56.911 252.8 57.6473 252.698 58.3517 252.748C58.9199 252.789 58.9075 253.171 59.1792 253.196C59.4913 253.224 60.0343 252.152 60.4533 251.995C61.0632 251.766 62.1705 252.311 62.7928 252.407C58.2852 258.517 52.8504 263.917 46.9591 268.646C40.6046 273.746 34.0971 278.841 27.2828 283.314C21.0955 287.377 15.1063 290.89 10.3095 296.625C6.26459 301.46 -0.173977 306.634 0.818363 313.642C1.81023 320.645 9.41404 323.495 15.5068 324.831C23.17 326.513 31.0584 325.836 38.742 326.781C42.0187 327.185 45.6594 326.969 48.958 326.626C52.8537 326.22 56.1927 323.678 59.5422 321.839C65.5665 318.532 70.7168 314.107 76.6509 310.698C84.0808 306.427 91.4324 301.903 99.5778 299.043C103.367 297.713 107.268 296.194 110.325 293.458C110.78 293.051 111.119 292.436 111.633 292.1C112.506 291.53 112.74 292.108 113.248 291.935C113.638 291.803 114.016 291.381 114.353 291.255C115.208 290.934 115.589 291.066 116.546 291.066C115.725 290.593 114.973 289.372 115.826 288.377C117.285 286.673 117.537 289.396 118.085 290.028C118.55 289.43 118.372 288.898 118.253 288.22C118.646 288.479 119.039 288.738 119.432 288.998C119.161 287.684 119.418 286.474 120.114 285.329C120.756 284.274 120.915 284.423 121.091 282.961C123.085 284.78 123.475 280.364 123.654 278.753C123.828 277.192 123.656 276.071 124.683 274.705C125.786 273.239 127.462 272.312 128.862 271.174C131.072 269.374 133.505 267.101 136.562 268.827C138.975 270.19 140.289 273.53 142.553 275.247C143.927 276.288 145.376 276.393 146.252 278.008C146.96 279.313 147.19 280.876 147.858 282.216C149.477 285.465 151.807 289.183 154.466 291.675C156.941 293.995 160.118 293.983 163.014 295.421C165.881 296.846 168.86 298.389 171.895 299.421C175.209 300.549 178.783 301.028 182.01 302.394C183.67 303.097 185.155 304.155 186.829 304.828C188.635 305.553 190.538 306.064 192.367 306.729C199.618 309.362 206.714 312.592 214.331 314.052C217.709 314.699 220.837 316.458 224.24 316.828C225.7 316.987 226.89 317.188 228.319 317.553C230.56 318.126 230.085 318.431 230.911 320.299C232.269 323.375 235.586 321.554 238.142 321.63C242.235 321.754 246.265 321.092 250.351 321.061C257.496 321.006 264.376 320.201 271.288 317.855C278.227 315.5 286.128 309.824 280.361 301.982Z" fill="#302823"/>
<path fill-rule="evenodd" clip-rule="evenodd" d="M197.765 61.647C197.863 61.7448 198.093 61.8042 197.765 61.647V61.647Z" fill="black"/>
<path fill-rule="evenodd" clip-rule="evenodd" d="M71.9021 192.66C73.4541 191.087 80.057 191.405 80.5562 194.218C81.1125 197.358 75.2126 202.101 73.0531 203.431C70.2747 205.142 66.883 205.463 67.3756 201.166C67.748 197.921 69.6923 194.899 71.9021 192.66ZM77.355 189.422C77.5564 190.292 76.0724 189.996 75.6639 189.789C75.471 189.394 77.1536 188.549 77.355 189.422ZM65.9685 195.181C67.2853 195.299 68.7945 193.186 69.7882 192.466C70.2272 193.145 67.3314 196.876 67.0126 197.728C66.217 199.855 65.7742 202.543 66.8592 204.665C70.0296 210.865 78.1431 202.011 80.1724 198.918C81.5923 196.755 82.5751 194.072 80.5695 191.953C79.8556 191.197 78.6761 190.988 78.0129 190.27C77.1398 189.327 77.8267 188.108 76.0715 188.314C74.8602 188.456 73.4061 189.549 72.2285 189.945C70.8091 190.421 69.5332 190.915 68.2943 191.797C68.015 191.996 64.3415 195.034 65.9685 195.181Z" fill="black"/>
<path fill-rule="evenodd" clip-rule="evenodd" d="M159.05 197.262C158.222 201.522 154.001 205.892 149.559 206.062C145.135 206.23 143.703 201.596 144.484 197.902C145.15 194.752 147.873 189.278 151.758 189.882C154.812 190.355 159.759 193.61 159.05 197.262ZM156.233 190.141C153.428 187.972 149.554 186.967 146.303 188.689C145.237 189.254 140.983 191.744 142.277 193.43C144.023 192.077 145.53 190.199 147.798 189.75C147.416 191.508 145.238 193.09 144.47 194.802C143.573 196.803 143.082 199.092 143.229 201.291C143.491 205.203 146.111 208.243 150.169 207.706C153.883 207.213 157.131 204.366 158.903 201.165C161.269 196.892 159.936 193.006 156.233 190.141Z" fill="black"/>
<path fill-rule="evenodd" clip-rule="evenodd" d="M130.188 206.946C128.191 209.902 125.146 212.684 121.625 213.597C117.068 214.779 118.348 211.012 119.71 208.309C120.914 205.92 122.98 201.809 126.126 201.831C127.194 201.838 129.183 202.354 130.119 202.925C131.963 204.051 131.239 205.39 130.188 206.946ZM125.934 200.447C126.651 199.649 129.824 196.227 130.249 198.894C131.16 197.838 130.442 196.961 129.275 196.85C127.868 196.715 126.329 198.282 125.314 199.061C123.223 200.663 121.615 202.303 120.229 204.549C118.702 207.025 114.808 212.62 118.216 215.077C121.9 217.733 127.261 212.828 129.567 210.299C131.042 208.681 132.996 206.306 132.435 203.933C131.746 201.02 128.357 200.714 125.934 200.447Z" fill="black"/>
<path fill-rule="evenodd" clip-rule="evenodd" d="M110.217 152.796C108.156 155.148 103.969 158.575 100.519 158.171C97.3722 157.803 98.6007 154.271 99.7141 152.562C101.387 149.993 103.628 147.581 106.867 147.44C108.265 147.38 110.076 147.409 111.159 148.467C112.638 149.913 111.306 151.554 110.217 152.796ZM109.998 146.262C107.583 145.428 106.635 145.11 104.288 146.437C102.404 147.502 100.733 149.007 99.4396 150.716C97.5043 153.275 95.5524 159.03 100.522 159.749C105.973 160.539 118.939 149.354 109.998 146.262Z" fill="black"/>
<path fill-rule="evenodd" clip-rule="evenodd" d="M117.428 160.946C115.86 162.547 113.902 163.854 111.667 164.3C112.613 162.192 114.723 157.583 117.226 156.942C118.379 156.645 119.693 157.033 119.599 158.347C119.53 159.296 118.046 160.313 117.428 160.946ZM119.446 155.371C118.148 154.72 118.557 154.275 117.047 154.786C115.856 155.188 114.355 155.886 113.363 156.689C112.823 157.128 111.139 158.684 111.345 159.475C111.718 160.913 112.974 158.709 113.304 158.285C113.87 158.747 110.977 162.887 110.805 163.568C110.163 166.105 112.155 166.374 114.107 165.543C116.739 164.425 124.534 157.92 119.446 155.371Z" fill="black"/>
<path fill-rule="evenodd" clip-rule="evenodd" d="M158.039 223.647C158.234 221.965 158.51 220.186 160.054 219.242C161.444 218.39 162.885 218.514 163.091 220.26C163.283 221.882 161.694 224.762 160.408 225.646C158.619 226.878 158.274 225.343 158.039 223.647ZM160.339 227.475C164.013 225.325 166.329 215.464 159.556 218.228C155.707 219.798 157.123 229.356 160.339 227.475Z" fill="black"/>
<path fill-rule="evenodd" clip-rule="evenodd" d="M128.958 186.586C129.538 185.399 130.2 185.005 131.375 184.485C130.592 185.224 129.792 185.908 128.958 186.586ZM129.806 183.66C128.974 184.495 127.066 185.768 127.334 187.202C127.578 188.511 128.577 188.436 129.484 188.028C131.386 187.173 132.444 183.43 134.434 183.08C132.227 181.681 131.712 181.746 129.806 183.66Z" fill="black"/>
<path fill-rule="evenodd" clip-rule="evenodd" d="M130.098 109.326C130.204 113.312 130.297 117.298 130.385 121.284C130.416 122.685 130.081 124.682 130.502 126.024C130.687 126.615 132.366 129.177 132.962 129.343C135.046 129.923 134.301 124.698 134.316 123.412C134.366 119.071 134.303 114.726 134.285 110.386C134.275 108.149 134.907 89.3936 132.005 89.4853C131.505 89.501 130.273 91.6453 130.088 92.0752C129.505 93.4252 129.719 95.4265 129.733 96.8659C129.772 101.018 129.988 105.175 130.098 109.326Z" fill="black"/>
<path fill-rule="evenodd" clip-rule="evenodd" d="M147.671 120.946C147.834 122.048 147.748 123.885 148.989 124.457C150.068 124.953 150.482 124.363 150.886 123.439C151.814 121.315 151.479 118.067 151.462 115.87C151.428 111.517 150.938 107.183 150.599 102.846C150.45 100.943 150.759 99.032 150.521 97.0406C150.417 96.167 150.313 92.6518 148.693 92.8157C147.229 92.9634 147.361 96.6473 147.281 97.5964C146.617 105.498 146.501 113.058 147.671 120.946Z" fill="black"/>
<path fill-rule="evenodd" clip-rule="evenodd" d="M216.797 211.681C216.176 214.855 206.049 225.905 203.499 219.725C201.986 216.058 205.266 212.066 207.823 209.944C209.406 208.63 211.383 207.34 213.54 207.739C215.371 208.077 217.191 209.666 216.797 211.681ZM211.568 205.989C210.852 206.158 204.874 210.356 204.819 210.301C204.3 209.78 208.071 204.159 208.459 203.668C211.656 199.617 213.778 202.684 215.777 205.868C215.351 203.966 214.18 201.205 212.222 200.401C209.751 199.386 207.823 201.892 206.634 203.694C204.953 206.24 204.027 209.005 203.093 211.879C202.648 213.25 202.14 214.493 201.386 215.728C200.642 216.947 199.339 218.292 199.532 219.834C200.59 219.246 201.152 218.095 201.819 217.146C202.563 217.447 202.307 219.819 202.458 220.422C202.838 221.939 203.874 223.126 205.477 223.387C208.464 223.873 211.689 221.109 213.687 219.232C215.792 217.254 218.057 214.542 218.039 211.498C218.02 208.317 214.892 205.202 211.568 205.989Z" fill="black"/>
<path fill-rule="evenodd" clip-rule="evenodd" d="M219.667 154.998C217.972 157.592 214.998 160.701 211.851 161.304C209.541 161.747 208.017 160.035 208.945 157.724C209.729 155.77 212.4 154.537 214.15 153.677C215.539 152.996 222.013 151.408 219.667 154.998ZM218.42 150.755C214.948 150.624 212.148 153.134 209.559 155.137C210.143 152.836 211.466 150.332 213.328 148.834C215.863 146.795 218.265 148.061 220.934 149.081C220.275 147.003 217.321 146.256 215.438 146.55C213.058 146.921 211.347 148.953 210.143 150.919C208.708 153.263 208.217 156.027 206.527 158.226C205.753 159.233 200.962 163 202.047 164.54C203.836 162.64 205.626 160.741 207.416 158.841C207.88 161.086 208.391 163.643 211.257 163.424C213.547 163.25 216.157 161.304 217.831 159.817C219.993 157.895 224.247 150.975 218.42 150.755Z" fill="black"/>
<path fill-rule="evenodd" clip-rule="evenodd" d="M169.783 172.905C168.312 173.581 165.074 174.501 164.252 172.469C163.109 169.647 166.785 164.697 168.535 162.816C169.611 161.66 170.341 161.061 171.842 161.81C173.04 162.408 174.8 164.106 175.26 165.413C176.246 168.217 172.083 171.847 169.783 172.905ZM173.157 159.351C174.355 159.622 174.502 161.143 173.004 160.558C171.882 160.121 171.621 159.005 173.157 159.351ZM174.661 161.494C174.214 160.129 175.123 157.989 172.921 157.891C171.673 157.836 169.386 159.104 168.297 159.62C166.786 160.335 165.365 161.426 164.576 162.963C163.846 164.386 164.367 164.761 165.481 163.58C165.617 163.673 162.962 170.52 162.939 171.206C162.835 174.341 165.055 176.406 168.172 175.85C171.037 175.339 173.618 172.996 175.195 170.632C175.993 169.435 176.648 168.065 176.707 166.599C176.799 164.351 175.3 163.447 174.661 161.494Z" fill="black"/>
<path fill-rule="evenodd" clip-rule="evenodd" d="M192.502 155.244C189.995 154.099 187.194 158.016 188.403 160.344C189.988 163.396 197.724 157.63 192.502 155.244ZM189.512 159.624C188.99 158.696 192.533 157.328 193.093 157.305C192.813 157.817 190.227 160.896 189.512 159.624Z" fill="black"/>
<path fill-rule="evenodd" clip-rule="evenodd" d="M21.8254 153.003C21.6853 152.011 19.4631 153.451 19.4759 154.089C19.8436 153.354 22.1171 155.068 21.8254 153.003Z" fill="black"/>
<path fill-rule="evenodd" clip-rule="evenodd" d="M143.367 78.0817C146.196 77.8736 142.591 63.5999 140.529 64.862C138.294 66.2301 140.77 78.2722 143.367 78.0817Z" fill="black"/>
<path fill-rule="evenodd" clip-rule="evenodd" d="M148.651 71.4165C151.301 71.796 150.88 65.7095 149.454 64.6202C146.823 62.6094 145.432 70.9557 148.651 71.4165Z" fill="black"/>
</svg>
