<svg width="30" height="30" viewBox="0 0 30 30" fill="none" xmlns="http://www.w3.org/2000/svg">
<g id="home 2">
<path id="Vector" d="M12.75 25C13.3023 25 13.75 24.5523 13.75 24V18.5C13.75 17.9477 14.1977 17.5 14.75 17.5H15.25C15.8023 17.5 16.25 17.9477 16.25 18.5V24C16.25 24.5523 16.6977 25 17.25 25H22.75C23.3023 25 23.75 24.5523 23.75 24V16C23.75 15.4477 24.1977 15 24.75 15H24.894C25.8105 15 26.2442 13.8698 25.563 13.2567L15.669 4.35207C15.2887 4.00979 14.7113 4.00979 14.331 4.35207L4.43699 13.2567C3.75578 13.8698 4.18947 15 5.10596 15H5.25C5.80228 15 6.25 15.4477 6.25 16V24C6.25 24.5523 6.69772 25 7.25 25H12.75Z" fill="white"/>
</g>
</svg>
