<svg width="11" height="13" viewBox="0 0 11 13" fill="none" xmlns="http://www.w3.org/2000/svg">
<path d="M11 10.5625V0.8125C11 0.363391 10.6486 0 10.2143 0H1.96429V10.3594V10.9688H10.2143V12.5938H1.17857C0.744661 12.5938 0.392857 12.23 0.392857 11.7812C0.392857 11.3325 0.744661 10.9688 1.17857 10.9688H1.57143V10.3594V0H0.785714C0.351411 0 0 0.363391 0 0.8125V11.7812C0 12.4542 0.527804 13 1.17857 13H10.8036C10.9122 13 11 12.9092 11 12.7969C11 12.6845 10.9122 12.5938 10.8036 12.5938H10.6071V10.9688C10.824 10.9688 11 10.7867 11 10.5625ZM3.73214 2.84375H6.08929C6.19791 2.84375 6.28571 2.93455 6.28571 3.04688C6.28571 3.1592 6.19791 3.25 6.08929 3.25H3.73214C3.62352 3.25 3.53571 3.1592 3.53571 3.04688C3.53571 2.93455 3.62352 2.84375 3.73214 2.84375ZM7.46429 5.6875H3.73214C3.62352 5.6875 3.53571 5.5967 3.53571 5.48438C3.53571 5.37205 3.62352 5.28125 3.73214 5.28125H7.46429C7.57291 5.28125 7.66071 5.37205 7.66071 5.48438C7.66071 5.5967 7.57291 5.6875 7.46429 5.6875ZM8.83929 4.46875H3.73214C3.62352 4.46875 3.53571 4.37795 3.53571 4.26562C3.53571 4.1533 3.62352 4.0625 3.73214 4.0625H8.83929C8.94791 4.0625 9.03571 4.1533 9.03571 4.26562C9.03571 4.37795 8.94791 4.46875 8.83929 4.46875Z" fill="#4F3C2E"/>
</svg>
