<svg width="80" height="80" viewBox="0 0 80 80" fill="none" xmlns="http://www.w3.org/2000/svg">
<g id="account 1">
<path id="Vector" d="M39.9999 13.3333C43.5361 13.3333 46.9275 14.7381 49.428 17.2386C51.9285 19.7391 53.3333 23.1304 53.3333 26.6667C53.3333 30.2029 51.9285 33.5943 49.428 36.0948C46.9275 38.5952 43.5361 40 39.9999 40C36.4637 40 33.0723 38.5952 30.5718 36.0948C28.0713 33.5943 26.6666 30.2029 26.6666 26.6667C26.6666 23.1304 28.0713 19.7391 30.5718 17.2386C33.0723 14.7381 36.4637 13.3333 39.9999 13.3333ZM39.9999 46.6667C54.7333 46.6667 66.6666 52.6333 66.6666 60C66.6666 63.6819 63.6818 66.6667 59.9999 66.6667H19.9999C16.318 66.6667 13.3333 63.6819 13.3333 60C13.3333 52.6333 25.2666 46.6667 39.9999 46.6667Z" fill="#4F3C2E"/>
</g>
</svg>
