<svg width="343" height="394" viewBox="0 0 343 394" fill="none" xmlns="http://www.w3.org/2000/svg">
<g clip-path="url(#clip0_1820_423)">
<path d="M386.996 342.654H-91.252V342.893H386.996V342.654Z" fill="#EBEBEB"/>
<path d="M95.58 349.168H72.4424V349.407H95.58V349.168Z" fill="#EBEBEB"/>
<path d="M40.7446 354.878H22.3894V355.117H40.7446V354.878Z" fill="#EBEBEB"/>
<path d="M339.075 359.039H312.389V359.278H339.075V359.039Z" fill="#EBEBEB"/>
<path d="M300.28 351.999H279.591V352.238H300.28V351.999Z" fill="#EBEBEB"/>
<path d="M220.24 355.003H173.898V355.242H220.24V355.003Z" fill="#EBEBEB"/>
<path d="M176.586 172.321H199.322V126.63H176.586V172.321Z" fill="#E6E6E6"/>
<path d="M176.586 225.895H199.322V180.203H176.586V225.895Z" fill="#E6E6E6"/>
<path d="M176.586 279.459H199.322V233.767H176.586V279.459Z" fill="#E6E6E6"/>
<path d="M176.586 333.022H199.322V287.331H176.586V333.022Z" fill="#E6E6E6"/>
<path d="M84.0069 191.308H75.561V225.895H84.0069V191.308Z" fill="#FAFAFA"/>
<path d="M141.626 298.445H133.18V333.032H141.626V298.445Z" fill="#FAFAFA"/>
<path d="M132.377 298.445H123.931V333.032H132.377V298.445Z" fill="#FAFAFA"/>
<path d="M185.845 239.774H181.627V279.459H185.845V239.774Z" fill="#F5F5F5"/>
<path d="M162.832 279.459H181.617V239.774H162.832V279.459Z" fill="#E0E0E0"/>
<path d="M180.814 239.774H176.595V279.459H180.814V239.774Z" fill="#F5F5F5"/>
<path d="M157.8 279.459H176.586V239.774H157.8V279.459Z" fill="#E0E0E0"/>
<path d="M175.773 239.774H171.555V279.459H175.773V239.774Z" fill="#F5F5F5"/>
<path d="M152.779 279.459H171.564V239.774H152.779V279.459Z" fill="#E0E0E0"/>
<path d="M170.742 239.774H166.523V279.459H170.742V239.774Z" fill="#F5F5F5"/>
<path d="M147.747 279.459H166.533V239.774H147.747V279.459Z" fill="#E0E0E0"/>
<path d="M165.71 239.774H161.492V279.459H165.71V239.774Z" fill="#F5F5F5"/>
<path d="M142.707 279.459H161.492V239.774H142.707V279.459Z" fill="#E0E0E0"/>
<path d="M160.679 239.774H156.461V279.459H160.679V239.774Z" fill="#F5F5F5"/>
<path d="M137.675 279.459H156.461V239.774H137.675V279.459Z" fill="#E0E0E0"/>
<path d="M155.648 239.774H151.43V279.459H155.648V239.774Z" fill="#F5F5F5"/>
<path d="M132.644 279.459H151.43V239.774H132.644V279.459Z" fill="#E0E0E0"/>
<path d="M150.617 239.774H146.399V279.459H150.617V239.774Z" fill="#F5F5F5"/>
<path d="M145.586 239.774H141.368V279.459H145.586V239.774Z" fill="#F5F5F5"/>
<path d="M140.554 239.774H136.336V279.459H140.554V239.774Z" fill="#F5F5F5"/>
<path d="M88.8272 225.895H100.41V217.296H88.8272V225.895Z" fill="#E0E0E0"/>
<path d="M87.6605 210.706H99.2437V204.622H87.6605V210.706Z" fill="#E0E0E0"/>
<path d="M91.5819 217.296H103.165V210.706H91.5819V217.296Z" fill="#E0E0E0"/>
<path d="M176.251 166.248H141.664V172.331H176.251V166.248Z" fill="#F5F5F5"/>
<path d="M174.902 157.285H140.315V161.59H174.902V157.285Z" fill="#F5F5F5"/>
<path d="M179.426 161.59H144.839V166.248H179.426V161.59Z" fill="#F0F0F0"/>
<path d="M189.594 196.033H187.48V225.895H189.594V196.033Z" fill="#FAFAFA"/>
<path d="M174.022 225.895H187.48V196.033H174.022V225.895Z" fill="#E0E0E0"/>
<path d="M186.993 198.931H181.847V225.895H186.993V198.931Z" fill="#F5F5F5"/>
<path d="M168.389 225.895H181.847V198.931H168.389V225.895Z" fill="#E0E0E0"/>
<path d="M181.33 197.286H176.184V225.895H181.33V197.286Z" fill="#F0F0F0"/>
<path d="M162.726 225.895H176.184V197.286H162.726V225.895Z" fill="#E0E0E0"/>
<path d="M170.56 199.17H175.715L171.755 225.895H166.609L170.56 199.17Z" fill="#FAFAFA"/>
<path d="M170.56 199.17H157.102L153.152 225.895H166.61L170.56 199.17Z" fill="#E6E6E6"/>
<path d="M116.202 136.367H114.088V172.168H116.202V136.367Z" fill="#FAFAFA"/>
<path d="M100.64 172.168H114.088V136.367H100.64V172.168Z" fill="#E0E0E0"/>
<path d="M113.61 139.839H108.464V172.168H113.61V139.839Z" fill="#F5F5F5"/>
<path d="M95.0065 172.168H108.455V139.839H95.0065V172.168Z" fill="#E0E0E0"/>
<path d="M107.948 137.859H102.802V172.168H107.948V137.859Z" fill="#F0F0F0"/>
<path d="M89.3632 172.178H102.812V137.868H89.3632V172.178Z" fill="#E0E0E0"/>
<path d="M97.1866 140.126H102.333L98.3823 172.168H93.2363L97.1866 140.126Z" fill="#FAFAFA"/>
<path d="M112.807 244.269H110.693V280.071H112.807V244.269Z" fill="#FAFAFA"/>
<path d="M97.2445 280.061H110.693V244.259H97.2445V280.061Z" fill="#E0E0E0"/>
<path d="M110.205 247.741H105.059V280.071H110.205V247.741Z" fill="#F5F5F5"/>
<path d="M104.552 245.761H99.4058V280.071H104.552V245.761Z" fill="#F0F0F0"/>
<path d="M239.323 271.032H232.359V342.645H239.323V271.032Z" fill="#E0E0E0"/>
<path d="M245.387 271.032H239.323V342.645H245.387V271.032Z" fill="#E6E6E6"/>
<path d="M96.2783 99.7331C90.3002 107.031 91.362 113.679 93.055 119.819C85.6612 115.362 79.3005 125.377 81.3379 129.384C71.9164 135.831 80.0657 147.711 90.1281 144.832C94.9106 155.86 118.412 156.798 118.297 150.427C137.618 154.76 129.297 133.459 123.443 131.508C131.506 129.977 130.32 120.126 124.801 116.816C131.248 109.164 128.053 99.9244 119.846 98.7383C112.367 90.1681 101.147 93.7932 96.2783 99.7331Z" fill="#263238"/>
<path d="M133.677 156.329C133.677 160.155 133.83 164.115 134.117 167.96C134.338 171.735 134.856 175.486 135.667 179.18C135.753 179.629 135.877 180.05 136.002 180.471L136.317 181.571C136.372 181.811 136.473 182.038 136.614 182.24C136.824 182.604 138.154 183.006 139.761 182.91C143.422 182.539 147.011 181.64 150.416 180.241L152.75 184.192C151.793 184.899 150.98 185.473 150.052 186.105C149.125 186.736 148.197 187.224 147.183 187.721C145.144 188.786 142.973 189.577 140.727 190.074C139.423 190.355 138.088 190.461 136.757 190.39C135.112 190.294 133.515 189.795 132.109 188.936C130.587 187.969 129.38 186.58 128.637 184.938L128.397 184.393L128.244 183.991L127.938 183.178C127.737 182.642 127.537 182.097 127.384 181.561C126.139 177.394 125.312 173.113 124.916 168.783C124.705 166.678 124.524 164.584 124.457 162.479C124.39 160.375 124.332 158.328 124.409 156.119L133.677 156.329Z" fill="#B78876"/>
<path d="M129.383 145.894C137.207 152.752 136.078 164.612 136.078 164.612L121.09 167.166C121.09 167.166 117.36 154.923 119.483 150.666C121.721 146.19 124.973 142.039 129.383 145.894Z" fill="#FCBA04"/>
<path opacity="0.3" d="M129.383 145.894C137.207 152.752 136.078 164.612 136.078 164.612L121.09 167.166C121.09 167.166 117.36 154.923 119.483 150.666C121.721 146.19 124.973 142.039 129.383 145.894Z" fill="white"/>
<path opacity="0.4" d="M125.193 156.865L119.569 160.758C120.229 164.239 121.119 167.166 121.119 167.166L126.245 166.296C126.218 163.124 125.866 159.964 125.193 156.865Z" fill="#FCBA04"/>
<path d="M149.546 181.064L155.285 175.995L157.657 184.67C157.657 184.67 152.874 186.832 148.694 184.22L149.546 181.064Z" fill="#7F3E3B"/>
<path d="M162.88 175.65L163.434 182.422L157.695 184.67L155.323 175.994L162.88 175.65Z" fill="#7F3E3B"/>
<path d="M69.0278 367.686L77.445 368.499L83.2318 348.728L74.8051 347.915L69.0278 367.686Z" fill="#B78876"/>
<path d="M15.4165 334.371L21.2511 340.627L35.6655 326.738L29.8213 320.483L15.4165 334.371Z" fill="#B78876"/>
<path d="M22.6377 340.598L18.5152 331.865C18.4445 331.716 18.323 331.596 18.1724 331.528C18.0217 331.459 17.8517 331.447 17.6926 331.492L10.3085 333.759C10.1237 333.823 9.95462 333.926 9.81229 334.06C9.66996 334.194 9.55762 334.357 9.48264 334.537C9.40767 334.718 9.37175 334.913 9.37726 335.108C9.38277 335.304 9.42957 335.496 9.5146 335.672C11.0067 338.694 11.8771 340.072 13.6945 343.917C14.804 346.279 16.9274 351.674 18.477 354.936C20.0265 358.197 23.3264 356.849 22.9821 355.357C21.4134 348.661 22.0256 345.007 22.7812 342.138C22.9196 341.624 22.8687 341.077 22.6377 340.598Z" fill="#263238"/>
<path d="M78.3345 365.935H68.1287C67.9453 365.937 67.7676 365.999 67.6225 366.111C67.4775 366.224 67.3731 366.38 67.3252 366.557L65.1061 374.62C65.0525 374.811 65.0441 375.012 65.0817 375.206C65.1192 375.401 65.2017 375.583 65.3224 375.74C65.4432 375.897 65.5989 376.024 65.7772 376.11C65.9556 376.196 66.1515 376.24 66.3496 376.237C69.946 376.237 71.6486 376.237 76.1345 376.237H89.8507C93.581 376.237 94.3558 372.468 92.8158 372.124C85.9003 370.594 81.9118 368.489 79.7788 366.471C79.3833 366.115 78.8666 365.923 78.3345 365.935Z" fill="#263238"/>
<path opacity="0.2" d="M83.2321 348.728L80.2479 358.924H71.582L74.7959 347.925L83.2321 348.728Z" fill="black"/>
<path opacity="0.2" d="M29.8214 320.483L35.6656 326.738L28.2336 333.893L22.3894 327.637L29.8214 320.483Z" fill="black"/>
<path d="M126.973 144.516C126.973 144.516 130.588 146.429 114.844 195.038L80.3147 189.749C83.0503 175.784 84.3894 167.128 82.0842 137.266C87.0716 137.006 92.0712 137.109 97.0438 137.572C102.32 138.001 107.558 138.803 112.721 139.973C117.545 141.244 122.302 142.761 126.973 144.516Z" fill="#FCBA04"/>
<path opacity="0.3" d="M126.973 144.516C126.973 144.516 130.588 146.429 114.844 195.038L80.3147 189.749C83.0503 175.784 84.3894 167.128 82.0842 137.266C87.0716 137.006 92.0712 137.109 97.0438 137.572C102.32 138.001 107.558 138.803 112.721 139.973C117.545 141.244 122.302 142.761 126.973 144.516Z" fill="white"/>
<path d="M101.3 120.164C101.52 125.358 101.09 134.75 97.0437 137.572C97.0437 137.572 105.107 147.854 108.837 158.127C113.543 152.245 112.721 139.954 112.721 139.954C107.297 137.754 108.082 133.603 109.669 129.834L101.3 120.164Z" fill="#B78876"/>
<path opacity="0.2" d="M104.705 124.114L109.66 129.853C109.267 130.727 108.947 131.633 108.703 132.56C106.599 131.919 103.663 129.499 103.777 127.213C103.902 126.134 104.216 125.085 104.705 124.114Z" fill="black"/>
<path d="M97.2924 111.804C98.8993 120.183 99.4062 123.76 104.227 127.548C111.496 133.287 121.444 129.461 122.4 120.738C123.233 112.914 120.487 100.517 111.755 98.2314C109.835 97.7058 107.813 97.6814 105.882 98.1606C103.95 98.6398 102.174 99.6065 100.723 100.968C99.2721 102.33 98.1947 104.041 97.594 105.939C96.9934 107.836 96.8895 109.855 97.2924 111.804Z" fill="#B78876"/>
<path d="M95.4844 103.636C92.1845 109.059 116.719 102.507 118.297 100.24C115.523 96.5288 110.712 95.7157 105.862 96.787C101.013 97.8583 96.9 101.311 95.4844 103.636Z" fill="#263238"/>
<path d="M101.826 101.885C104.408 105.137 106.388 114.08 98.6408 118.423C93.7914 113.593 93.9062 110.934 93.7914 108.332C93.6766 105.73 98.9947 98.3653 101.826 101.885Z" fill="#263238"/>
<path d="M96.1543 118.748C96.8288 120.251 98.0699 121.427 99.6073 122.019C101.654 122.785 102.869 120.996 102.477 118.968C102.104 117.141 100.564 114.54 98.4595 114.645C97.9924 114.674 97.5401 114.82 97.1437 115.068C96.7474 115.317 96.4197 115.661 96.1905 116.069C95.9613 116.477 95.8379 116.936 95.8316 117.404C95.8252 117.872 95.9362 118.334 96.1543 118.748Z" fill="#B78876"/>
<path d="M114.844 195.038C114.844 195.038 123.175 247.77 112.931 283.897C106.063 308.087 83.8726 356.418 83.8726 356.418L69.0852 355.06C69.0852 355.06 86.8378 303.983 91.142 283.725C98.5166 249.061 89.5255 191.145 89.5255 191.145L114.844 195.038Z" fill="#263238"/>
<path opacity="0.2" d="M100.612 204.642L92.3953 215.833C93.7178 229.82 94.216 243.873 93.8874 257.918C105.566 239.984 102.276 214.666 100.612 204.642Z" fill="black"/>
<path d="M85.9869 356.744L67.6509 356.275L68.7126 350.641L87.4216 351.521L85.9869 356.744Z" fill="#FCBA04"/>
<path d="M107.288 194.015C107.288 194.015 94.7097 246.622 80.0084 276.943C68.1287 301.401 31.7245 333.74 31.7245 333.74L24.0725 324.72C24.0725 324.72 49.324 290.066 58.1716 273.806C79.8554 233.939 66.9235 203.465 80.3336 189.749L107.288 194.015Z" fill="#263238"/>
<path d="M32.49 334.935L22.5425 323.878L26.3876 319.316L36.9091 331.301L32.49 334.935Z" fill="#FCBA04"/>
<path d="M80.1141 187.645L78.0863 190.514C77.9237 190.734 78.1724 191.031 78.5741 191.088L114.777 196.626C115.093 196.626 115.371 196.559 115.418 196.368L116.203 193.326C116.26 193.116 116.011 192.896 115.677 192.838L80.7167 187.492C80.6116 187.463 80.5008 187.462 80.3952 187.489C80.2896 187.516 80.1928 187.569 80.1141 187.645Z" fill="#FCBA04"/>
<path d="M84.2075 192.274L83.251 192.131C83.0693 192.131 82.9353 191.987 82.9736 191.872L84.0258 187.922C84.0258 187.807 84.2362 187.731 84.4179 187.759L85.3744 187.903C85.5657 187.903 85.6901 188.056 85.6614 188.171L84.5997 192.102C84.571 192.236 84.3988 192.303 84.2075 192.274Z" fill="#263238"/>
<path d="M112.099 196.54L111.143 196.397C110.951 196.397 110.827 196.253 110.856 196.138L111.908 192.188C111.908 192.073 112.118 192.006 112.31 192.035L113.266 192.169C113.457 192.169 113.582 192.322 113.553 192.437L112.501 196.387C112.482 196.502 112.281 196.569 112.099 196.54Z" fill="#263238"/>
<path d="M98.134 194.407L97.1775 194.264C96.9862 194.264 96.8619 194.12 96.8906 194.005L97.9523 190.055C97.9523 189.94 98.1532 189.864 98.3445 189.892L99.301 190.036C99.4827 190.036 99.6166 190.189 99.5783 190.304L98.5262 194.254C98.5166 194.369 98.3349 194.436 98.134 194.407Z" fill="#263238"/>
<path d="M111.257 112.435C111.344 113.124 111.784 113.631 112.214 113.574C112.644 113.516 112.96 112.914 112.864 112.225C112.769 111.536 112.338 111.029 111.908 111.087C111.477 111.144 111.171 111.756 111.257 112.435Z" fill="#263238"/>
<path d="M119.034 111.431C119.12 112.12 119.56 112.627 119.99 112.569C120.421 112.512 120.736 111.909 120.641 111.221C120.545 110.532 120.115 110.025 119.684 110.082C119.254 110.14 118.948 110.742 119.034 111.431Z" fill="#263238"/>
<path d="M119.493 110.14L121.081 109.451C121.081 109.451 120.402 110.857 119.493 110.14Z" fill="#263238"/>
<path d="M116.308 112.952C117.126 114.44 118.143 115.811 119.33 117.027C119.013 117.323 118.634 117.546 118.221 117.68C117.807 117.814 117.37 117.855 116.939 117.801L116.308 112.952Z" fill="#AD7A66"/>
<path d="M113.553 120.833C112.123 120.755 110.776 120.136 109.784 119.102C109.765 119.086 109.749 119.066 109.739 119.043C109.728 119.021 109.722 118.996 109.722 118.971C109.722 118.946 109.727 118.921 109.738 118.898C109.748 118.875 109.764 118.855 109.783 118.839C109.802 118.822 109.824 118.81 109.848 118.804C109.873 118.797 109.898 118.796 109.923 118.8C109.948 118.804 109.971 118.814 109.992 118.828C110.012 118.842 110.03 118.86 110.043 118.882C110.66 119.502 111.415 119.967 112.246 120.24C113.077 120.513 113.961 120.585 114.825 120.451C114.847 120.447 114.87 120.447 114.892 120.452C114.914 120.457 114.934 120.467 114.952 120.481C114.97 120.494 114.985 120.511 114.996 120.531C115.007 120.55 115.014 120.572 115.016 120.594C115.02 120.616 115.02 120.639 115.015 120.661C115.01 120.683 115 120.703 114.987 120.721C114.973 120.739 114.956 120.754 114.936 120.765C114.917 120.776 114.895 120.783 114.873 120.786C114.435 120.841 113.993 120.857 113.553 120.833Z" fill="#263238"/>
<path d="M107.364 108.935C107.302 108.928 107.242 108.905 107.192 108.868C107.155 108.843 107.124 108.811 107.1 108.774C107.076 108.736 107.059 108.695 107.051 108.651C107.043 108.608 107.044 108.563 107.053 108.52C107.062 108.476 107.08 108.435 107.106 108.399C107.456 107.869 107.928 107.431 108.482 107.122C109.036 106.812 109.656 106.64 110.291 106.62C110.336 106.621 110.381 106.631 110.422 106.65C110.463 106.668 110.501 106.695 110.532 106.727C110.563 106.76 110.587 106.799 110.603 106.841C110.619 106.884 110.627 106.929 110.626 106.974C110.621 107.063 110.581 107.148 110.515 107.208C110.449 107.269 110.362 107.302 110.272 107.299C109.756 107.329 109.255 107.48 108.808 107.739C108.361 107.998 107.981 108.358 107.699 108.791C107.662 108.844 107.611 108.885 107.552 108.911C107.493 108.936 107.428 108.944 107.364 108.935Z" fill="#263238"/>
<path d="M121.922 106.62C121.869 106.634 121.813 106.634 121.76 106.62C121.329 106.324 120.834 106.133 120.315 106.063C119.797 105.994 119.27 106.047 118.775 106.218C118.693 106.254 118.6 106.256 118.516 106.224C118.432 106.192 118.363 106.128 118.326 106.046C118.291 105.965 118.289 105.873 118.321 105.79C118.353 105.708 118.417 105.642 118.498 105.606C119.093 105.381 119.733 105.304 120.365 105.381C120.996 105.457 121.599 105.686 122.123 106.046C122.198 106.095 122.251 106.171 122.271 106.259C122.291 106.347 122.275 106.438 122.228 106.515C122.19 106.556 122.142 106.587 122.088 106.605C122.035 106.624 121.978 106.629 121.922 106.62Z" fill="#263238"/>
<path d="M86.2063 150.59C84.7715 152.666 83.2507 154.789 81.8255 156.922C80.4003 159.055 78.956 161.159 77.5309 163.311C76.1057 165.463 74.7953 167.596 73.5805 169.749C72.9684 170.82 72.3849 171.891 71.878 172.934L71.5145 173.708L71.4188 173.9V173.995C71.447 173.912 71.4663 173.825 71.4762 173.737C71.4908 173.623 71.4908 173.507 71.4762 173.393C71.5102 172.905 71.3969 172.419 71.151 171.996C70.9501 171.69 70.8641 171.642 70.8545 171.642C71.0467 171.83 71.27 171.982 71.5145 172.092C71.9617 172.316 72.4216 172.514 72.8918 172.685C73.9958 173.065 75.1198 173.384 76.2587 173.642C78.6308 174.254 81.1368 174.694 83.662 175.115C88.7123 175.918 93.9061 176.597 99.0424 177.19L98.9659 181.781C93.6296 182.142 88.2766 182.186 82.9351 181.915C80.2004 181.786 77.474 181.518 74.7666 181.112C73.3272 180.876 71.9028 180.557 70.5006 180.155C69.7152 179.947 68.945 179.685 68.1954 179.371C67.2222 178.987 66.3127 178.459 65.4981 177.802C64.8639 177.288 64.329 176.663 63.9199 175.956C63.3524 174.964 63.0897 173.826 63.1643 172.685C63.1831 172.402 63.2214 172.121 63.2791 171.843C63.3364 171.604 63.4034 171.355 63.4799 171.116L63.5564 170.896L63.6138 170.762L63.7095 170.504L64.1016 169.462C64.6564 168.113 65.2303 166.822 65.852 165.578C67.0955 163.101 68.3963 160.71 69.7928 158.405C71.1893 156.099 72.6145 153.832 74.0779 151.604C75.5413 149.375 77.0717 147.204 78.7169 145.033L86.2063 150.59Z" fill="#B78876"/>
<path d="M96.4509 178.127L103.452 174.981L103.213 182.546C103.213 182.546 98.3639 183.953 95.7048 181.59L96.4509 178.127Z" fill="#B78876"/>
<path d="M107.546 175.794L106.092 182.422L103.213 182.546L103.452 174.981L107.546 175.794Z" fill="#B78876"/>
<path opacity="0.4" d="M87.0193 153.287L83.1934 156.453C83.2794 159.323 83.2986 161.886 83.2699 164.258C85.5846 162.69 87.3732 156.358 87.0193 153.287Z" fill="#FCBA04"/>
<path d="M82.0842 137.266C77.78 137.735 71.0176 149.557 71.0176 149.557L82.9834 161.848C82.9834 161.848 90.2527 151.212 90.1666 145.587C90.0901 140.901 87.6128 136.625 82.0842 137.266Z" fill="#FCBA04"/>
<path opacity="0.3" d="M82.0842 137.266C77.78 137.735 71.0176 149.557 71.0176 149.557L82.9834 161.848C82.9834 161.848 90.2527 151.212 90.1666 145.587C90.0901 140.901 87.6128 136.625 82.0842 137.266Z" fill="white"/>
<path d="M23.9868 345.237C23.8742 345.235 23.7632 345.209 23.6616 345.16C22.7051 344.749 22.1217 342.826 21.8825 341.707C21.8734 341.675 21.875 341.641 21.8871 341.61C21.8992 341.579 21.9211 341.553 21.9495 341.535C21.9763 341.517 22.008 341.507 22.0404 341.507C22.0727 341.507 22.1044 341.517 22.1312 341.535C22.4373 341.717 25.0581 343.343 25.0772 344.405C25.0798 344.522 25.0511 344.638 24.9939 344.741C24.9367 344.843 24.8532 344.929 24.752 344.988C24.5323 345.155 24.2626 345.243 23.9868 345.237ZM22.3034 342.042C22.6764 343.582 23.2599 344.615 23.786 344.845C23.9138 344.895 24.0527 344.911 24.1887 344.891C24.3247 344.871 24.453 344.815 24.5607 344.73C24.6146 344.701 24.6598 344.658 24.6918 344.606C24.7237 344.554 24.7412 344.494 24.7425 344.433C24.7233 343.773 23.2025 342.626 22.3034 342.042Z" fill="#FCBA04"/>
<path d="M24.58 342.616C23.6538 342.55 22.7545 342.276 21.9496 341.813C21.9249 341.796 21.9053 341.773 21.8934 341.746C21.8816 341.719 21.8778 341.689 21.8827 341.66C21.883 341.63 21.8923 341.602 21.9094 341.578C21.9265 341.554 21.9506 341.536 21.9783 341.526C22.074 341.478 24.3026 340.435 25.4313 340.923C25.5716 340.979 25.6977 341.066 25.8003 341.176C25.9029 341.287 25.9795 341.42 26.0243 341.564C26.0907 341.703 26.107 341.861 26.0704 342.011C26.0338 342.161 25.9466 342.294 25.8235 342.387C25.447 342.602 25.0085 342.683 24.58 342.616ZM22.4183 341.66C23.3174 342.119 25.087 342.473 25.6226 342.08C25.7087 342.013 25.7948 341.908 25.7087 341.631C25.6773 341.533 25.624 341.443 25.5527 341.368C25.4814 341.294 25.3941 341.236 25.2974 341.2C24.5322 340.904 23.0496 341.44 22.4183 341.698V341.66Z" fill="#FCBA04"/>
<path d="M82.8304 367.581C81.8929 367.558 80.9602 367.44 80.047 367.227C80.0127 367.219 79.9815 367.202 79.9576 367.176C79.9336 367.15 79.9181 367.118 79.913 367.083C79.908 367.048 79.9146 367.012 79.9318 366.981C79.9491 366.95 79.9761 366.925 80.0087 366.911C80.4296 366.71 84.1312 364.998 85.059 365.639C85.1443 365.693 85.2128 365.771 85.2567 365.862C85.3006 365.953 85.3183 366.055 85.3077 366.155C85.3007 366.343 85.2515 366.526 85.1638 366.692C85.076 366.857 84.9519 367.001 84.8007 367.112C84.2088 367.47 83.5199 367.633 82.8304 367.581ZM80.6304 367.007C81.7304 367.208 83.7582 367.475 84.5999 366.844C84.7107 366.762 84.8011 366.655 84.8642 366.533C84.9272 366.41 84.9611 366.274 84.9633 366.136C84.9633 366.002 84.9633 365.945 84.8773 365.916C84.3799 365.562 82.1895 366.328 80.6591 367.007H80.6304Z" fill="#FCBA04"/>
<path d="M80.1134 367.236C80.0756 367.245 80.0365 367.245 79.9986 367.236C79.9835 367.21 79.9756 367.18 79.9756 367.15C79.9756 367.12 79.9835 367.09 79.9986 367.064C79.9986 366.911 80.8691 363.238 82.8681 363.496C83.3751 363.554 83.509 363.802 83.5377 364.003C83.662 364.96 81.3282 366.806 80.2091 367.255L80.1134 367.236ZM82.6481 363.783C81.3664 363.783 80.6204 365.907 80.3717 366.758C81.5769 366.127 83.2412 364.606 83.1647 364.003C83.1647 364.003 83.1647 363.831 82.7916 363.793L82.6481 363.783Z" fill="#FCBA04"/>
<path d="M111.717 111.144L113.304 110.455C113.304 110.455 112.625 111.861 111.717 111.144Z" fill="#263238"/>
<path d="M167.164 96.5096L270.973 111.431C271.47 111.502 271.949 111.671 272.381 111.928C272.813 112.184 273.191 112.523 273.492 112.926C273.793 113.328 274.012 113.786 274.136 114.273C274.26 114.76 274.287 115.266 274.215 115.764L236.826 375.749C236.754 376.247 236.586 376.725 236.329 377.157C236.073 377.589 235.734 377.967 235.331 378.268C234.929 378.569 234.471 378.788 233.984 378.912C233.497 379.036 232.99 379.063 232.493 378.992L128.742 364.118C128.244 364.047 127.766 363.878 127.334 363.621C126.902 363.365 126.524 363.026 126.223 362.623C125.922 362.221 125.703 361.763 125.579 361.276C125.455 360.789 125.428 360.283 125.499 359.785L162.87 99.7522C163.014 98.7551 163.547 97.8554 164.351 97.2483C165.155 96.6412 166.166 96.3758 167.164 96.5096Z" fill="#FCBA04"/>
<path opacity="0.2" d="M167.164 96.5096L270.973 111.431C271.47 111.502 271.949 111.671 272.381 111.928C272.813 112.184 273.191 112.523 273.492 112.926C273.793 113.328 274.012 113.786 274.136 114.273C274.26 114.76 274.287 115.266 274.215 115.764L236.826 375.749C236.754 376.247 236.586 376.725 236.329 377.157C236.073 377.589 235.734 377.967 235.331 378.268C234.929 378.569 234.471 378.788 233.984 378.912C233.497 379.036 232.99 379.063 232.493 378.992L128.742 364.118C128.244 364.047 127.766 363.878 127.334 363.621C126.902 363.365 126.524 363.026 126.223 362.623C125.922 362.221 125.703 361.763 125.579 361.276C125.455 360.789 125.428 360.283 125.499 359.785L162.87 99.7522C163.014 98.7551 163.547 97.8554 164.351 97.2483C165.155 96.6412 166.166 96.3758 167.164 96.5096Z" fill="black"/>
<path opacity="0.3" d="M270.485 111.364L270.973 111.431C271.47 111.502 271.949 111.671 272.381 111.928C272.813 112.184 273.19 112.523 273.492 112.926C273.793 113.328 274.012 113.786 274.136 114.273C274.26 114.76 274.287 115.266 274.215 115.764L236.826 375.749C236.754 376.246 236.585 376.725 236.329 377.157C236.073 377.589 235.733 377.967 235.331 378.268C234.929 378.569 234.471 378.788 233.984 378.912C233.497 379.036 232.99 379.063 232.493 378.992L232.005 378.925C231.508 378.853 231.029 378.684 230.597 378.428C230.165 378.171 229.787 377.832 229.486 377.43C229.185 377.027 228.966 376.57 228.842 376.083C228.718 375.596 228.691 375.089 228.763 374.592L266.152 114.626C266.221 114.126 266.388 113.646 266.644 113.212C266.899 112.777 267.238 112.398 267.641 112.094C268.043 111.791 268.502 111.571 268.99 111.445C269.478 111.32 269.986 111.292 270.485 111.364Z" fill="black"/>
<path d="M270.274 116.266L170.969 102.223L134.709 358.633L234.014 372.676L270.274 116.266Z" fill="white"/>
<path opacity="0.2" d="M170.627 102.746L267.233 116.625L230.599 371.512L133.782 359.116L170.627 102.746Z" fill="#FCBA04"/>
<path d="M170.627 102.746L265.291 113.21L228.447 369.58L133.782 359.116L170.627 102.746Z" fill="white"/>
<path opacity="0.2" d="M170.627 102.746L262.67 112.837L225.195 367.925L133.782 359.116L170.627 102.746Z" fill="#FCBA04"/>
<path d="M170.627 102.746L261.742 111.479L223.961 366.567L133.782 359.116L170.627 102.746Z" fill="white"/>
<path opacity="0.2" d="M170.627 102.746L258.041 111.125L220.948 364.95L133.782 359.116L170.627 102.746Z" fill="#FCBA04"/>
<path d="M170.627 102.746L255.21 110.073L217.696 363.927L133.782 359.116L170.627 102.746Z" fill="white"/>
<path opacity="0.2" d="M170.627 102.746L249.136 109.547L211.613 363.573L133.782 359.116L170.627 102.746Z" fill="#FCBA04"/>
<path d="M242.058 100.623L159.13 94.9792C157.764 94.8905 156.415 95.3196 155.351 96.1811C154.288 97.0426 153.588 98.2733 153.391 99.6278L116.47 356.437C116.364 357.178 116.413 357.932 116.611 358.653C116.81 359.374 117.156 360.047 117.626 360.628C118.096 361.21 118.681 361.688 119.345 362.034C120.008 362.379 120.736 362.584 121.482 362.636L204.41 368.288C205.778 368.377 207.128 367.947 208.192 367.083C209.256 366.22 209.955 364.987 210.149 363.63L247.06 106.83C247.166 106.09 247.118 105.336 246.92 104.615C246.722 103.894 246.377 103.222 245.908 102.639C245.439 102.057 244.855 101.578 244.193 101.231C243.53 100.884 242.804 100.677 242.058 100.623Z" fill="#FCBA04"/>
<path opacity="0.2" d="M198.509 360.359H198.279L124.543 355.337C124.075 355.304 123.618 355.175 123.202 354.957C122.786 354.74 122.419 354.44 122.124 354.075C121.829 353.709 121.612 353.288 121.487 352.835C121.362 352.383 121.331 351.909 121.396 351.445L156.997 103.76C157.129 102.917 157.573 102.154 158.241 101.622C158.909 101.091 159.752 100.83 160.603 100.89L234.339 105.912C234.809 105.943 235.266 106.07 235.684 106.287C236.101 106.503 236.47 106.804 236.765 107.169C237.061 107.535 237.278 107.958 237.402 108.412C237.526 108.865 237.555 109.34 237.486 109.805L201.895 357.423C201.776 358.236 201.368 358.981 200.747 359.519C200.126 360.058 199.331 360.356 198.509 360.359ZM160.373 101.837C159.798 101.84 159.242 102.049 158.807 102.426C158.372 102.804 158.086 103.324 158.001 103.894L122.401 351.626C122.357 351.953 122.38 352.286 122.469 352.603C122.558 352.921 122.712 353.217 122.92 353.473C123.127 353.729 123.385 353.94 123.678 354.093C123.97 354.246 124.291 354.337 124.62 354.362L198.346 359.383C198.95 359.419 199.546 359.228 200.016 358.848C200.487 358.467 200.799 357.925 200.891 357.327L236.482 109.652C236.53 109.326 236.51 108.993 236.423 108.676C236.336 108.358 236.183 108.062 235.975 107.806C235.768 107.548 235.509 107.336 235.216 107.183C234.923 107.03 234.602 106.939 234.272 106.916L160.536 101.895L160.373 101.837Z" fill="white"/>
<path d="M307.679 291.464C301.625 282.205 302.509 268.97 309.735 260.594C312.019 257.997 315.119 255.736 318.545 256.025C321.972 256.314 324.873 259.33 325.939 262.68C327.005 266.031 326.632 269.663 326.008 273.12C325.132 277.963 323.663 282.921 320.297 286.522C316.931 290.124 311.997 293.817 307.679 291.457" fill="#FCBA04"/>
<path d="M311.03 336.049C309.94 333.357 309.726 330.389 310.417 327.568C311.109 324.747 312.671 322.215 314.883 320.332C316.276 319.19 318.096 318.314 319.832 318.809C321.569 319.304 322.795 321.094 323.038 322.914C323.178 324.755 322.867 326.603 322.132 328.297C321.241 330.711 320.038 333.133 317.974 334.686C315.911 336.24 313.04 337.694 311.03 336.087" fill="#FCBA04"/>
<path d="M296.424 332.866C297.172 328.729 296.599 324.461 294.787 320.667C292.975 316.873 290.015 313.746 286.327 311.727C284.042 310.532 281.179 309.816 278.857 310.966C276.534 312.116 275.331 315.063 275.521 317.72C275.712 320.378 276.983 322.83 278.392 325.084C280.372 328.252 282.793 331.328 286.167 332.92C289.54 334.511 294.048 335.722 296.424 332.851" fill="#FCBA04"/>
<path d="M297.49 310.661C300.383 301.31 295.472 289.964 287.278 284.596C284.735 282.928 281.514 281.771 278.674 282.852C275.833 283.933 274.105 287.208 274.006 290.315C273.907 293.421 275.11 296.406 276.488 299.224C278.407 303.13 280.867 306.991 284.606 309.237C288.344 311.484 294.368 313.723 297.49 310.661Z" fill="#FCBA04"/>
<path d="M303.293 356.396C303.249 356.247 303.219 356.094 303.202 355.939C303.148 355.596 303.088 355.178 303.004 354.637C303.004 354.348 302.92 354.035 302.874 353.693C302.829 353.35 302.737 352.977 302.661 352.581C302.509 351.781 302.349 350.868 302.09 349.878C301.968 349.383 301.846 348.865 301.717 348.317C301.587 347.768 301.389 347.228 301.222 346.649C300.91 345.492 300.46 344.288 300.019 343.009C298.983 340.266 297.778 337.591 296.409 334.998C295.002 332.425 293.438 329.94 291.726 327.559C290.904 326.493 290.158 325.449 289.358 324.513C288.97 324.056 288.597 323.614 288.239 323.18L287.15 322.007C286.464 321.246 285.794 320.606 285.216 320.035C284.926 319.753 284.652 319.495 284.408 319.274C284.165 319.053 283.906 318.84 283.693 318.642L282.71 317.758C282.589 317.662 282.479 317.552 282.383 317.431C282.52 317.504 282.648 317.594 282.764 317.697L283.784 318.527L284.545 319.137L285.383 319.898C285.977 320.454 286.67 321.078 287.363 321.84L288.482 323.005L289.625 324.322C290.439 325.221 291.201 326.272 292.038 327.368C293.762 329.746 295.329 332.234 296.729 334.816C298.105 337.422 299.308 340.116 300.331 342.88C300.757 344.174 301.207 345.385 301.511 346.558C301.671 347.136 301.831 347.7 301.976 348.24C302.12 348.781 302.219 349.314 302.334 349.817C302.577 350.814 302.714 351.736 302.851 352.543C302.912 352.939 302.973 353.304 303.034 353.662C303.095 354.02 303.103 354.325 303.133 354.614C303.179 355.155 303.217 355.589 303.247 355.931C303.281 356.084 303.296 356.24 303.293 356.396Z" fill="#263238"/>
<path d="M303.079 358.071C303.069 358.011 303.069 357.949 303.079 357.888C303.079 357.744 303.079 357.561 303.125 357.348C303.171 356.838 303.231 356.145 303.315 355.269C303.361 354.812 303.407 354.31 303.46 353.746C303.513 353.183 303.521 352.596 303.551 351.957C303.597 350.67 303.719 349.208 303.681 347.586C303.681 346.778 303.681 345.926 303.681 345.042C303.681 344.159 303.589 343.245 303.544 342.293C303.483 340.39 303.224 338.372 302.988 336.247C302.367 331.647 301.41 327.099 300.125 322.639C298.771 318.208 297.093 313.881 295.106 309.694C294.139 307.783 293.256 305.948 292.274 304.318C291.794 303.496 291.368 302.681 290.888 301.935L289.517 299.803C288.672 298.417 287.773 297.259 287.027 296.208C286.654 295.691 286.311 295.196 285.976 294.754L285.04 293.581L283.745 291.944L283.402 291.518C283.326 291.419 283.288 291.365 283.296 291.358L283.433 291.487C283.524 291.601 283.646 291.731 283.791 291.898L285.139 293.49L286.113 294.647C286.456 295.081 286.806 295.569 287.195 296.087C287.956 297.13 288.87 298.28 289.738 299.658C290.18 300.336 290.652 301.044 291.139 301.782C291.626 302.521 292.053 303.305 292.548 304.166C293.545 305.795 294.444 307.631 295.426 309.542C297.441 313.747 299.131 318.1 300.483 322.563C301.781 327.04 302.735 331.61 303.338 336.232C303.559 338.372 303.803 340.397 303.856 342.324C303.856 343.276 303.97 344.197 303.97 345.088C303.97 345.979 303.97 346.824 303.97 347.631C303.97 349.261 303.856 350.723 303.787 352.01C303.742 352.657 303.719 353.259 303.666 353.807C303.612 354.355 303.536 354.85 303.483 355.33C303.369 356.206 303.285 356.899 303.216 357.401C303.216 357.622 303.155 357.797 303.14 357.942C303.125 358.086 303.087 358.079 303.079 358.071Z" fill="#263238"/>
<path d="M318.85 267.211C318.829 267.273 318.801 267.331 318.766 267.386L318.507 267.874L317.471 269.724C317.25 270.12 316.984 270.562 316.71 271.057L315.903 272.686C315.606 273.273 315.301 273.897 314.966 274.552C314.631 275.207 314.349 275.945 314.022 276.699C313.694 277.453 313.329 278.222 312.994 279.067C312.659 279.913 312.339 280.773 311.989 281.672C311.814 282.121 311.638 282.578 311.463 283.05C311.288 283.522 311.136 284.002 310.976 284.489C310.641 285.464 310.306 286.469 309.955 287.535C308.676 291.685 307.458 296.307 306.43 301.242C305.402 306.176 304.739 310.89 304.222 315.207C303.704 319.525 303.46 323.431 303.369 326.721C303.285 328.358 303.27 329.851 303.262 331.153C303.254 332.455 303.262 333.582 303.262 334.503C303.262 335.425 303.262 336.102 303.262 336.62V337.176C303.274 337.237 303.274 337.299 303.262 337.359C303.257 337.298 303.257 337.237 303.262 337.176C303.262 337.031 303.262 336.849 303.262 336.628C303.262 336.11 303.201 335.402 303.155 334.511C303.11 333.62 303.087 332.463 303.087 331.153C303.087 329.843 303.087 328.358 303.133 326.713C303.186 323.416 303.483 319.502 303.894 315.169C304.305 310.837 305.074 306.092 306.072 301.166C307.069 296.239 308.356 291.609 309.643 287.459L310.671 284.451C310.839 283.964 311.006 283.476 311.174 283.004C311.341 282.532 311.532 282.083 311.715 281.634C312.065 280.727 312.415 279.859 312.743 279.022C313.07 278.184 313.458 277.415 313.793 276.661C314.128 275.907 314.448 275.192 314.768 274.521L315.735 272.663L316.527 270.958C316.801 270.463 317.075 270.036 317.289 269.64L318.385 267.82C318.507 267.638 318.606 267.485 318.682 267.356C318.732 267.301 318.788 267.252 318.85 267.211Z" fill="#263238"/>
<path d="M316.786 324.048C316.605 324.441 316.391 324.818 316.147 325.175C315.705 325.883 315.096 326.934 314.38 328.221C313.664 329.508 312.857 331.122 312.096 332.927C311.253 334.891 310.511 336.896 309.872 338.935C309.258 340.979 308.75 343.053 308.349 345.149C307.984 347.091 307.732 348.85 307.588 350.335C307.443 351.819 307.352 353.023 307.313 353.86C307.317 354.294 307.281 354.727 307.207 355.155C307.163 354.722 307.147 354.287 307.161 353.853C307.161 353.015 307.161 351.804 307.306 350.312C307.447 348.56 307.675 346.817 307.991 345.088C308.762 340.846 310.04 336.712 311.799 332.775C312.513 331.172 313.309 329.606 314.182 328.084C314.944 326.782 315.576 325.754 316.063 325.038C316.278 324.69 316.52 324.359 316.786 324.048Z" fill="#263238"/>
<path d="M291.406 352.223H318.005L314.784 379.393H294.718L291.406 352.223Z" fill="#455A64"/>
<path d="M292.373 376.461L294.634 379.393H314.783L317.106 376.552L292.373 376.461Z" fill="#263238"/>
<path d="M316.969 360.211C316.969 360.325 311.448 360.417 304.64 360.417C297.833 360.417 292.312 360.325 292.312 360.211C292.312 360.097 297.825 360.013 304.64 360.013C311.456 360.013 316.969 360.104 316.969 360.211Z" fill="#FAFAFA"/>
<path d="M316.969 362.023C316.969 362.13 311.448 362.221 304.64 362.221C297.833 362.221 292.312 362.13 292.312 362.023C292.312 361.917 297.825 361.825 304.64 361.825C311.456 361.825 316.969 361.917 316.969 362.023Z" fill="#FAFAFA"/>
<path d="M316.634 363.775C316.634 363.881 311.303 363.973 304.739 363.973C298.175 363.973 292.837 363.881 292.837 363.775C292.837 363.668 298.168 363.577 304.739 363.577C311.311 363.577 316.634 363.668 316.634 363.775Z" fill="#FAFAFA"/>
<path d="M17.1169 57.745L15.8376 59.7705C15.8376 59.7705 29.3007 62.7631 33.268 70.3627C33.2378 70.6333 33.2741 70.9072 33.3736 71.1606C33.4731 71.414 33.6329 71.6394 33.8391 71.8172L36.253 73.8732C36.5116 74.0852 36.8287 74.2134 37.162 74.2406C37.4953 74.2678 37.829 74.1927 38.1186 74.0255C38.1186 74.0255 46.3198 75.4647 50.3023 83.3079L51.9167 86.1483L64.7705 57.9734L39.1238 31.3215L17.1169 57.745Z" fill="#FCBA04"/>
<path d="M17.3987 53.8232L15 57.4098C15 57.4098 29.6281 58.552 35.4458 72.1826L44.7816 53.4425C44.7816 53.4425 20.6959 50.8001 17.3987 53.8232Z" fill="#EBEBEB"/>
<path d="M33.4733 27.0039C33.4733 27.0039 52.5104 26.2424 52.5104 46.1018L35.4837 72.1826C35.4837 72.1826 32.3159 52.7496 15.7537 53.77L33.4733 27.0039Z" fill="#F5F5F5"/>
<path d="M35.4456 72.1826C35.4456 72.1826 50.8808 72.9441 53.4699 85.5618L67.6791 60.7984L51.9164 47.0004L35.4456 72.1826Z" fill="#EBEBEB"/>
<path d="M52.4423 46.1171C52.4423 46.1171 61.9304 40.505 69.1568 46.8177L73.6648 51.0287L59.8287 76.2489C59.8287 76.2489 48.6044 66.1898 35.4155 72.2207L52.4423 46.1171Z" fill="#F5F5F5"/>
<path d="M35.4456 72.1826C35.6165 71.8123 35.8204 71.458 36.0548 71.1242L37.8366 68.3219C39.4053 65.908 41.4917 62.6793 43.799 59.108L49.7386 49.8788L51.5205 47.0766C51.7229 46.7227 51.9547 46.3865 52.2134 46.0714C52.0589 46.4468 51.8729 46.8086 51.6575 47.1527C51.2768 47.8457 50.6981 48.8204 49.9747 50.0311C48.5278 52.4374 46.4642 55.727 44.1341 59.3212C41.8039 62.9154 39.6566 66.1746 38.0422 68.459L36.1537 71.2003C35.9456 71.547 35.7087 71.8756 35.4456 72.1826Z" fill="#263238"/>
<path d="M68.2883 52.9932C68.235 53.0465 67.5649 52.3384 66.2856 51.4703C65.5372 50.9547 64.7447 50.5062 63.9174 50.1301C62.9029 49.6788 61.8472 49.3269 60.7649 49.0792C59.6777 48.8494 58.571 48.7245 57.46 48.7061C56.5515 48.7029 55.6444 48.7793 54.7491 48.9345C53.2262 49.2011 52.3124 49.5666 52.2896 49.4904C52.4783 49.3597 52.6865 49.2595 52.9063 49.1934C53.1545 49.0891 53.4088 49.0001 53.6678 48.9269C54.0055 48.8198 54.3487 48.7309 54.6958 48.6604C55.6043 48.4624 56.5303 48.3553 57.46 48.3406C58.5986 48.3396 59.7343 48.457 60.8486 48.6909C61.961 48.9431 63.0434 49.3133 64.0773 49.795C64.9139 50.1999 65.7095 50.6844 66.4531 51.2418C66.7729 51.4703 67.0319 51.7139 67.2755 51.9195C67.4788 52.0939 67.6696 52.2821 67.8467 52.483C68.0163 52.6323 68.1649 52.8039 68.2883 52.9932Z" fill="#263238"/>
<path d="M67.0701 56.1001C67.0091 56.1534 66.3086 55.4452 65.0674 54.5771C64.319 54.0615 63.5265 53.613 62.6992 53.2369C60.6712 52.313 58.4702 51.8302 56.2418 51.8205C55.3334 51.8147 54.4263 51.8886 53.5309 52.0414C52.008 52.3079 51.0942 52.6734 51.0637 52.6049C51.255 52.4738 51.4657 52.3736 51.6881 52.3079C51.9329 52.1951 52.1879 52.1059 52.4496 52.0414C52.7889 51.929 53.1348 51.8374 53.4852 51.7672C54.394 51.5721 55.32 51.4675 56.2494 51.455C57.3879 51.4478 58.524 51.5627 59.638 51.7977C60.7479 52.0536 61.8276 52.4263 62.8591 52.9095C63.6988 53.3055 64.495 53.7878 65.2349 54.3487C65.522 54.5611 65.7966 54.79 66.0573 55.034C66.2643 55.2041 66.4578 55.3899 66.636 55.5899C66.8038 55.7388 66.95 55.9105 67.0701 56.1001Z" fill="#263238"/>
<path d="M65.1819 59.0928C65.1285 59.1461 64.4584 58.4379 63.1792 57.5698C62.429 57.057 61.6368 56.6087 60.8109 56.2296C59.7952 55.7817 58.7397 55.4299 57.6584 55.1788C56.5711 54.9513 55.4644 54.8289 54.3536 54.8133C53.4454 54.8119 52.5387 54.8858 51.6427 55.0341C50.1197 55.3082 49.2059 55.6661 49.1831 55.5976C49.3731 55.4691 49.5809 55.369 49.7999 55.3006C50.0467 55.1929 50.3013 55.1038 50.5614 55.0341C50.8989 54.9242 51.242 54.8327 51.5894 54.7599C52.4983 54.5652 53.4242 54.4607 54.3536 54.4477C55.492 54.4436 56.6276 54.5585 57.7422 54.7904C58.8538 55.0487 59.9359 55.4212 60.9709 55.9022C61.8084 56.3052 62.6042 56.7898 63.3467 57.349C63.6353 57.5567 63.91 57.7831 64.1691 58.0267C64.3743 58.1988 64.5676 58.3845 64.7478 58.5826C65.0448 58.8872 65.2047 59.0699 65.1819 59.0928Z" fill="#263238"/>
<path d="M36.4812 63.1133C36.4127 63.1133 36.4051 62.0168 35.971 60.3263C35.413 58.1155 34.3287 56.0725 32.8106 54.3713C31.2924 52.6702 29.3853 51.3613 27.252 50.5564C25.6225 49.932 24.5259 49.795 24.5412 49.7264C24.7962 49.7077 25.0527 49.7256 25.3027 49.7797C25.9959 49.8929 26.6785 50.0635 27.3434 50.2899C29.5605 51.0418 31.5451 52.3552 33.1038 54.102C34.6625 55.8489 35.7421 57.9696 36.2376 60.2577C36.3957 60.9428 36.4875 61.6415 36.5117 62.3442C36.5439 62.6005 36.5337 62.8604 36.4812 63.1133Z" fill="#263238"/>
<path d="M38.5908 59.7095C38.5223 59.7095 38.5147 58.6129 38.0806 56.9225C37.5228 54.7128 36.4395 52.6706 34.9227 50.9696C33.406 49.2685 31.5008 47.9591 29.3693 47.1526C27.7321 46.5282 26.6356 46.3912 26.6508 46.3226C26.9059 46.3039 27.1623 46.3218 27.4123 46.3759C28.1055 46.4891 28.7881 46.6597 29.453 46.8861C31.6687 47.6391 33.6517 48.953 35.209 50.6997C36.7663 52.4465 37.8448 54.5667 38.3396 56.8539C38.4977 57.539 38.5895 58.2377 38.6137 58.9404C38.6533 59.196 38.6455 59.4567 38.5908 59.7095Z" fill="#263238"/>
<path d="M40.7 56.3057C40.6314 56.3057 40.6238 55.2091 40.1898 53.5186C39.6319 51.309 38.5486 49.2668 37.0319 47.5657C35.5151 45.8647 33.61 44.5553 31.4784 43.7488C29.8412 43.1244 28.7447 42.9874 28.7599 42.9188C29.015 42.9001 29.2714 42.918 29.5214 42.9721C30.2146 43.0853 30.8973 43.2559 31.5622 43.4823C33.7849 44.2313 35.7757 45.5431 37.341 47.2899C38.9063 49.0366 39.9927 51.1589 40.4944 53.4501C40.645 54.1365 40.7367 54.8346 40.7685 55.5366C40.7913 55.795 40.7681 56.0554 40.7 56.3057Z" fill="#263238"/>
<path d="M42.8168 52.9019C42.7407 52.9019 42.7331 51.8053 42.299 50.1148C41.7412 47.9052 40.6578 45.8629 39.1411 44.1619C37.6244 42.4609 35.7192 41.1515 33.5877 40.345C31.9505 39.7206 30.8616 39.5835 30.8692 39.515C31.1243 39.4963 31.3807 39.5142 31.6307 39.5683C32.3239 39.6815 33.0065 39.8521 33.6715 40.0785C35.8871 40.833 37.8701 42.1472 39.4284 43.8936C40.9867 45.64 42.0673 47.7594 42.5656 50.0463C42.7162 50.7327 42.8079 51.4308 42.8397 52.1328C42.8695 52.3889 42.8618 52.648 42.8168 52.9019Z" fill="#263238"/>
<path d="M44.9262 49.4981C44.8501 49.4981 44.8425 48.4015 44.4084 46.711C43.8506 44.5014 42.7672 42.4591 41.2505 40.7581C39.7338 39.0571 37.8286 37.7477 35.6971 36.9412C34.0599 36.3168 32.9709 36.1797 32.9786 36.1112C33.2336 36.0924 33.4901 36.1104 33.74 36.1645C34.4335 36.2768 35.1161 36.4474 35.7808 36.6747C37.9964 37.4292 39.9795 38.7434 41.5378 40.4898C43.0961 42.2362 44.1767 44.3556 44.6749 46.6425C44.8255 47.3289 44.9172 48.0269 44.9491 48.729C44.9789 48.9851 44.9712 49.2442 44.9262 49.4981Z" fill="#263238"/>
<path d="M47.0356 46.0942C46.9594 46.0942 46.9518 44.9977 46.5178 43.3072C45.96 41.0975 44.8766 39.0553 43.3599 37.3543C41.8432 35.6533 39.938 34.3439 37.8064 33.5374C36.1692 32.913 35.0803 32.7759 35.0879 32.7074C35.343 32.6886 35.5994 32.7066 35.8494 32.7607C36.5428 32.873 37.2255 33.0436 37.8902 33.2709C40.1058 34.0254 42.0889 35.3396 43.6471 37.086C45.2054 38.8324 46.2861 40.9518 46.7843 43.2387C46.9349 43.9251 47.0266 44.6231 47.0584 45.3251C47.0883 45.5813 47.0806 45.8404 47.0356 46.0942Z" fill="#263238"/>
<path d="M48.5889 59.0927L43.624 66.2811C43.624 66.2811 51.2389 65.3902 57.8637 69.6088L62.4326 61.9102C62.4326 61.9102 55.3965 56.3818 48.5584 59.0927" fill="#EBEBEB"/>
<path d="M290.342 213.553L291.004 215.292C291.004 215.292 299.21 208.324 305.806 209.439C305.958 209.586 306.145 209.693 306.349 209.751C306.553 209.808 306.767 209.814 306.974 209.767L309.392 209.234C309.646 209.173 309.876 209.035 310.05 208.84C310.224 208.645 310.334 208.401 310.366 208.141C311.941 206.81 313.785 205.834 315.772 205.282C317.76 204.73 319.842 204.614 321.878 204.943L324.388 205.244L312.946 184.013L284.23 187.411L290.342 213.553Z" fill="#FCBA04"/>
<path d="M288.027 211.528L289.141 214.721C289.141 214.721 296.739 206.165 307.96 208.965L300.707 194.324C300.707 194.324 287.709 208.044 288.027 211.528Z" fill="#EBEBEB"/>
<path d="M278.921 188.897C278.921 188.897 287.429 176.696 299.77 186.054L307.938 208.965C307.938 208.965 294.364 201.777 287.186 212.562L278.921 188.897Z" fill="#F5F5F5"/>
<path d="M307.938 208.965C307.938 208.965 315.681 199.714 324.727 204.022L316.042 183.491L300.045 186.878L307.938 208.965Z" fill="#EBEBEB"/>
<path d="M299.743 186.102C299.743 186.102 300.739 177.568 308.056 176.033L312.789 175.21L321.943 195.681C321.943 195.681 310.404 197.927 307.943 208.97L299.743 186.102Z" fill="#F5F5F5"/>
<path d="M311.486 179.485C311.492 179.555 310.743 179.646 309.591 180.034C306.587 181.042 304.082 183.161 302.591 185.957C302.031 187.023 301.843 187.782 301.751 187.734C301.66 187.686 301.757 187.546 301.837 187.206C301.964 186.735 302.131 186.275 302.338 185.833C303.02 184.358 304.016 183.049 305.257 182C306.491 180.944 307.938 180.166 309.499 179.716C309.97 179.583 310.451 179.491 310.937 179.442C311.293 179.463 311.481 179.458 311.486 179.485Z" fill="#263238"/>
<path d="M312.844 181.703C312.849 181.773 312.095 181.87 310.948 182.252C307.944 183.26 305.44 185.379 303.949 188.175C303.383 189.247 303.2 190 303.103 189.957C303.006 189.914 303.114 189.764 303.195 189.424C303.319 188.952 303.487 188.493 303.696 188.051C304.376 186.575 305.372 185.267 306.614 184.218C307.846 183.163 309.292 182.386 310.852 181.94C311.321 181.804 311.802 181.712 312.289 181.665C312.65 181.681 312.838 181.676 312.844 181.703Z" fill="#263238"/>
<path d="M313.813 184.288C313.829 184.358 313.07 184.45 311.923 184.832C310.434 185.345 309.054 186.13 307.852 187.147C306.656 188.171 305.664 189.412 304.928 190.803C304.374 191.875 304.18 192.629 304.094 192.586C304.007 192.542 304.099 192.386 304.185 192.052C304.304 191.578 304.47 191.116 304.681 190.674C305.366 189.204 306.36 187.899 307.594 186.846C308.828 185.787 310.277 185.01 311.842 184.568C312.311 184.431 312.793 184.339 313.28 184.293C313.624 184.261 313.813 184.256 313.813 184.288Z" fill="#263238"/>
<path d="M315.089 186.565C315.1 186.641 314.34 186.732 313.194 187.114C310.189 188.122 307.685 190.242 306.194 193.037C305.634 194.114 305.445 194.863 305.354 194.825C305.262 194.787 305.359 194.626 305.445 194.292C305.564 193.817 305.73 193.355 305.941 192.914C306.628 191.441 307.623 190.134 308.859 189.08C310.091 188.023 311.539 187.248 313.102 186.808C313.571 186.669 314.053 186.577 314.54 186.533C314.895 186.544 315.084 186.538 315.089 186.565Z" fill="#263238"/>
<path d="M316.473 188.962C316.483 189.026 315.73 189.123 314.583 189.505C313.094 190.017 311.713 190.803 310.512 191.821C309.318 192.843 308.327 194.081 307.594 195.471C307.028 196.543 306.845 197.297 306.748 197.254C306.651 197.211 306.759 197.06 306.84 196.721C306.964 196.249 307.132 195.789 307.341 195.348C308.028 193.875 309.023 192.568 310.259 191.514C311.486 190.47 312.924 189.704 314.475 189.268C314.952 189.119 315.442 189.017 315.94 188.967C316.29 188.94 316.473 188.929 316.473 188.962Z" fill="#263238"/>
<path d="M318.131 191.6C318.142 191.675 317.323 191.772 316.085 192.214C315.358 192.47 314.652 192.784 313.974 193.151C313.153 193.611 312.369 194.133 311.626 194.712C310.892 195.304 310.207 195.956 309.58 196.661C309.074 197.245 308.62 197.872 308.223 198.535C307.556 199.666 307.351 200.484 307.26 200.447C307.267 200.25 307.305 200.056 307.373 199.871C307.429 199.649 307.505 199.433 307.599 199.225C307.707 198.941 307.834 198.666 307.981 198.401C308.344 197.711 308.775 197.06 309.268 196.457C309.897 195.723 310.591 195.047 311.341 194.438C312.102 193.841 312.915 193.313 313.77 192.86C314.471 192.5 315.205 192.206 315.961 191.982C316.245 191.893 316.534 191.822 316.828 191.772C317.049 191.72 317.274 191.686 317.501 191.67C317.942 191.595 318.131 191.579 318.131 191.6Z" fill="#263238"/>
<path d="M318.971 193.872C318.982 193.948 318.158 194.039 316.925 194.508C316.204 194.787 315.507 195.124 314.841 195.515C314.031 196.003 313.261 196.554 312.536 197.162C311.815 197.775 311.146 198.445 310.533 199.165C310.04 199.764 309.598 200.403 309.214 201.077C308.557 202.218 308.342 203.026 308.261 202.999C308.18 202.972 308.277 202.789 308.374 202.423C308.432 202.201 308.505 201.983 308.595 201.772C308.702 201.486 308.826 201.207 308.966 200.937C309.321 200.24 309.741 199.578 310.221 198.961C310.827 198.204 311.501 197.505 312.235 196.872C312.976 196.244 313.775 195.687 314.62 195.208C315.313 194.821 316.044 194.505 316.801 194.266C317.082 194.175 317.367 194.101 317.657 194.045C317.88 193.991 318.107 193.955 318.335 193.937C318.766 193.851 318.976 193.846 318.971 193.872Z" fill="#263238"/>
<path d="M302.802 204.032C302.753 204.081 302.064 203.585 300.809 203.063C299.179 202.393 297.416 202.104 295.657 202.218C293.892 202.372 292.189 202.936 290.681 203.865C289.518 204.576 288.915 205.179 288.867 205.131C288.966 204.954 289.098 204.797 289.254 204.668C289.647 204.283 290.074 203.935 290.53 203.629C292.044 202.597 293.8 201.977 295.626 201.83C297.452 201.682 299.285 202.013 300.944 202.789C301.445 203.016 301.921 203.294 302.366 203.618C302.534 203.729 302.682 203.87 302.802 204.032Z" fill="#263238"/>
<path d="M301.676 201.119C301.628 201.168 300.944 200.667 299.684 200.15C298.05 199.468 296.276 199.185 294.511 199.327C292.745 199.468 291.039 200.029 289.534 200.963C288.377 201.679 287.768 202.288 287.72 202.239C287.82 202.063 287.951 201.906 288.107 201.776C288.5 201.392 288.925 201.043 289.378 200.732C290.893 199.7 292.65 199.08 294.477 198.934C296.304 198.788 298.137 199.12 299.797 199.897C300.297 200.127 300.775 200.403 301.224 200.721C301.399 200.824 301.552 200.959 301.676 201.119Z" fill="#263238"/>
<path d="M300.561 198.207C300.513 198.255 299.824 197.76 298.542 197.264C296.912 196.58 295.143 196.295 293.38 196.432C291.618 196.568 289.914 197.123 288.409 198.051C287.251 198.767 286.642 199.375 286.599 199.321C286.699 199.145 286.831 198.988 286.987 198.858C287.38 198.474 287.805 198.125 288.258 197.814C289.774 196.785 291.531 196.167 293.357 196.021C295.183 195.88 297.015 196.21 298.677 196.979C299.176 197.21 299.652 197.488 300.098 197.808C300.275 197.913 300.432 198.047 300.561 198.207Z" fill="#263238"/>
<path d="M299.431 195.288C299.382 195.337 298.698 194.836 297.412 194.346C295.776 193.662 294.001 193.38 292.235 193.523C290.468 193.665 288.761 194.228 287.256 195.164C286.104 195.875 285.496 196.484 285.447 196.435C285.547 196.258 285.678 196.101 285.835 195.972C286.225 195.585 286.651 195.236 287.106 194.927C288.619 193.892 290.376 193.27 292.204 193.124C294.032 192.978 295.866 193.312 297.525 194.093C298.022 194.322 298.498 194.596 298.946 194.911C299.13 195.005 299.295 195.133 299.431 195.288Z" fill="#263238"/>
<path d="M298.31 192.37C298.262 192.419 297.573 191.923 296.291 191.428C294.657 190.745 292.883 190.463 291.118 190.604C289.352 190.746 287.646 191.307 286.141 192.241C284.984 192.957 284.375 193.565 284.332 193.512C284.432 193.335 284.564 193.178 284.72 193.049C285.108 192.659 285.533 192.309 285.991 192.004C287.505 190.972 289.262 190.352 291.09 190.205C292.917 190.059 294.75 190.391 296.41 191.169C296.904 191.403 297.378 191.679 297.826 191.993C298.008 192.09 298.172 192.217 298.31 192.37Z" fill="#263238"/>
<path d="M297.18 189.452C297.131 189.5 296.453 189.005 295.193 188.488C293.559 187.804 291.785 187.522 290.02 187.663C288.254 187.804 286.548 188.366 285.043 189.301C283.88 190.012 283.283 190.62 283.234 190.571C283.334 190.395 283.465 190.238 283.622 190.108C284.009 189.719 284.435 189.369 284.893 189.064C286.407 188.031 288.164 187.411 289.991 187.265C291.818 187.119 293.652 187.451 295.312 188.229C295.81 188.456 296.284 188.732 296.728 189.053C296.901 189.158 297.054 189.293 297.18 189.452Z" fill="#263238"/>
<path d="M235.734 76.6594L236.946 78.5312C236.946 78.5312 244.714 68.305 252.677 67.9059C252.893 68.0368 253.138 68.1129 253.391 68.1277C253.643 68.1425 253.895 68.0954 254.126 67.9907L256.803 66.744C257.083 66.6074 257.316 66.3885 257.469 66.1164C257.621 65.8444 257.688 65.5321 257.658 65.2214C259.148 63.2659 261.045 61.6564 263.216 60.5038C265.388 59.3512 267.784 58.6827 270.238 58.5444L273.237 58.2484L254.466 36.4672L221.951 47.7519L235.734 76.6594Z" fill="#E0E0E0"/>
<path d="M232.528 74.898L234.631 78.3128C234.631 78.3128 241.276 66.3904 255.064 66.7787L242.852 51.5931C242.852 51.5931 231.259 70.9179 232.528 74.898Z" fill="#EBEBEB"/>
<path d="M216.1 50.8784C216.1 50.8784 222.881 34.4878 239.632 42.2446L255.085 66.8146C255.085 66.8146 237.426 61.9388 231.866 76.3208L216.1 50.8784Z" fill="#F5F5F5"/>
<path d="M239.624 42.2728C239.624 42.2728 238.551 32.127 246.719 28.4159L252.033 26.2452L267.956 47.7333C267.956 47.7333 255.087 53.3091 255.048 66.8121L239.624 42.2728Z" fill="#F5F5F5"/>
<path d="M251.604 31.5526C251.645 31.6244 250.782 31.9315 249.567 32.7284C246.33 34.6879 243.965 37.8123 242.958 41.4603C242.579 42.8754 242.53 43.7647 242.442 43.7561C242.353 43.7475 242.396 43.5315 242.408 43.1177C242.421 42.5392 242.489 41.9632 242.611 41.3976C243.035 39.5049 243.86 37.7251 245.031 36.1785C246.201 34.6319 247.69 33.3545 249.396 32.4323C249.909 32.1569 250.445 31.9274 250.998 31.7468C251.378 31.5755 251.597 31.5205 251.604 31.5526Z" fill="#E0E0E0"/>
<path d="M253.758 33.79C253.799 33.8618 252.927 34.1741 251.69 34.912C250.086 35.8875 248.68 37.1576 247.548 38.6553C246.421 40.1578 245.585 41.8575 245.082 43.667C244.703 45.082 244.649 45.9624 244.566 45.9628C244.522 45.7511 244.513 45.5336 244.541 45.3192C244.554 44.7407 244.622 44.1647 244.744 43.5991C245.168 41.7064 245.993 39.9267 247.164 38.3801C248.334 36.8335 249.823 35.556 251.529 34.6338C252.043 34.3521 252.582 34.1207 253.14 33.9431C253.334 33.8527 253.544 33.8007 253.758 33.79Z" fill="#E0E0E0"/>
<path d="M255.552 36.546C255.593 36.6177 254.721 36.93 253.515 37.7217C250.271 39.6764 247.905 42.8074 246.911 46.4626C246.532 47.8777 246.478 48.758 246.39 48.7494C246.301 48.7408 246.344 48.5248 246.356 48.111C246.372 47.5327 246.44 46.957 246.559 46.3909C246.986 44.4992 247.812 42.7206 248.982 41.1743C250.152 39.6281 251.64 38.35 253.344 37.4257C253.857 37.1502 254.393 36.9208 254.946 36.7401C255.326 36.5688 255.545 36.5139 255.552 36.546Z" fill="#E0E0E0"/>
<path d="M257.618 38.8816C257.66 38.9533 256.796 39.2604 255.56 39.9983C253.956 40.9732 252.549 42.2398 251.412 43.7326C250.289 45.2374 249.453 46.9364 248.947 48.7444C248.568 50.1594 248.514 51.0398 248.43 51.0402C248.347 51.0406 248.388 50.8014 248.397 50.4017C248.406 49.823 248.474 49.2468 248.6 48.6817C249.015 46.789 249.836 45.0089 251.006 43.4646C252.181 41.9267 253.671 40.6583 255.377 39.7447C255.887 39.4639 256.424 39.2343 256.979 39.0592C257.387 38.8954 257.612 38.8495 257.618 38.8816Z" fill="#E0E0E0"/>
<path d="M259.852 41.3001C259.893 41.3718 259.021 41.6841 257.815 42.4758C254.569 44.4332 252.201 47.5651 251.203 51.2219C250.823 52.6369 250.769 53.5173 250.681 53.5087C250.637 53.297 250.628 53.0795 250.656 52.8651C250.672 52.2868 250.74 51.7111 250.859 51.145C251.283 49.2523 252.108 47.4726 253.279 45.926C254.449 44.3794 255.938 43.1019 257.644 42.1797C258.157 41.9037 258.693 41.6742 259.246 41.4942C259.436 41.3969 259.641 41.3313 259.852 41.3001Z" fill="#E0E0E0"/>
<path d="M262.462 43.9557C262.503 44.0275 261.513 44.3839 260.246 45.235C259.468 45.7181 258.731 46.2637 258.042 46.8663C256.349 48.3325 254.933 50.0899 253.861 52.0553C253.423 52.8614 253.057 53.705 252.768 54.576C252.273 56.0584 252.226 57.0544 252.137 57.0458C252.098 56.8161 252.092 56.5821 252.118 56.3507C252.125 56.0788 252.157 55.8081 252.214 55.5421C252.266 55.1838 252.346 54.8299 252.452 54.4836C252.697 53.5751 253.04 52.6957 253.473 51.8605C254.018 50.8353 254.659 49.8645 255.388 48.9609C256.12 48.0714 256.93 47.2479 257.806 46.4999C258.532 45.9012 259.309 45.3684 260.129 44.9079C260.43 44.7365 260.742 44.5844 261.062 44.4527C261.305 44.33 261.558 44.2279 261.819 44.1474C262.213 43.9799 262.455 43.9236 262.462 43.9557Z" fill="#E0E0E0"/>
<path d="M264.018 46.3824C264.065 46.4631 263.069 46.8106 261.802 47.6617C261.032 48.1672 260.302 48.7324 259.621 49.3521C258.806 50.1299 258.05 50.9664 257.357 51.8548C256.684 52.7614 256.081 53.7176 255.552 54.7153C255.143 55.5408 254.797 56.3962 254.518 57.2742C254.031 58.7514 253.994 59.7654 253.911 59.7657C253.827 59.7661 253.872 59.5128 253.887 59.0617C253.895 58.7872 253.925 58.5138 253.977 58.2441C254.028 57.8854 254.103 57.5305 254.201 57.1818C254.437 56.2683 254.761 55.3799 255.17 54.5294C256.182 52.4409 257.593 50.5701 259.322 49.0219C260.032 48.3963 260.801 47.8404 261.617 47.3619C261.92 47.1611 262.234 46.9795 262.559 46.818C262.803 46.6953 263.056 46.5932 263.316 46.5127C263.774 46.4156 264.012 46.3503 264.018 46.3824Z" fill="#E0E0E0"/>
<path d="M247.797 62.3743C247.743 62.4054 246.835 62.0329 245.231 61.7625C243.153 61.3873 241.015 61.5142 238.996 62.1327C236.977 62.7512 235.135 63.8433 233.624 65.3181C232.457 66.4463 231.915 67.3096 231.838 67.2585C231.916 67.0294 232.03 66.8142 232.175 66.621C232.529 66.0691 232.937 65.5534 233.392 65.0814C234.889 63.4948 236.77 62.3219 238.854 61.6766C240.946 61.0439 243.164 60.957 245.299 61.4243C245.937 61.5683 246.561 61.7685 247.163 62.0225C247.592 62.2056 247.814 62.3408 247.797 62.3743Z" fill="#E0E0E0"/>
<path d="M245.74 59.2675C245.687 59.2986 244.778 58.9262 243.174 58.6558C241.096 58.2805 238.959 58.4075 236.94 59.0259C234.921 59.6444 233.079 60.7366 231.567 62.2113C230.4 63.3395 229.849 64.208 229.781 64.1517C229.859 63.9227 229.973 63.7074 230.118 63.5142C230.471 62.9651 230.875 62.4513 231.326 61.9798C232.823 60.3871 234.709 59.2119 236.799 58.5697C238.888 57.9275 241.109 57.8406 243.242 58.3175C243.897 58.4654 244.537 58.6724 245.154 58.9361C245.535 59.0988 245.757 59.234 245.74 59.2675Z" fill="#E0E0E0"/>
<path d="M243.699 56.1877C243.645 56.2188 242.728 55.8516 241.133 55.576C239.055 55.2008 236.917 55.3277 234.898 55.9462C232.879 56.5646 231.037 57.6568 229.526 59.1315C228.359 60.2597 227.808 61.1282 227.74 61.0719C227.815 60.84 227.927 60.6218 228.072 60.4255C228.424 59.8764 228.829 59.3625 229.279 58.8911C230.778 57.2991 232.666 56.125 234.756 55.4844C236.846 54.8438 239.068 54.7588 241.201 55.2378C241.839 55.3818 242.463 55.5819 243.065 55.8359C243.461 56.0025 243.726 56.1722 243.699 56.1877Z" fill="#E0E0E0"/>
<path d="M241.627 53.0543C241.599 53.1302 240.655 52.7181 239.061 52.4425C236.983 52.0673 234.845 52.1942 232.826 52.8127C230.807 53.4312 228.965 54.5233 227.453 55.9981C226.287 57.1263 225.735 57.9947 225.667 57.9385C225.743 57.712 225.854 57.4987 225.996 57.3062C226.353 56.7566 226.76 56.2413 227.212 55.7666C228.707 54.1738 230.592 52.9986 232.68 52.3572C234.769 51.7158 236.988 51.6305 239.119 52.1095C239.761 52.2486 240.388 52.4471 240.993 52.7025C241.422 52.8856 241.643 53.0208 241.627 53.0543Z" fill="#E0E0E0"/>
<path d="M239.57 49.9475C239.517 49.9786 238.599 49.6113 237.004 49.3357C234.926 48.9605 232.789 49.0874 230.77 49.7059C228.75 50.3244 226.908 51.4165 225.397 52.8913C224.23 54.0195 223.679 54.8879 223.611 54.8317C223.687 54.6052 223.798 54.3919 223.939 54.1994C224.297 53.6498 224.704 53.1345 225.156 52.6598C226.65 51.0742 228.531 49.9046 230.614 49.2662C232.697 48.6277 234.91 48.5422 237.036 49.0182C237.678 49.1573 238.305 49.3558 238.91 49.6112C239.148 49.6827 239.372 49.7966 239.57 49.9475Z" fill="#E0E0E0"/>
<path d="M237.513 46.8412C237.459 46.8723 236.541 46.505 234.947 46.2295C232.869 45.8542 230.731 45.9812 228.712 46.5996C226.693 47.2181 224.851 48.3103 223.34 49.785C222.173 50.9132 221.622 51.7817 221.553 51.7254C221.485 51.6692 221.641 51.4835 221.882 51.0931C222.238 50.5426 222.645 50.0271 223.098 49.5535C224.593 47.9607 226.478 46.7855 228.566 46.1441C230.655 45.5028 232.874 45.4174 235.006 45.8964C235.646 46.0393 236.273 46.2377 236.879 46.4894C237.109 46.5685 237.324 46.6876 237.513 46.8412Z" fill="#E0E0E0"/>
</g>
<defs>
<clipPath id="clip0_1820_423">
<rect width="343" height="394" fill="white"/>
</clipPath>
</defs>
</svg>
