<svg width="354" height="253" viewBox="0 0 354 253" fill="none" xmlns="http://www.w3.org/2000/svg">
<path fill-rule="evenodd" clip-rule="evenodd" d="M150.525 106.28C146.709 109.046 147.316 114.488 148.465 118.443C150.157 124.266 153.526 129.656 157.369 134.302C164.187 142.544 175.762 151.799 186.431 144.563C195.932 138.119 201.926 125.115 203.994 114.162C204.634 110.777 205.485 105.733 202.481 103.188C198.04 99.427 190.205 100.111 184.844 100.596C181.313 100.914 177.906 101.996 174.417 101.489C166.31 100.307 157.287 101.377 150.525 106.28Z" fill="#FF5678"/>
<path fill-rule="evenodd" clip-rule="evenodd" d="M314.899 149.412C307.17 159.218 294.028 160.767 282.356 160.671C275.348 160.613 268.325 160.085 261.454 158.657C257.75 157.887 254.071 156.867 250.492 155.641C248.127 154.831 244.608 154.427 243.601 151.893C240.948 145.21 242.9 136.828 243.993 130.043C244.549 126.593 244.967 123.121 245.507 119.668C245.853 117.458 246.019 115.014 246.945 112.947C248.029 110.525 249.398 111.009 251.692 111.678C254.851 112.6 258.095 112.983 261.343 113.479C269.27 114.69 276.186 117.131 283.391 120.591C290.515 124.012 297.425 127.389 303.78 132.145C306.999 134.556 309.773 137.172 312.358 140.244C314.354 142.618 317.334 146.323 314.899 149.412ZM281.111 192.964C281.048 194.02 268.934 190.832 267.34 190.475C256.88 188.129 246.213 185.456 236.338 181.217C227.121 177.261 218.999 172.734 211.746 165.705C208.365 162.428 205.324 158.978 202.414 155.303C200.956 153.461 198.963 153.675 197.337 152.117C195.874 150.714 194.752 149.619 195.209 147.523C198.865 148.486 205.615 154.54 209.404 151.483C211.564 149.74 208.569 147.92 207.185 146.91C204.586 145.011 202.363 142.668 200.296 140.21C203.844 140.898 207.147 142.226 210.235 144.076C211.607 144.898 216.31 147.878 217.405 145.037C218.079 143.289 214.89 141.091 213.896 140.123C211.454 137.748 208.819 134.975 207.523 131.781C210.728 131.038 213.748 133.514 215.931 135.532C218.353 137.771 221.322 140.122 223.354 142.703C224.402 144.034 224.63 145.606 225.448 147.042C226.369 148.657 227.843 150.041 229.251 151.236C231.964 153.539 235.137 155.235 238.394 156.638C245.837 159.842 253.815 162.11 261.748 163.701C265.64 164.481 269.437 164.841 273.387 164.973C276.457 165.076 277.816 165.995 278.988 168.823C282.16 176.478 281.584 184.898 281.111 192.964ZM190.006 134.64C188.231 136.301 185.924 137.343 184.069 138.94C182.436 140.345 180.553 141.844 178.731 142.98C176.785 144.193 175.332 143.342 173.581 142.245C171.524 140.958 169.16 140.436 167.043 139.284C159.72 135.299 150.763 125.534 152.13 116.567C152.709 112.767 154.673 109.028 158.241 107.304C161.481 105.738 166.191 104.869 169.658 106.178C171.613 106.917 173.012 108.546 174.265 110.149C175.726 112.017 176.285 111.722 177.773 109.921C180.436 106.698 184.826 103.87 189.166 103.938C191.323 103.972 193.465 104.427 195.408 105.322C195.672 105.444 195.818 105.811 196.082 105.935C196.407 106.088 196.94 105.77 197.165 105.913C197.734 106.273 198.303 107.398 198.63 107.969C199.947 110.26 202.318 114.752 199.929 116.681C199.927 116.682 200.035 119.291 200.002 119.588C199.834 121.144 199.296 122.429 198.603 123.853C196.521 128.128 193.448 131.42 190.006 134.64ZM193.545 170.817C191.864 171.339 190.053 166.07 191.666 165.229C193.204 164.426 195.068 170.344 193.545 170.817ZM167.135 164.516C166.552 166.507 166.306 168.766 164.882 170.386C163.578 168.839 163.45 165.984 164.714 164.393C165.436 163.486 167.772 162.341 167.135 164.516ZM220.945 129.639C220.936 129.689 222.968 130.662 221.977 131.724C220.622 133.176 220.808 130.35 220.945 129.639ZM229.345 113.416C229.322 115.428 225.061 114.942 225.092 112.918C225.129 110.426 229.371 111.282 229.345 113.416ZM224.259 96.5939C224.681 94.7511 232.093 92.1876 231.891 95.3994C231.789 97.0095 223.365 100.512 224.259 96.5939ZM148.281 159.087C147.451 160.086 146.27 160.48 145.275 161.246C144.231 162.05 143.484 163.092 142.572 164.036C140.067 166.625 137.052 168.753 134.35 171.132C129.382 175.505 124.623 180.206 119.115 183.915C109.272 190.542 97.8579 194.167 86.5269 197.341C85.5881 197.603 82.8841 198.665 81.9554 197.874C80.9537 197.022 81.4631 194.022 81.5092 192.888C81.6971 188.238 82.2392 183.532 82.1805 178.889C82.1562 176.982 81.5977 174.271 82.5927 172.525C83.7038 170.577 86.8062 170.006 88.7249 169.273C94.5577 167.044 100.176 163.283 105.328 159.8C111.662 155.519 118.058 151.166 124.576 147.169C130.962 143.253 138.005 140.631 145.128 138.395C145.458 139.088 142.059 141.32 141.671 141.632C139.807 143.133 137.78 144.688 136.397 146.668C135.417 148.07 134.413 151.243 137.117 151.324C138.428 151.363 140.366 150.095 141.555 149.685C143.518 149.008 145.541 148.532 147.594 148.223C145.829 150.167 139.845 153.659 140.934 156.891C141.99 160.028 148.1 156.368 150.203 156.368C149.859 157.462 148.992 158.233 148.281 159.087ZM76.0941 167.843C72.1808 169.219 68.1698 170.002 64.1312 170.89C60.2817 171.737 56.7235 172.375 52.7805 171.879C47.3368 171.195 41.3124 168.94 40.6223 162.754C39.8038 155.425 44.98 148.69 49.4245 143.432C54.8338 137.034 60.9077 131.314 67.4906 126.136C74.0659 120.962 81.1633 116.401 88.5986 112.55C94.2553 109.62 100.644 107.841 106.625 105.643C107.763 105.225 110.911 103.755 111.975 104.973C112.835 105.958 111.664 107.599 111.272 108.513C110.508 110.296 110.402 112.091 110.205 114.005C109.323 122.554 108.261 131.1 107.773 139.685C107.637 142.078 107.397 144.581 107.537 146.975C107.614 148.301 108.304 149.99 107.845 151.285C106.961 153.774 102.915 155.421 100.771 156.533C96.9329 158.524 92.8683 160.009 88.9903 161.912C84.7315 164.003 80.5847 166.263 76.0941 167.843ZM130.364 112.297C131.438 112.15 133.047 111.857 134.005 112.553C135.253 113.46 134.926 114.723 133.772 115.381C132.862 115.902 130.73 116.044 129.83 115.572C128.297 114.768 128.557 112.546 130.364 112.297ZM136.313 132.092C135.445 133.538 132.273 134.486 132.549 131.788C132.786 129.478 137.911 129.43 136.313 132.092ZM135.135 91.3666C136.531 91.9071 139.063 92.3696 139.477 94.1646C139.861 95.835 138.279 95.7247 137.136 95.2648C136.196 94.8874 132.011 91.3377 135.135 91.3666ZM353.752 155.095C352.938 151.923 353.558 148.412 353.108 145.164C352.672 142.015 351.887 139.122 350.761 136.154C348.266 129.585 345.408 123.671 341.365 117.905C333.75 107.048 324.915 97.4841 314.247 89.5536C303.715 81.7245 292.052 75.3618 279.698 70.9026C266.598 66.1734 253.41 64.5276 239.595 63.6211C235.469 63.3507 231.348 63.0299 227.245 62.5087C224.247 62.128 220.488 61.6588 217.524 62.5771C215.662 63.1544 214.621 64.7784 216.65 65.8442C218.088 66.5998 219.972 66.6903 221.56 66.8912C219.641 72.9877 216.519 79.1056 211.57 83.3036C206.739 87.4022 200.275 88.8072 194.178 89.8467C190.871 90.4098 187.17 90.8458 183.812 90.6027C181.689 90.4496 180.033 89.4668 179.177 91.653C178.582 93.1721 178.301 94.8388 177.517 92.5452C176.591 89.8337 176.136 89.8509 173.253 89.0806C167.357 87.5058 160.598 86.0688 155.455 82.6625C150.119 79.1287 148.263 73.412 145.284 68.0887C144.548 66.7729 142.325 64.11 143.461 62.6022C144.499 61.2236 147.876 61.3611 149.422 61.2173C151.054 61.0655 152.696 61.0592 154.333 60.9955C155.282 60.959 157.19 61.3477 156.808 59.9309C156.232 57.7955 150.064 58.0693 148.532 58.0345C145.683 57.9707 142.795 58.0365 139.961 58.3498C125.907 59.9041 111.727 62.7779 98.1279 66.6103C71.7426 74.0452 46.1884 87.7452 26.9327 107.482C8.44903 126.428 2.59314 157.955 13.956 182.145C19.8614 194.717 32.6766 199.882 45.0995 204.053C51.6522 206.253 58.5907 207.974 65.5564 207.559C68.899 207.359 72.0705 206.459 75.3305 205.781C76.7524 205.485 78.3704 205.014 79.8308 205.133C80.9361 205.223 81.9981 206.238 83.035 205.698C83.7709 205.315 84.0908 204.217 84.9902 203.749C86.0703 203.188 87.3793 202.985 88.5458 202.702C91.7874 201.914 94.9262 200.637 98.0948 199.59C101.372 198.507 104.464 197.112 107.608 195.703C109.195 194.99 112.869 192.096 113.903 194.212C114.375 195.178 114.174 197.041 114.289 198.054C114.49 199.826 114.727 201.594 114.985 203.359C115.555 207.243 116.236 211.111 116.935 214.975C118.196 221.946 119.821 228.619 122.538 235.177C124.707 240.413 126.612 246.348 130.64 250.513C132.399 252.331 134.798 253.149 137.321 252.578C140.189 251.927 141.617 249.322 143.359 247.215C147.191 242.578 153.518 239.025 159.36 237.746C166.513 236.18 173.482 238.47 180.31 240.417C187.533 242.477 194.886 244.439 201.976 246.915C208.582 249.222 215.716 252.63 222.88 252.333C229.129 252.075 234.964 246.99 239.471 243.114C243.996 239.221 249.655 233.521 256.162 233.98C259.393 234.207 262.338 235.766 265.485 236.399C268.941 237.095 272.617 237.194 276.131 237.453C280.492 237.775 290.251 236.638 291.864 231.391C292.104 230.612 292.105 229.009 291.077 228.698C290.131 228.412 289.648 229.517 288.753 229.467C286.93 229.364 285.506 226.186 284.504 224.956C280.464 219.989 274.921 216.285 270.387 211.798C265.267 206.732 260.896 200.594 257.038 194.54C258.782 194.087 260.663 194.84 262.351 195.197C264.403 195.632 266.401 196.157 268.422 196.713C270.65 197.327 272.91 197.748 275.17 198.216C276.857 198.564 279.096 198.669 280.619 199.515C281.948 200.254 282.69 201.047 284.34 201.262C286.018 201.48 287.741 201.296 289.427 201.285C293.986 201.254 298.536 201.169 303.074 200.687C319.11 198.984 336.108 192.201 345.75 178.74C348.372 175.079 350.485 171.023 351.821 166.719C352.863 163.358 354.659 158.623 353.752 155.095Z" fill="#302823"/>
<path fill-rule="evenodd" clip-rule="evenodd" d="M168.181 38.6748C165.328 39.5604 161.955 38.5184 160.315 35.9712C158.647 33.3812 157.505 30.3841 157.276 27.299C157.056 24.3429 157.727 21.35 159.471 18.9231C161.326 16.3416 165.107 13.448 168.496 14.3445C169.21 14.5336 169.856 14.9885 170.497 15.4401C171.176 15.9189 171.85 16.394 172.593 16.5424C172.784 16.5806 172.918 16.6166 173.018 16.643C173.153 16.6791 173.224 16.6984 173.288 16.6837C173.361 16.6669 173.424 16.6061 173.559 16.4757C173.636 16.4011 173.737 16.3038 173.876 16.1793C174.163 15.9231 174.44 15.5374 174.711 15.16C174.893 14.9063 175.073 14.656 175.251 14.4518C175.593 14.0589 175.935 13.6619 176.278 13.2639C178.483 10.7063 180.729 8.09951 183.424 6.07654C189.007 1.88486 196.427 -0.094915 203.353 0.00349316C207.567 0.0631586 211.517 1.31274 215.443 2.73334C215.773 2.85255 216.105 2.97087 216.437 3.08962L216.438 3.09004C219.592 4.21546 222.844 5.37628 225.37 7.63115C230.392 12.1163 231.7 19.5424 232.522 25.8956C233.412 32.7758 230.96 38.6949 228.42 44.8271V44.8279L228.419 44.8292V44.8296C228.032 45.763 227.644 46.7009 227.265 47.6477C224.579 54.356 219.651 59.7904 213.792 63.9314C210.723 66.1004 207.33 67.4098 203.782 68.5579C203.045 68.796 202.314 69.0509 201.583 69.3055H201.582C198.735 70.2967 195.897 71.2845 192.828 71.2799C186.97 71.2715 179.472 68.4895 176.977 62.7188C175.841 60.0911 176.947 59.6194 179.22 61.0475C179.617 61.2969 180.013 61.5489 180.408 61.8005V61.8009H180.408L180.41 61.8022C183.295 63.6395 186.162 65.466 189.55 66.274C197.024 68.0568 205.975 65.2949 212.528 61.6504C219.079 58.0072 223.477 52.5337 226.416 45.7189C229.381 38.8434 230.533 32.0684 229.39 24.6566C228.421 18.3751 226.493 12.6375 220.833 9.22783C208.613 1.86797 192.15 2.46097 181.283 12.0258C179.793 13.3369 178.32 14.6128 176.784 15.8652C175.808 16.6611 174.658 17.6158 174.8 18.9919C174.831 19.2955 175.021 19.8225 175.234 20.4133C175.848 22.1173 176.655 24.3551 174.408 23.319C173.482 22.8918 172.715 22.3102 171.96 21.737C170.715 20.7928 169.5 19.8712 167.651 19.7009C164.488 19.4091 160.716 21.8385 159.769 24.8964C158.867 27.8143 160.476 31.8064 162.996 33.4798C164.415 34.4215 165.962 34.3754 167.563 34.3276C167.724 34.323 167.885 34.3179 168.047 34.3142C168.171 34.3112 168.325 34.3033 168.5 34.294C169.577 34.237 171.457 34.1381 171.958 34.9376C172.988 36.5825 169.354 38.3113 168.181 38.6748ZM206.252 51.6909C206.788 50.6381 207.318 49.597 207.917 48.6561C208.195 48.2196 208.649 47.9181 209.084 47.6292H209.084C209.209 47.5462 209.333 47.464 209.45 47.3802C210.915 49.6637 209.468 52.1098 208.221 54.2163C208.076 54.4608 207.934 54.7006 207.8 54.935C207.405 55.6227 207.02 56.3388 206.632 57.0613C205.801 58.6047 204.956 60.1758 203.976 61.5569C201.587 64.923 196.389 61.2814 196.235 57.8218C196.117 55.1736 197.993 56.3262 199.197 57.3153C200.436 58.3342 201.023 58.5879 202.323 57.4751C204.069 55.9791 205.173 53.8109 206.252 51.6909ZM192.182 42.3629C192.708 38.8895 190.33 41.5868 189.821 43.1843C189.193 45.1554 188.674 47.9395 189.623 49.8955C191.367 53.4859 196.283 51.7748 198.649 49.8674C199.758 48.9731 201.313 47.1102 201.26 45.5575C201.168 42.856 199.087 44.4757 197.807 45.472H197.807C197.644 45.599 197.493 45.716 197.362 45.8124C197.309 45.8514 197.252 45.8929 197.193 45.9366C196.006 46.8137 193.646 48.5567 192.263 47.6942C190.992 46.9022 191.502 45.0208 191.903 43.5407C192.022 43.0992 192.132 42.6933 192.182 42.3629ZM199.216 28.3547C202.023 27.7958 205.639 28.0839 208.081 29.6755C211.228 31.7259 207.09 33.2022 205.298 33.3858C203.128 33.6072 200.354 33.754 198.361 32.6894C195.536 31.1804 196.478 28.9007 199.216 28.3547ZM167.164 23.1484C165.018 22.7312 162.022 23.8146 163.5 26.3673C164.603 28.2726 167.32 28.9137 169.446 29.4156C169.704 29.4763 169.954 29.5355 170.191 29.5942C172.555 30.1812 173.725 29.3158 172.911 26.7082C172.122 24.1844 169.479 23.5987 167.164 23.1484ZM211.984 49.8486C212.182 49.0238 213.334 45.9236 214.112 48.1995C214.231 48.5492 214.246 49.0624 214.261 49.6104C214.301 50.9953 214.346 52.605 216.108 52.371C217.017 52.2507 217.448 51.3383 217.847 50.493C218.045 50.0741 218.235 49.6716 218.471 49.3899C220.874 46.529 220.137 51.94 219.509 53.2943C218.126 56.2788 214.253 58.3355 212.332 54.5488C211.618 53.1404 211.621 51.3626 211.984 49.8486ZM221.029 37.8165C222.143 39.1109 224.001 41.269 225.22 39.7059C226.409 38.18 224.363 35.8156 223.342 34.637C223.298 34.5859 223.256 34.5368 223.215 34.4903C223.186 34.4563 223.155 34.4202 223.123 34.3821C222.2 33.3062 219.835 30.5476 218.634 32.6139C217.883 33.9074 219.645 36.3456 220.482 37.2018C220.631 37.354 220.816 37.5695 221.029 37.8165ZM188.293 63.2068C187.143 61.8861 187.263 59.4382 187.915 57.9099C188.446 56.6654 189.333 58.2059 189.848 59.0978C189.973 59.3154 190.076 59.494 190.147 59.5846C190.377 59.881 190.708 60.1556 191.048 60.4378C191.756 61.0257 192.503 61.6454 192.454 62.5557C192.335 64.7796 189.304 64.367 188.293 63.2068Z" fill="black"/>
<path fill-rule="evenodd" clip-rule="evenodd" d="M288.498 46.77C287.235 46.4275 285.975 46.0849 284.72 45.7323C281.802 44.9113 284.559 43.0639 286.293 43.1939C287.635 43.2941 288.946 43.7646 290.235 44.227C290.805 44.4312 291.371 44.6342 291.933 44.8031C297.542 46.4874 302.742 48.3294 307.982 50.9437C308.764 51.3341 312.207 53.1844 309.929 54.0037C308.733 54.4339 306.326 53.1391 304.641 52.2326C304.102 51.9429 303.638 51.693 303.309 51.5513C298.552 49.5001 293.512 48.1315 288.498 46.77ZM336.134 88.3405C317.37 76.6996 298.685 65.2978 277.463 58.6289C276.356 58.2818 276.013 57.2951 276.593 56.3178C277.204 55.2876 278.38 55.3253 279.421 55.3589L279.51 55.3618C282.256 55.4486 284.938 56.3157 287.535 57.1555L287.865 57.2624C293.803 59.1799 299.458 61.8399 305.035 64.6202C314.812 69.4932 324.22 75.3893 332.845 82.0934C334.647 83.4943 336.496 84.6297 338.456 85.7752C338.578 85.8465 338.705 85.9191 338.835 85.9937C340.045 86.6885 341.547 87.5497 341.983 88.9007C343.211 92.7028 337.014 88.8864 336.134 88.3405ZM33.1419 84.8805C26.2848 90.2151 19.584 95.7695 13.3848 101.858C11.1776 104.025 9.33818 106.505 7.50042 108.983C6.6589 110.117 5.81737 111.252 4.94105 112.355C4.84713 112.473 4.74356 112.612 4.63077 112.762C3.92544 113.702 2.87024 115.109 1.71899 114.953C0.253979 114.756 -0.0421701 112.233 0.0045392 111.131C0.164542 107.373 3.59642 103.744 6.04379 101.157C8.79687 98.2476 11.7403 95.4123 14.7462 92.7632C18.0557 89.8466 21.6474 87.3396 25.3074 84.8855C26.6449 83.9886 27.9615 83.0398 29.281 82.0892C31.5062 80.4863 33.7377 78.8787 36.0845 77.508C37.8451 76.4799 40.7684 76.0887 39.8103 79.1835C39.2506 80.9915 37.0522 82.3605 35.134 83.5551C34.3905 84.018 33.6895 84.4545 33.1419 84.8805ZM8.58136 77.4846C12.4414 76.2829 16.0205 74.4174 19.5996 72.552C21.9317 71.3365 24.2642 70.1209 26.6739 69.0895C28.4068 68.3473 30.1649 67.6685 31.9226 66.9896C33.5037 66.3787 35.0845 65.7682 36.6472 65.112C36.7944 65.05 36.9537 64.9913 37.1176 64.9305C37.9361 64.6278 38.8648 64.2839 38.9755 63.3196C39.1273 61.9845 38.3478 62.0244 37.3956 62.073C37.3344 62.0759 37.2719 62.0793 37.209 62.0818C35.0388 62.1795 32.744 63.1414 30.5754 64.0504C29.6802 64.4261 28.806 64.7925 27.9712 65.0852C27.2278 65.346 26.4835 65.6005 25.7397 65.8546C23.4101 66.6513 21.0872 67.4458 18.8151 68.4198C15.7919 69.7155 12.7047 71.0559 9.98222 72.921C9.88578 72.9872 9.78515 73.0547 9.682 73.1243C8.78052 73.731 7.68952 74.4656 7.29957 75.4678C6.90921 76.4682 7.12431 77.9386 8.58136 77.4846Z" fill="#302823"/>
<path fill-rule="evenodd" clip-rule="evenodd" d="M168.391 51.7119C168.756 50.6419 173.268 38.9427 171.502 38.5901C169.631 38.2157 167.131 45.0036 166.588 46.2301C164.585 50.7593 163.398 55.6189 162.468 60.4772C161.821 63.8601 161.252 67.3256 161.479 70.7839C161.653 73.4418 162.751 73.8443 164.559 75.4728C164.559 67.3998 165.786 59.3531 168.391 51.7119Z" fill="black"/>
</svg>
