<svg width="30" height="30" viewBox="0 0 30 30" fill="none" xmlns="http://www.w3.org/2000/svg">
<g id="Icon library=Default">
<path id="Vector" d="M13.5 3.75C12.9477 3.75 12.5 4.19772 12.5 4.75V21.5C12.5 22.0523 12.9477 22.5 13.5 22.5H14C14.5523 22.5 15 22.0523 15 21.5V4.75C15 4.19772 14.5523 3.75 14 3.75H13.5ZM16.0235 5.99412C15.4673 6.13317 15.1417 6.7104 15.3103 7.25835L19.7212 21.5941C19.8776 22.102 20.4039 22.399 20.9196 22.2701L21.4765 22.1309C22.0327 21.9918 22.3583 21.4146 22.1897 20.8666L17.7788 6.53095C17.6224 6.02295 17.0961 5.72598 16.5804 5.85489L16.0235 5.99412ZM8.5 6.25C7.94772 6.25 7.5 6.69772 7.5 7.25V21.5C7.5 22.0523 7.94772 22.5 8.5 22.5H9C9.55228 22.5 10 22.0523 10 21.5V7.25C10 6.69772 9.55228 6.25 9 6.25H8.5ZM4.75 23.75C4.19772 23.75 3.75 24.1977 3.75 24.75V25.25C3.75 25.8023 4.19772 26.25 4.75 26.25H25.25C25.8023 26.25 26.25 25.8023 26.25 25.25V24.75C26.25 24.1977 25.8023 23.75 25.25 23.75H4.75Z" fill="#E9DCD3"/>
</g>
</svg>
