<svg width="40" height="40" viewBox="0 0 40 40" fill="none" xmlns="http://www.w3.org/2000/svg">
<g id="Book">
<circle id="Ellipse 7" cx="20" cy="20" r="20" fill="#FCBA04"/>
<path id="Vector" d="M29 25.4375V11.1875C29 10.5311 28.4569 10 27.7857 10H15.0357V25.1406V26.0312H27.7857V28.4062H13.8214C13.1508 28.4062 12.6071 27.8745 12.6071 27.2188C12.6071 26.563 13.1508 26.0312 13.8214 26.0312H14.4286V25.1406V10H13.2143C12.5431 10 12 10.5311 12 11.1875V27.2188C12 28.2023 12.8157 29 13.8214 29H28.6964C28.8643 29 29 28.8673 29 28.7031C29 28.539 28.8643 28.4062 28.6964 28.4062H28.3929V26.0312C28.728 26.0312 29 25.7653 29 25.4375ZM17.7679 14.1562H21.4107C21.5786 14.1562 21.7143 14.289 21.7143 14.4531C21.7143 14.6173 21.5786 14.75 21.4107 14.75H17.7679C17.6 14.75 17.4643 14.6173 17.4643 14.4531C17.4643 14.289 17.6 14.1562 17.7679 14.1562ZM23.5357 18.3125H17.7679C17.6 18.3125 17.4643 18.1798 17.4643 18.0156C17.4643 17.8515 17.6 17.7188 17.7679 17.7188H23.5357C23.7036 17.7188 23.8393 17.8515 23.8393 18.0156C23.8393 18.1798 23.7036 18.3125 23.5357 18.3125ZM25.6607 16.5312H17.7679C17.6 16.5312 17.4643 16.3985 17.4643 16.2344C17.4643 16.0702 17.6 15.9375 17.7679 15.9375H25.6607C25.8286 15.9375 25.9643 16.0702 25.9643 16.2344C25.9643 16.3985 25.8286 16.5312 25.6607 16.5312Z" fill="#4F3C2E"/>
</g>
</svg>
