<svg width="30" height="30" viewBox="0 0 30 30" fill="none" xmlns="http://www.w3.org/2000/svg">
<g id="Icon scan">
<path id="Vector" d="M5 9C5 8.44772 5.44772 8 6 8H6.5C7.05228 8 7.5 8.44772 7.5 9V22C7.5 22.5523 7.05228 23 6.5 23H6C5.44772 23 5 22.5523 5 22V9ZM8.75 8.625C8.75 8.27982 9.02982 8 9.375 8C9.72018 8 10 8.27982 10 8.625V22.375C10 22.7202 9.72018 23 9.375 23C9.02982 23 8.75 22.7202 8.75 22.375V8.625ZM11.25 9C11.25 8.44772 11.6977 8 12.25 8H14C14.5523 8 15 8.44772 15 9V22C15 22.5523 14.5523 23 14 23H12.25C11.6977 23 11.25 22.5523 11.25 22V9ZM16.25 8.625C16.25 8.27982 16.5298 8 16.875 8C17.2202 8 17.5 8.27982 17.5 8.625V22.375C17.5 22.7202 17.2202 23 16.875 23C16.5298 23 16.25 22.7202 16.25 22.375V8.625ZM20 9C20 8.44772 20.4477 8 21 8H21.5C22.0523 8 22.5 8.44772 22.5 9V22C22.5 22.5523 22.0523 23 21.5 23H21C20.4477 23 20 22.5523 20 22V9ZM23.75 8.625C23.75 8.27982 24.0298 8 24.375 8C24.7202 8 25 8.27982 25 8.625V22.375C25 22.7202 24.7202 23 24.375 23C24.0298 23 23.75 22.7202 23.75 22.375V8.625ZM2.875 4.875C2.32272 4.875 1.875 5.32272 1.875 5.875V9.5625C1.875 10.0803 1.45527 10.5 0.9375 10.5C0.419733 10.5 0 10.0803 0 9.5625V5.5C0 4.83696 0.263392 4.20107 0.732233 3.73223C1.20107 3.26339 1.83696 3 2.5 3H6.5625C7.08027 3 7.5 3.41973 7.5 3.9375C7.5 4.45527 7.08027 4.875 6.5625 4.875H2.875ZM27.5 3C28.163 3 28.7989 3.26339 29.2678 3.73223C29.7366 4.20107 30 4.83696 30 5.5V9.5625C30 10.0803 29.5803 10.5 29.0625 10.5C28.5447 10.5 28.125 10.0803 28.125 9.5625V5.875C28.125 5.32272 27.6773 4.875 27.125 4.875H23.4375C22.9197 4.875 22.5 4.45527 22.5 3.9375C22.5 3.41973 22.9197 3 23.4375 3H27.5ZM0.9375 20.5C1.45527 20.5 1.875 20.9197 1.875 21.4375V25.125C1.875 25.6773 2.32272 26.125 2.875 26.125H6.5625C7.08027 26.125 7.5 26.5447 7.5 27.0625C7.5 27.5803 7.08027 28 6.5625 28H2.5C1.83696 28 1.20107 27.7366 0.732233 27.2678C0.263392 26.7989 0 26.163 0 25.5V21.4375C0 20.9197 0.419733 20.5 0.9375 20.5ZM27.125 26.125C27.6773 26.125 28.125 25.6773 28.125 25.125V21.4375C28.125 20.9197 28.5447 20.5 29.0625 20.5C29.5803 20.5 30 20.9197 30 21.4375V25.5C30 26.163 29.7366 26.7989 29.2678 27.2678C28.7989 27.7366 28.163 28 27.5 28H23.4375C22.9197 28 22.5 27.5803 22.5 27.0625C22.5 26.5447 22.9197 26.125 23.4375 26.125H27.125Z" fill="white"/>
</g>
</svg>
