<svg width="275" height="391" viewBox="0 0 275 391" fill="none" xmlns="http://www.w3.org/2000/svg">
<path fill-rule="evenodd" clip-rule="evenodd" d="M50.6026 285.086C50.6688 280.186 50.8097 275.287 50.9947 270.39C59.3493 269.638 67.7044 268.885 76.059 268.132C78.1926 267.94 80.3256 267.748 82.4586 267.556C84.7745 267.347 87.0899 267.138 89.4052 266.93C89.6461 266.908 89.971 266.903 90.3329 266.897C91.4866 266.878 93.0113 266.852 93.3545 266.273C93.8557 265.427 93.5992 263.196 93.405 261.504C93.3276 260.83 93.2603 260.242 93.2544 259.862C93.2211 257.753 93.1877 255.645 93.1544 253.536C93.1216 251.427 93.0882 249.319 93.0549 247.211L93.0543 247.178C92.8112 231.673 92.5682 216.169 92.3245 200.664C94.3252 200.73 96.3254 200.789 98.3256 200.845C99.6223 200.882 100.92 200.921 102.219 200.96C109.634 201.183 117.071 201.407 124.479 201.179C128.845 201.045 132.981 199.868 137.102 198.478C139.293 197.739 141.462 196.935 143.615 196.089C143.812 196.011 144.122 195.85 144.479 195.662C145.347 195.207 146.498 194.604 147.016 194.704C147.895 194.874 149.196 196.758 150.151 198.141C150.502 198.649 150.807 199.09 151.026 199.352C153.619 202.459 156.212 205.566 158.805 208.673L158.918 208.808C159.246 209.202 159.621 209.602 160.002 210.011C160.844 210.91 161.722 211.85 162.238 212.854C162.63 213.617 162.848 214.576 163.054 215.49C163.152 215.922 163.247 216.343 163.357 216.73C167.635 231.683 171.819 246.732 174.934 261.977C175.605 265.258 176.241 268.562 176.614 271.893C176.642 272.147 176.678 272.419 176.715 272.704C176.918 274.266 177.171 276.204 176.564 277.55C175.806 279.233 173.467 279.992 171.786 280.539C171.676 280.575 171.569 280.61 171.465 280.644C168.178 281.726 164.736 282.37 161.33 282.948C153.125 284.341 144.816 285.15 136.524 285.804C135.58 285.879 134.625 285.925 133.669 285.971C132.059 286.049 130.444 286.128 128.864 286.342C128.197 286.432 128.011 286.373 127.913 286.44C127.835 286.494 127.812 286.63 127.644 286.988C127.278 287.767 127.334 289.131 127.382 290.303C127.403 290.822 127.423 291.304 127.403 291.68C127.329 293.12 127.256 294.56 127.182 296C127.108 297.44 127.035 298.88 126.961 300.32C126.558 308.176 126.156 316.032 125.754 323.887C125.618 326.542 125.482 329.197 125.346 331.852C125.074 337.162 124.802 342.472 124.53 347.781C124.455 349.251 124.38 350.72 124.305 352.189C124.225 353.738 124.146 355.286 124.067 356.835C124.04 357.358 124.048 357.93 124.056 358.518C124.072 359.744 124.09 361.037 123.798 362.092C123.637 362.67 123.685 362.882 123.605 362.956C123.521 363.033 123.3 362.959 122.56 362.995C120.319 363.103 118.023 362.958 115.746 362.814C114.615 362.742 113.49 362.671 112.376 362.631C110.541 362.565 108.705 362.5 106.87 362.434C104.9 362.364 102.93 362.293 100.96 362.223C100.694 362.213 100.42 362.225 100.153 362.236C99.3254 362.27 98.552 362.301 98.2213 361.713C97.8448 361.043 97.9362 359.546 98.0093 358.35C98.04 357.853 98.0674 357.407 98.0561 357.096L97.7394 348.238L96.8697 323.924C96.6793 318.594 96.4884 313.266 96.298 307.936C96.0931 302.212 95.8876 296.487 95.6832 290.762C91.4543 291.613 87.2254 292.464 82.9965 293.315L82.9879 293.317C76.7351 294.576 70.4818 295.834 64.2285 297.092C63.4551 297.248 62.6424 297.457 61.8104 297.672C59.5558 298.253 57.1561 298.872 54.9935 298.561C52.0521 298.139 50.836 296.883 50.6709 294.091C50.5123 291.411 50.551 288.712 50.5897 286.026C50.594 285.713 50.5983 285.399 50.6026 285.086ZM135.933 237.636L134.883 235.614L134.426 237.846L129.98 259.591L129.769 260.627L130.824 260.558L146.038 259.55L147.269 259.468L146.7 258.373L135.933 237.636ZM131.773 258.878L135.551 240.401L144.7 258.021L131.773 258.878Z" fill="#FF5678"/>
<path fill-rule="evenodd" clip-rule="evenodd" d="M262.292 61.651C261.981 64.0697 262.202 66.7066 259.472 67.3445C256.945 67.935 254.173 67.7694 251.596 67.9759C248.701 68.2088 245.815 68.5261 242.926 68.8127C239.283 69.1736 239.803 67.7737 239.006 64.6629C238.279 61.8221 237.118 58.9872 236.152 56.2168C235.703 54.9293 235.166 53.7445 234.554 52.5311C234 51.4323 234.263 49.9383 233.666 49.0148C231.626 45.8642 221.681 54.4791 220.757 52.7812C222.44 51.4711 225.353 50.0049 225.868 47.7633C226.476 45.1285 224.801 44.3416 222.697 45.3049C217.521 47.6767 211.546 49.53 205.901 50.3943C207.726 49.174 224.242 39.5538 218.699 36.7002C217.45 36.0572 215.782 37.2678 214.655 37.7257C212.867 38.4529 210.999 38.9403 209.133 39.4167C207.166 39.9187 205.194 40.4016 203.217 40.858C201.83 41.1783 199.357 42.3158 198.006 42.0351C196.634 41.7498 199.065 40.898 199.462 40.6974C201.198 39.8231 202.905 38.8837 204.599 37.9324C207.604 36.2444 210.381 34.2891 212.666 31.6793C214.391 29.71 217.24 25.4097 216.039 22.6867C215.343 21.1083 213.818 19.6495 212.922 18.1542C211.876 16.4076 211.031 14.5459 210.123 12.7263C211.643 13.3949 213.35 13.566 214.902 14.1661C216.454 14.7666 218.031 15.2525 219.645 15.6989C222.885 16.5943 226.115 16.7534 229.325 17.4796C232.959 18.3013 236.745 19.2201 240.438 19.695C243.652 20.1079 246.542 20.9877 249.297 22.7403C254.921 26.3205 258.823 31.4636 260.796 37.8238C261.953 41.5496 262.234 45.4372 262.37 49.3138C262.514 53.4008 262.816 57.5819 262.292 61.651ZM230.726 61.9517C226.798 64.8151 222.219 67.0524 218.004 69.4883C215.592 70.8812 213.129 72.1838 210.669 73.4897C208.923 74.4164 206.802 76.1223 204.88 76.5978C203.664 76.8984 203.755 76.9216 202.986 75.8131C202.25 74.7547 201.608 73.615 200.92 72.5248C199.651 70.515 198.37 68.5126 197.089 66.5103C194.218 62.0221 191.352 57.5345 188.335 53.1416C185.308 48.7335 182.405 44.2443 179.472 39.774C178.109 37.6957 176.755 35.6093 175.309 33.588C174.204 32.0446 171.373 29.6905 172.718 27.8733C173.967 26.1854 176.812 24.7831 178.494 23.5054C180.551 21.9456 182.619 20.4017 184.67 18.8338C189.078 15.4633 193.371 11.9461 197.776 8.57106C201.514 15.1274 205.912 21.2739 210.347 27.3694C206.336 29.9292 202.284 32.3624 198.057 34.5538C194.935 36.1723 190.159 38.3593 188.187 41.4295C186.245 44.453 188.152 47.9408 191.615 47.9962C193.686 48.0295 195.75 47.4809 197.78 47.1679C199.245 46.9415 201.922 45.8852 203.243 46.6295C200.868 48.1451 192.251 52.5612 196.896 56.4336C200.216 59.2012 205.829 55.1622 209.416 55.9936C208.322 58.0917 207.186 61.4381 210.22 62.5788C212.745 63.5286 216.05 61.7586 218.323 60.8201C219.965 60.1419 221.597 59.4406 223.212 58.7005C224.495 58.1116 226.033 56.9182 227.405 56.6643C229.006 56.3674 232.265 60.8287 230.726 61.9517ZM157.71 216.576C159.957 216.166 161.111 215.237 161.819 217.966C162.453 220.41 163.081 222.764 163.898 225.163C160.388 225.466 157.291 227.142 154.731 229.5C152.909 231.179 149.283 235.189 150.182 238.002C152.365 244.839 163.393 229.502 164.704 227.864C166.308 230.208 166.898 233.278 167.695 235.96C168.263 237.868 170.37 241.526 167.585 241.99C163.676 242.641 156.343 244.097 156.807 249.633C157.354 256.167 165.667 256.13 170.33 256.424C172.959 256.589 172.972 258.696 173.346 261.053C173.513 262.108 174.036 263.533 173.141 264.305C172.346 264.99 169.911 265.009 168.877 265.231C165.861 265.878 162.846 266.538 159.831 267.185C156.407 267.92 154.597 266.891 151.396 265.953C150.211 265.606 149.021 265.752 148.934 264.426C148.88 263.612 149.677 262.353 149.938 261.548C150.971 258.362 151.851 255.082 152.147 251.737C152.579 246.876 152.039 239.588 146.054 238.64C143.207 238.188 142.659 238.041 141.374 235.369C139.983 232.479 137.776 229.803 138.31 226.474C138.695 224.062 138.044 219.497 139.584 217.496C140.295 216.571 141.683 216.02 142.63 215.341C143.837 214.475 144.999 213.548 146.124 212.579C147.07 211.764 148.223 210.171 149.295 209.583C150.606 208.863 150.646 209.354 151.587 210.477C152.976 212.137 155.185 217.037 157.71 216.576ZM164.061 227.376C163.283 228.947 161.483 230.409 160.336 231.721C159.183 233.041 158.092 234.435 156.806 235.631C155.39 236.948 150.362 240.128 151.47 235.848C152.332 232.519 155.557 229.822 158.396 228.16C158.946 227.838 165.379 224.716 164.061 227.376ZM169.562 243.226C170.06 245.454 170.329 247.751 170.754 249.996C170.972 251.143 172.179 253.915 171.687 255.019C170.854 256.89 163.352 254.675 161.797 254.032C158.095 252.499 156.396 248.566 159.81 245.764C161.104 244.703 169.063 240.998 169.562 243.226ZM174.48 269.99C174.898 272.117 176.119 274.09 174.099 275.698C172.421 277.033 169.673 277.944 167.605 278.42C164.787 279.067 163.881 277.489 162.39 275.458C160.786 273.274 159.078 271.164 157.307 269.114C162.87 267.868 168.432 266.623 173.996 265.378C173.992 266.928 174.181 268.471 174.48 269.99ZM161.15 279.863C158.249 279.713 155.128 280.586 152.186 280.816C148.511 281.103 144.848 281.52 141.17 281.767C142.112 278.761 143.804 276.08 145.128 273.24C146.456 270.391 147.389 270.082 150.444 269.863C153.275 269.659 155.272 268.685 157.361 271.087C159.535 273.584 161.503 276.299 163.488 278.946C162.813 279.398 162.006 279.908 161.15 279.863ZM140.413 280.477C139.697 280.998 137.49 279.516 136.746 279.229C135.3 278.669 134.978 278.489 134.223 277.078C133.575 275.865 132.542 274.486 132.339 273.1C132.071 271.274 132.879 268.87 133.173 267.056C133.957 268.945 136.527 269.164 138.265 269.473C139.579 269.707 143.472 269.334 144.462 270.27C145.557 271.304 143.542 274.187 143.017 275.273C142.39 276.569 141.616 279.6 140.413 280.477ZM139.011 281.975C138.149 282.114 135.67 282.971 135.72 281.398C135.776 279.6 139.186 281.539 139.011 281.975ZM134.642 281.881C134.485 283.394 131.229 283.268 131.154 281.937C131.027 279.688 134.892 279.464 134.642 281.881ZM130.918 241.07C130.086 243.442 125.015 244.29 123.068 245.02C121.289 245.687 115.977 248.764 114.143 247.648C120.35 243.382 126.711 239.201 131.971 233.753C132.186 235.099 131.858 236.223 131.461 237.497C131.103 238.646 131.287 240.02 130.918 241.07ZM129.375 249.717C128.482 255.526 127.605 261.41 126.396 267.16C124.093 266.456 122.193 265.03 119.773 264.533C117.565 264.08 115.284 264.068 113.057 264.4C108.312 265.105 104.082 267.452 99.9423 269.74C99.5599 265.757 98.7682 261.494 98.8618 257.497C98.9392 254.176 104.621 253.193 107.199 251.822C108.758 250.992 110.167 249.825 111.944 249.535C113.772 249.237 115.536 249.247 117.342 248.689C121.611 247.372 125.628 245.284 129.811 243.727C130.153 245.721 129.678 247.752 129.375 249.717ZM125.386 274.298C125.196 275.619 125.435 277.975 124.429 278.981C123.482 279.93 121.458 279.96 120.209 280.217C116.402 281 112.6 281.791 108.8 282.599C107.099 282.96 105.399 283.305 103.691 283.628C102.877 283.782 100.834 284.563 100.148 283.915C99.4975 283.3 99.9821 281.334 100.017 280.509C100.088 278.861 100.181 277.209 100.077 275.561C99.8788 272.399 100.055 271.189 102.997 269.553C106.123 267.816 109.351 266.626 112.869 265.982C116.432 265.33 119.825 265.686 123.216 267.054C124.16 267.434 125.575 267.903 126.014 268.92C126.611 270.305 125.587 272.896 125.386 274.298ZM121.101 325.255C119.706 326.13 116.67 325.981 115.067 326.159C112.48 326.445 109.875 326.282 107.305 325.882C105.369 325.582 102.481 325.166 100.999 323.807C98.8908 321.877 101.323 321.788 102.935 321.924C107.624 322.318 112.371 322.043 117.055 321.704C117.968 321.638 120.418 320.838 121.298 321.213C122.422 321.691 122.078 324.643 121.101 325.255ZM118.442 356.451C109.707 355.603 104.643 348.369 101.475 340.974C99.7745 337.004 100.388 332.839 100.22 328.64C100.19 327.874 99.7078 325.971 100.496 325.398C101.237 324.86 104.234 326.524 105.044 326.722C109.199 327.741 113.794 327.838 117.958 326.849C119.762 326.42 120.772 325.624 121.345 327.412C121.807 328.851 121.049 331.504 120.966 333.013C120.824 335.623 121.233 356.722 118.442 356.451ZM100.992 356.46C100.959 355.192 100.32 342.388 100.94 342.35C102.783 346.325 104.676 349.881 108.031 352.806C109.745 354.301 111.672 355.647 113.815 356.45C114.62 356.751 119.183 356.98 119.407 357.979C119.798 359.727 116.683 359.022 115.759 358.88C115.018 358.765 114.351 358.449 113.624 358.317C112.238 358.066 110.928 358.404 109.537 358.432C107.423 358.475 105.346 358.253 103.231 358.436C101.298 358.603 101.044 358.381 100.992 356.46ZM102.282 299.029C109.76 296.612 116.009 301.189 119.956 307.181C122.206 310.597 122.71 312.986 122.316 317.032C122.175 318.48 122.435 319.461 121.104 320.051C119.786 320.635 116.792 320.202 115.366 320.269C111.265 320.46 107.179 320.715 103.078 320.471C100.414 320.314 100.039 319.863 100.084 317.277C100.14 314.164 99.8804 311.065 99.7046 307.948C99.5136 304.574 98.3557 300.298 102.282 299.029ZM99.8347 294.546C99.839 292.258 99.7019 289.912 99.8417 287.628C99.981 285.364 100.944 285.476 103.082 285.09C107.71 284.253 112.332 283.317 116.898 282.182C118.704 281.734 120.745 280.873 122.626 280.866C124.601 280.859 124.496 281.874 124.364 283.622C124.071 287.494 123.362 291.308 123.146 295.16C122.913 299.317 122.791 303.527 122.81 307.688C122.817 309.093 123.158 310.133 121.96 308.819C120.762 307.502 120.175 305.404 119.104 303.924C116.911 300.893 113.652 298.456 110.036 297.429C108.036 296.862 105.933 296.764 103.894 297.174C103.275 297.299 100.177 298.778 99.7826 298.486C99.5158 298.288 99.8342 294.638 99.8347 294.546ZM127.192 373.813C130.158 375.937 133.442 377.653 136.767 379.143C138.638 379.981 146.044 381.745 146.28 383.632C146.407 384.638 145.179 385.766 144.375 385.885C143.356 386.036 141.675 385.37 140.637 385.244C136.86 384.786 133.091 384.783 129.405 383.731C122.047 381.631 114.418 381.04 106.984 379.209C105.215 378.774 103.442 378.366 101.664 377.971C99.9756 377.596 99.2189 377.661 99.1592 375.856C99.028 371.895 100.164 367.837 100.173 363.827C106.188 364.513 112.222 364.504 118.253 365.069C120.837 365.311 120.777 365.801 121.91 368.059C123.086 370.402 125.085 372.304 127.192 373.813ZM97.8668 245.125C97.791 243.659 97.7313 242.189 97.599 240.726C97.5097 239.744 96.6121 236.998 97.1182 236.233C97.7195 235.324 98.3251 235.879 99.4007 235.853C100.818 235.82 102.006 235.25 103.175 234.504C105.389 233.091 107.036 231.232 108.473 229.062C109.737 227.153 109.502 224.544 109.487 222.257C109.446 216.344 109.877 210.577 109.516 204.638C109.35 201.91 111.679 203.583 113.56 203.937C116.635 204.514 119.978 204.114 123.104 204.122C122.988 204.849 116.596 206.654 115.563 207.341C112.92 209.099 111.378 211.912 111.619 215.119C112.104 221.571 119.21 222.649 124.402 222.662C120.094 226.471 115.864 230.102 112.478 234.801C109.982 238.265 105.585 245.096 109.666 248.929C106.059 250.978 102.484 253.257 98.4036 254.243C98.2207 251.204 98.0249 248.165 97.8668 245.125ZM96.2291 127.352C97.6979 128.296 98.3154 126.962 99.433 126.271C101.007 125.298 101.528 125.394 101.728 123.22C102.097 119.189 100.402 115.54 98.2723 112.242C97.3048 110.742 96.3394 108.957 94.9733 107.785C93.7283 106.716 92.4692 107.084 91.3156 105.979C90.8627 105.545 90.9595 104.932 90.2109 104.949C89.7177 104.961 88.5194 106.489 88.1123 106.826C86.8258 107.891 85.2521 108.701 83.5666 107.823C81.1119 106.545 81.8998 101.906 83.8064 100.403C85.2747 99.2457 87.0097 99.4248 88.6807 99.2376C89.9339 99.0983 90.1947 99.1526 89.6795 97.7182C89.3181 96.7141 88.485 95.9305 88.0735 94.9479C87.2829 93.0617 87.455 90.7695 87.1135 88.7731C86.807 86.9843 86.0895 85.0497 86.1153 83.2329C86.1497 80.9198 86.9054 80.319 88.9093 79.6704C90.8509 79.0422 92.459 77.6573 94.1128 76.494C95.9844 75.1768 98.0346 74.3072 99.9584 73.1046C101.264 72.2876 102.107 70.6365 103.543 71.4078C105.25 72.3242 107.054 74.9773 108.505 76.3326C106.382 77.6804 105.888 78.2699 106.181 80.9085C106.449 83.3271 106.942 85.4827 108.791 87.1677C109.501 87.8152 110.826 88.3337 111.376 89.0802C112.019 89.9499 111.601 89.1835 111.52 90.165C111.477 90.6947 111.058 91.0411 111.149 91.6532C111.557 94.3713 114.679 92.767 115.966 91.8226C120.564 88.4488 111.979 85.7693 109.94 84.5404C108.532 83.6906 107.835 80.9805 110.066 81.7007C111.551 82.1793 114.903 86.2399 115.243 82.5386C118.923 84.6765 121.195 89.2179 124.28 92.0893C126.505 94.1605 129.494 96.4576 127.728 99.7647C125.477 103.981 121.014 105.894 116.94 107.713C112.988 109.477 113.809 114.47 115.921 117.526C117.142 119.292 118.742 120.327 120.667 121.186C122.634 122.063 123.042 123.093 123.472 125.128C123.949 127.385 123.442 128.295 121.488 129.461C119.579 130.6 117.585 131.703 115.547 132.594C111.142 134.522 106.572 134.644 101.887 135.3C100.245 135.531 98.6698 136.01 97.7738 134.382C96.7664 132.55 96.6922 129.395 96.2291 127.352ZM95.5208 118.585C94.4183 118.003 91.7566 119.934 90.3625 120.019C88.1074 120.155 86.6273 120.104 84.6255 121.3C80.8414 123.561 77.7016 126.472 74.6671 129.629C71.2498 133.184 67.8518 136.759 64.4457 140.325C62.9016 141.94 61.35 143.547 59.7823 145.138C58.5463 146.392 57.3378 148.156 55.8083 149.051C55.8879 147.988 56.5397 147.235 56.771 146.25C56.9054 145.674 56.6704 145.185 56.7575 144.633C56.786 144.454 57.2668 143.832 57.34 143.628C57.5352 143.089 57.774 142.556 58.0058 141.996C58.222 141.474 58.1903 140.933 58.4097 140.387C58.6351 139.825 59.253 139.452 59.4671 138.899C60.0953 137.277 59.0557 136.525 57.3932 136.563C58.0435 133.319 58.328 131.732 61.7201 130.588C64.961 129.495 68.1272 128.268 71.104 126.56C73.7475 125.044 75.9525 122.858 78.4938 121.168C80.7688 119.655 83.601 118.069 83.5773 114.966C84.867 115.841 86.076 116.577 87.5513 115.706C88.7969 114.971 88.962 114.378 90.4018 114.24C91.577 114.127 92.3052 114.097 93.3539 114.614C94.5882 115.222 94.7566 115.645 95.4756 113.855C96.2926 114.543 98.3573 117.406 98.2885 118.54C98.2508 119.165 98.1562 119.446 97.3822 119.611C96.2851 119.844 96.3276 119.01 95.5208 118.585ZM90.3792 288.084C89.8424 288.906 87.5803 288.754 86.7069 288.743C84.0441 288.708 83.1132 286.474 81.945 284.314C80.103 280.909 77.3504 273.838 80.3719 270.264C82.7571 267.444 87.4023 270.997 89.0298 273.127C90.4346 274.968 90.0172 277.727 90.1479 279.935C90.2582 281.796 91.4393 286.461 90.3792 288.084ZM83.1046 289.317C82.0397 290.381 78.5847 290.156 77.174 290.385C74.6564 290.792 72.1528 291.282 69.71 292.026C67.8916 292.579 66.0942 294.068 65.615 291.534C65.2122 289.403 65.4128 286.847 65.451 284.696C65.4924 282.375 65.7355 280.084 65.9371 277.774C66.0738 276.212 65.7317 273.337 67.0074 272.138C68.1062 271.105 70.7787 271.005 72.2055 270.663C74.5488 270.101 76.997 269.363 79.4323 269.615C78.0113 273.471 77.8909 277.516 79.4145 281.36C79.8491 282.457 83.7618 288.659 83.1046 289.317ZM65.1982 273.952C64.6044 279.753 64.0074 285.591 64.5791 291.422C64.6136 291.77 65.0293 293.363 64.8486 293.612C64.662 293.871 63.1829 294.004 62.8473 294.083C61.5141 294.399 60.1824 294.734 58.8405 295.016C56.2288 295.561 55.8879 293.911 55.3753 291.491C54.2776 286.304 56.4058 280.681 57.6955 275.701C58.3237 273.275 58.7889 272.995 61.1741 272.794C62.8339 272.655 65.4504 271.486 65.1982 273.952ZM55.1129 295.596C54.1146 296.504 53.117 292.221 53.0288 291.784C52.6803 290.051 52.8744 288.293 52.8793 286.532C52.8879 283.782 52.6776 281.045 52.6733 278.308C52.6711 276.827 51.5616 273.801 53.3138 273.017C53.828 272.788 55.8701 272.883 56.3332 273.186C57.2959 273.814 56.9167 274.222 56.6311 275.315C55.9927 277.77 55.4404 280.236 54.8843 282.71C54.3389 285.136 53.8006 287.471 54.0603 289.977C54.1458 290.805 55.7486 295.018 55.1129 295.596ZM86.9436 268.564C89.3767 267.878 89.5068 269.743 89.5025 271.527C89.132 271.243 85.6743 268.922 86.9436 268.564ZM54.3981 137.604C53.8016 138.587 50.0256 138.855 48.9467 139.114C46.8239 139.622 44.7 140.127 42.5826 140.657C38.6161 141.648 34.747 142.767 30.6805 143.286C32.9135 139.711 33.6084 136.624 33.1927 132.162C32.6688 126.529 32.0024 120.953 30.7057 115.44C29.4273 110.002 27.9472 104.601 26.5215 99.2005C25.8212 96.5468 25.0639 93.9443 24.1324 91.3622C23.3859 89.2932 22.2194 86.6879 23.487 84.5668C26.7032 86.9133 29.2832 89.4416 31.1177 93.0063C33.0829 96.8276 34.7992 100.75 37.0801 104.407C38.1229 106.078 39.3411 107.602 40.4565 109.22C41.1202 110.183 41.6037 111.572 42.4492 112.384C43.4237 113.32 44.4628 113.762 45.02 112.182C45.6175 110.487 43.7109 107.133 43.1484 105.541C41.7893 101.698 40.442 97.8629 39.3938 93.9212C38.5462 90.7345 37.1446 86.8821 37.6405 83.5201C38.1315 80.1915 40.3899 82.5741 41.5327 84.1214C43.8884 87.3118 45.2991 91.0304 46.847 94.6472C48.2696 97.9699 49.9287 101.138 51.503 104.384C52.0505 105.513 52.7722 108.431 54.2066 108.767C56.2918 109.256 56.1154 106.319 55.9158 105.128C54.5944 97.2288 51.1448 89.6659 50.4289 81.6302C50.3945 81.2462 49.8959 78.2607 50.2971 78.0112C51.0743 77.5277 52.1231 80.5567 52.4581 81.2989C54.2028 85.1589 55.4173 89.2281 56.5322 93.3054C57.4804 96.7733 58.3377 100.267 59.4015 103.702C59.9861 105.59 60.6562 107.446 61.3172 109.309C61.9147 110.996 62.5214 113.879 64.08 114.991C66.2916 116.567 74.2046 112.818 75.0065 116.17C75.5771 118.553 68.2396 120.472 66.6767 121.195C64.6195 122.147 62.6016 123.19 60.5433 124.144C58.9852 124.865 56.7457 125.161 55.6184 126.518C54.4244 127.955 54.233 129.974 54.1975 131.758C54.17 133.108 55.1053 136.439 54.3981 137.604ZM49.3968 163.621C49.2925 164.369 48.6971 165.361 48.4293 166.074C47.8845 167.525 47.4209 169.26 46.6625 170.616C46.0107 171.784 45.048 172.829 44.4176 174.014C43.8201 175.139 43.7405 176.437 43.0424 177.563C42.2432 178.85 40.9228 179.776 40.1295 181.055C39.7385 181.686 39.3346 182.407 38.7823 183.079C36.8257 185.46 34.883 187.706 33.3094 190.256C32.9071 190.909 30.9413 193.759 30.1593 193.913C28.5238 194.234 30.4272 191.91 30.7472 191.429C33.0641 187.952 35.1218 184.291 37.3581 180.76C39.5245 177.341 41.7414 173.948 43.826 170.478C45.5266 167.648 46.7023 163.586 49.4657 161.593C49.4759 162.27 49.4538 162.946 49.3968 163.621ZM124.948 131.664C126.294 137.197 127.903 142.558 129.421 148.042C130.829 153.13 132.702 158.575 133.286 163.82C133.864 169.016 135.192 174.274 136.979 179.205C137.804 181.487 138.654 183.778 139.551 186.034C140.043 187.273 140.593 188.484 141.153 189.694C141.587 190.634 142.733 192.157 142.777 193.153C142.812 193.951 143.089 193.632 142.302 194.232C141.487 194.852 140.074 194.627 139.125 194.736C136.648 195.023 134.233 195.954 131.819 196.558C127.162 197.722 121.612 198.646 116.84 197.836C114.833 197.495 112.748 197.199 110.764 196.756C108.322 196.209 107.82 195.199 107.319 192.799C106.222 187.551 105.279 182.318 104.373 177.036C103.297 170.752 102.132 164.476 101.302 158.154C100.463 151.758 99.8605 145.356 98.5461 139.03C103.849 139.917 108.842 140.918 114.159 139.465C118.868 138.179 122.268 135.664 124.948 131.664ZM145.703 200.165C146.889 202.608 144.032 204.804 142.647 206.686C140.821 209.167 139.116 211.758 136.992 214.001C136.355 211.452 135.796 208.583 134.096 206.489C131.925 203.816 129.39 204.908 126.731 203.643C129.52 202.286 133.082 202.804 136.041 201.594C138.96 200.401 141.907 199.464 144.623 197.913C144.984 198.663 145.34 199.416 145.703 200.165ZM135.358 257.165C133.575 257.264 134.768 253.504 134.884 252.57C135.202 250.002 135.524 247.434 135.803 244.861C137.274 248.74 138.744 252.619 140.215 256.498C138.599 256.728 136.993 257.074 135.358 257.165ZM132.458 275.76C132.701 276.3 133.836 278.101 132.94 278.434C131.713 278.889 131.565 275.905 132.458 275.76ZM130.331 233.972C124.652 238.507 119.011 243.053 112.866 246.957C111.52 247.812 110.164 248.17 109.271 246.474C108.571 245.14 109.311 243.638 109.761 242.332C110.909 239.004 112.907 236.11 115.122 233.401C119.546 227.991 124.811 223.371 131.529 221.238C132.628 220.889 134.325 219.835 134.71 221.29C134.937 222.145 133.977 224.281 133.782 225.084C132.98 228.399 133.155 231.719 130.331 233.972ZM146.68 267.042C146.805 270.892 136.279 267.787 134.968 267.099C136.344 266.637 146.623 265.311 146.68 267.042ZM150.588 267.066C151.214 267.233 153.612 267.444 152.717 268.264C151.915 268.998 148.283 268.703 147.32 268.794C147.967 266.669 148.459 266.499 150.588 267.066ZM148.639 261.909C148.403 262.765 148.307 264.072 147.54 264.659C146.583 265.391 144.551 264.946 143.468 264.952C141.629 264.962 139.792 265.056 137.962 265.239C137.262 265.308 134.426 266.163 133.769 265.58C133.288 265.152 133.467 263.142 133.818 262.691C134.539 261.762 136.199 262.084 137.239 262.047C141.045 261.911 144.83 261.899 148.639 261.909ZM146.195 247.677C145.658 246.878 145.562 246.887 145.333 245.681C145.087 244.39 144.465 243.286 144.098 242.039C143.292 239.295 145.867 239.538 147.757 240.544C152.657 243.155 151.474 252.278 150.262 256.549C148.5 255.253 147.85 254.666 147.244 252.576C147.014 251.781 146.755 251.001 146.516 250.212C146.339 249.63 146.462 248.074 146.195 247.677ZM146.619 203.277C147.987 203.112 149.239 207.357 148.848 208.276C148.048 210.155 144.992 211.834 143.435 213.033C142.398 213.832 141.369 214.747 140.261 215.444C139.233 216.09 138.641 215.727 137.684 216.037C136.3 216.485 135.965 217.95 134.549 218.579C132.556 219.465 130.14 219.713 128.058 220.513C125.533 221.483 123.217 221.509 120.569 221.049C116.761 220.388 112.296 218.499 112.64 213.871C113.245 205.706 129.46 201.522 133.883 208.445C135.034 210.247 135.016 212.348 135.763 214.283C136.573 216.378 137.357 215.555 138.575 214.012C140.167 211.993 141.647 209.866 143.177 207.799C143.672 207.131 145.632 203.398 146.619 203.277ZM47.2434 282.777C47.1654 284.166 47.2488 285.575 46.7658 286.9C46.2791 288.236 45.2927 289.316 44.7247 290.615C43.5727 293.247 43.5813 296.431 43.6276 299.251C43.7346 305.812 45.2884 312.185 46.1102 318.668C43.3748 318.662 40.5469 318.692 37.896 317.91C35.5279 317.212 35.1498 315.481 34.4802 313.3C32.5994 307.175 30.5686 301.076 29.9614 294.661C29.6726 291.604 29.551 288.522 29.4128 285.456C29.2923 282.765 29.8963 281.592 32.3246 280.26C37.6034 277.365 43.0752 274.954 48.2997 271.921C47.7656 275.519 47.4467 279.146 47.2434 282.777ZM272.59 67.7984C271.305 67.5623 270.007 67.4149 268.711 67.26C268.034 67.1794 265.925 67.2918 265.419 66.8508C264.816 66.3258 265.86 62.3567 265.913 61.5048C266.239 56.383 265.86 51.1027 265.39 46.0003C264.54 36.7629 261.635 28.2052 254.933 21.5537C251.596 18.2427 247.846 15.6159 243.29 14.3482C240.635 13.6096 237.9 13.2157 235.24 12.4996C233.094 11.9211 231.091 11.259 228.862 11.0297C224.415 10.5724 220.351 8.89236 216.012 7.92045C212.819 7.20536 207.685 5.50932 205.615 9.11405C203.986 7.20332 202.347 5.76856 200.292 4.34326C198.324 2.97805 198.003 1.61433 195.593 3.19076C190.91 6.254 186.524 9.99082 182.151 13.4759C178.066 16.7309 174.113 20.1394 169.832 23.1326C165.466 26.1858 166.294 31.367 168.347 35.6623C172.211 43.7473 178.169 50.6589 183.384 57.5888C186.651 61.9302 189.929 66.2774 193.183 70.6274C196.293 74.7848 198.984 79.5967 202.619 83.3319C204.911 85.6865 207.646 82.6075 209.714 81.1849C212.282 79.4176 214.804 77.5847 217.374 75.8228C222.726 72.1526 228.453 68.7149 234.104 65.5202C234.515 66.6851 234.925 67.85 235.336 69.0155C234.096 69.1085 232.419 68.831 231.788 70.1654C230.885 72.0709 233.099 72.321 233.487 73.4138C233.834 74.3895 232.413 76.9667 231.992 77.8461C231.047 79.8274 229.726 81.5356 228.271 83.1663C222.517 89.6207 215.235 94.2374 207.847 98.6379C199.94 103.346 191.466 106.221 182.811 109.255C178.409 110.797 173.841 111.514 169.299 112.501C164.922 113.453 160.549 114.704 156.077 115.063C146.928 115.797 137.219 116.347 128.179 114.374C127.19 114.159 126.143 113.691 125.136 113.602C124.329 113.53 123.731 113.869 122.97 113.912C121.334 114.006 120.396 112.543 119.097 113.902C118.447 114.582 118.435 115.723 117.529 114.454C116.377 112.84 119.323 112.528 120.415 112.069C124.09 110.52 127.045 107.403 129.381 104.252C131.714 101.104 132.05 97.7414 130.629 94.0551C129.208 90.3704 125.977 87.8728 123.552 84.8803C122.379 83.4314 121.299 81.8986 120.011 80.546C119.323 79.8237 118.214 79.132 118.171 78.4033C118.121 77.5562 118.629 77.1356 118.325 76.1062C118.247 75.8384 117.911 75.6862 117.839 75.392C117.726 74.923 117.901 74.5207 117.842 74.0635C117.706 73.0159 117.295 72.3576 116.713 71.4992C116.351 70.9624 115.821 69.8884 115.322 69.4866C114.448 68.7821 113.256 69.0693 112.368 68.355C110.962 67.2256 110.468 64.8457 109.224 63.4743C107.473 61.5446 107.099 63.4942 105.244 62.8794C103.658 62.3529 103.676 59.966 102.395 59.1588C100.589 58.0218 99.0689 60.1139 97.4656 60.5797C95.3562 61.1928 96.1668 58.8129 94.2865 58.5962C92.5891 58.4004 90.2372 61.8441 89.3907 63.0671C88.528 62.0619 87.5846 60.349 86.0325 60.9626C84.4034 61.6069 84.1135 64.6059 82.9228 65.6756C82.5076 66.0478 82.5952 66.3221 82.0848 66.4936C81.4255 66.7141 80.5472 65.7574 79.6947 66.0489C77.9753 66.6378 78.1851 68.9321 78.1818 70.4187C76.1532 70.1224 74.7381 69.9712 74.0589 72.1575C73.3941 74.2975 73.1419 73.3531 71.0029 74.0485C69.1593 74.6471 68.9011 76.3982 68.5967 78.1107C68.4085 79.1756 68.5827 79.6107 68.8694 80.5815C69.2308 81.8045 69.2308 81.7894 68.6413 82.9565C67.6146 84.9938 67.5533 87.2376 67.3893 89.4793C67.215 91.871 66.7966 94.0486 67.4764 96.385C67.8965 97.8306 67.9287 99.798 69.3448 100.607C69.9063 100.929 70.8604 100.753 71.3385 101.071C72.2507 101.679 71.9732 102.603 72.5809 103.491C73.0359 104.155 73.7706 104.219 74.2804 104.757C74.8349 105.344 74.8683 106.057 75.184 106.773C76.1187 108.89 76.9981 109.915 73.9508 110.036C72.0705 110.111 70.065 110.674 68.1923 110.501C65.9829 110.298 65.4332 109.063 64.7297 107.182C61.1849 97.7042 59.2799 87.4318 54.6116 78.4194C53.5865 76.4402 49.3791 68.3561 47.6005 74.2464C46.101 79.2143 48.0684 85.2772 48.823 90.222C46.456 88.089 45.5804 84.2462 43.783 81.6415C42.4556 79.7172 38.2988 74.9918 35.8619 77.6998C33.9418 79.8339 34.4216 84.3597 34.776 86.9111C35.3359 90.9481 36.6261 94.8382 37.5474 98.7976C36.3873 97.2799 35.8151 95.4271 35.01 93.7184C34.0005 91.5757 32.7409 89.5427 31.3054 87.6598C30.0512 86.0146 28.6486 84.485 27.1276 83.0824C25.9653 82.0094 23.884 79.6612 22.2334 79.5343C17.9851 79.2084 19.321 87.001 19.968 89.2286C21.3094 93.8464 22.7631 98.3367 23.8044 103.047C25.8395 112.25 28.3043 121.241 29.8038 130.562C30.1356 132.628 30.5353 134.278 29.7183 136.264C28.9976 138.014 28.2506 140.107 26.9216 141.453C23.9135 144.5 21.4159 147.754 19.1672 151.426C16.7588 155.358 14.2795 159.336 12.3137 163.511C11.4096 165.432 10.6701 167.509 9.63101 169.357C8.69305 171.024 7.56577 172.342 6.89886 174.188C3.71278 183.009 1.35388 191.676 0.273922 201.017C-0.612954 208.686 0.213145 218.888 9.47236 220.682C13.726 221.507 17.5451 219.62 21.3809 218.063C25.3479 216.454 28.2167 213.836 31.4522 211.054C35.473 207.598 39.6476 204.356 43.7109 200.957C47.7764 197.557 51.5315 193.785 55.5748 190.349C59.5682 186.953 63.1813 183.347 66.6347 179.404C70.0612 175.492 72.8439 171.159 76.1607 167.192C76.1483 172.328 75.3862 177.416 75.1722 182.544C74.9769 187.246 74.9721 191.943 75.1619 196.642C75.3518 201.339 74.111 205.81 74.1008 210.496C74.09 215.068 73.9088 219.613 73.8088 224.18C73.7641 226.228 73.3624 228.526 74.1277 230.503C74.6994 231.979 76.4958 232.44 78.0286 232.837C80.3971 233.452 87.5228 232.268 88.5807 234.799C89.1583 236.179 88.5764 238.693 88.6216 240.219C88.6969 242.733 88.7888 245.247 88.8749 247.761C88.9642 250.357 89.0508 252.954 89.1454 255.549C89.2293 257.837 89.6741 260.385 89.3987 262.649C89.1626 264.59 88.0311 264.336 86.2374 264.436C83.5305 264.585 80.8231 264.706 78.1146 264.824C74.1417 264.998 69.9961 264.918 66.1872 265.387C64.5877 265.584 62.8398 265.5 61.1526 265.821C59.0363 266.224 57.0818 266.326 54.9354 266.432C53.2052 266.518 50.9807 266.392 49.6211 267.671C49.15 268.115 49.044 268.644 48.71 269.138C48.0835 270.064 48.432 269.82 47.4042 270.028C43.3909 270.841 39.5794 271.758 35.6548 273.126C33.6902 273.811 31.8675 274.73 29.8936 275.374C28.164 275.939 26.8963 276.634 26.0412 278.332C24.5138 281.364 24.9005 285.752 25.0112 289.02C25.1855 294.12 26.3182 298.974 27.5396 303.905C28.8104 309.036 29.807 314.303 32.2794 319.016C33.0916 320.565 33.9687 322.541 35.6279 323.348C37.7701 324.39 41.0648 323.759 43.4028 323.762C44.9716 323.765 49.1747 324.304 50.3477 322.988C51.4831 321.714 50.3407 318.121 50.1805 316.54C49.6184 310.999 48.6068 305.407 48.6202 299.829C49.9002 301.72 52.1193 304.984 54.3405 302.087C54.887 301.374 54.6735 301.042 55.6442 300.629C56.181 300.4 57.3131 300.26 57.8977 300.3C58.6932 300.353 58.9874 300.673 59.7177 300.516C60.3647 300.378 61.0919 299.798 61.8335 299.623C71.0271 297.437 80.167 295.082 89.3998 293.136C91.841 292.621 91.4941 294.495 91.6555 296.605C91.8335 298.94 91.4936 301.297 91.8174 303.605C92.0992 305.613 92.3186 307.571 91.9217 309.591C91.4538 311.974 91.755 313.962 92.2213 316.322C94.0171 325.421 93.696 335.29 94.101 344.539C94.3118 349.355 93.8595 354.273 94.3123 359.064C94.4834 360.874 95.4934 361.874 95.9027 363.52C96.3727 365.41 95.0911 367.816 94.7012 369.648C93.9176 373.323 92.5413 378.584 95.0588 381.782C96.4185 383.509 98.2008 383.76 100.213 384.343C102.622 385.042 104.996 385.857 107.416 386.519C116.258 388.939 125.813 389.413 134.875 390.747C137.094 391.073 139.152 391.042 141.385 390.888C142.762 390.792 146.152 391.245 147.297 390.421C147.91 389.981 147.6 389.428 147.911 388.889C148.354 388.124 148.89 387.813 149.644 387.336C150.892 386.547 152.336 386.086 152.547 384.458C153.062 380.469 148.077 378.356 145.412 376.631C142.005 374.426 137.891 373.575 134.276 371.775C132.282 370.782 130.357 369.657 128.436 368.531C127.603 368.042 125.913 367.489 125.333 366.72C124.74 365.936 125.32 364.815 125.565 363.694C126.579 359.06 126.236 354.322 126.76 349.639C127.284 344.949 127.142 340.23 127.314 335.516C127.492 330.661 127.894 325.818 128.201 320.97C128.485 316.493 128.77 311.943 128.818 307.461C128.862 303.305 129.429 299.227 129.563 295.044C129.609 293.624 129.354 291.049 130.297 289.846C131.123 288.791 133.861 288.924 135.138 288.739C138.579 288.239 141.855 287.801 145.257 287.5C153.354 286.784 162.364 286.256 170.02 283.434C173.178 282.27 177.379 280.68 178.427 277.055C179.631 272.887 178.059 267.764 178.007 263.503C177.951 258.953 176.632 254.515 175.643 250.106C174.578 245.36 173.907 240.533 172.756 235.805C171.701 231.467 169.988 227.625 168.368 223.506C167.711 221.836 163.97 216.079 165.131 214.66C165.756 213.895 168.007 213.702 168.921 213.351C170.89 212.598 172.863 211.742 174.679 210.669C177.103 209.236 182.411 206.866 182.656 203.682C182.889 200.64 179.899 197.565 178.379 195.176C175.931 191.325 172.842 187.96 170.51 184.033C165.797 176.098 162.049 167.407 158.613 158.855C156.816 154.381 156.229 150.169 155.933 145.393C161.152 145.406 166.465 146.048 171.651 145.318C177.296 144.524 182.948 143.186 188.543 142.083C198.732 140.075 208.514 137.807 217.953 133.285C226.792 129.051 235.761 124.416 243.079 117.695C246.863 114.219 250.723 110.677 253.99 106.703C257.347 102.62 259.873 97.9812 262.463 93.3979C265.321 88.3385 267.596 83.0216 269.395 77.4879C269.757 76.3751 269.759 74.9585 270.222 73.9076C270.745 72.7211 271.695 72.6899 272.688 72.065C274.084 71.1856 275.013 68.2432 272.59 67.7984Z" fill="#302823"/>
<path fill-rule="evenodd" clip-rule="evenodd" d="M151.07 11.165C152.263 12.19 157.406 15.8007 159.067 14.9228C161.116 13.839 157.872 10.5741 156.998 9.76923C155.886 8.74521 151.914 5.64728 150.393 5.93485C147.352 6.51001 149.996 10.2424 151.07 11.165Z" fill="#302823"/>
<path fill-rule="evenodd" clip-rule="evenodd" d="M153.61 48.2226C154.284 46.8958 156.077 46.408 156.906 45.1242C157.904 43.5806 158.362 42.2298 157.994 40.337C155.441 41.1964 152.536 43.7979 150.828 45.8319C149.4 47.532 147.372 51.0844 151.098 51.0935C151.066 50.5879 151.033 50.0813 151 49.5763C152.118 49.7387 153.103 49.2224 153.61 48.2226Z" fill="#302823"/>
<path fill-rule="evenodd" clip-rule="evenodd" d="M141.447 26.1479C143.093 26.621 144.451 26.554 146.133 26.591C147.353 26.6182 149.021 27.289 150.01 26.5329C149.133 26.0247 150.242 25.9966 150.024 25.501C149.842 25.0878 149.496 25.2232 149.214 24.8887C148.209 23.697 147.336 23.7116 145.743 23.4637C144.508 23.2708 142.693 22.8258 141.507 23.4394C140.258 24.0854 139.775 25.6673 141.447 26.1479Z" fill="#302823"/>
<path fill-rule="evenodd" clip-rule="evenodd" d="M164.877 62.6993C165.942 61.8065 167.102 59.2217 167.317 57.8879C167.402 57.3651 167.025 56.965 167.07 56.5804C167.156 55.8474 168.662 54.4307 167.084 53.8294C165.704 53.3029 164.407 57.3925 164.057 58.2848C163.697 59.1975 162.717 60.9755 163.017 61.8581C163.267 62.5906 164.158 63.3016 164.877 62.6993Z" fill="#302823"/>
<path fill-rule="evenodd" clip-rule="evenodd" d="M177.612 7.34802C178.575 6.4541 179.185 5.44024 179.085 4.21093C179.006 3.24258 178.281 -0.0960337 177.464 0.00211965C174.754 0.329226 175.973 8.87034 177.612 7.34802Z" fill="#302823"/>
<path fill-rule="evenodd" clip-rule="evenodd" d="M107.144 96.8066C108.387 101.441 119.705 103.412 118.181 97.1621C117.417 94.0331 114.228 96.8131 112.001 96.449C110.56 96.2134 106.268 93.5388 107.144 96.8066Z" fill="black"/>
<path fill-rule="evenodd" clip-rule="evenodd" d="M104.301 88.5408C104.834 86.0614 99.4099 83.3244 97.4415 84.0069C94.5625 85.0062 94.5748 91.3928 96.7713 93.0908C97.0601 93.314 97.9459 93.8469 98.38 93.4221C99.0646 92.7503 98.3165 92.9337 98.1568 92.2631C97.9029 91.1965 97.0736 89.8272 97.8997 88.6134C99.4615 86.3211 103.539 92.0936 104.301 88.5408Z" fill="black"/>
<path fill-rule="evenodd" clip-rule="evenodd" d="M87.7626 100.576C85.8071 100.467 84.2033 103.502 87.0807 103.248C87.6319 103.199 88.8157 103.06 89.1352 102.481C89.6644 101.522 88.6226 100.625 87.7626 100.576Z" fill="black"/>
<path fill-rule="evenodd" clip-rule="evenodd" d="M182.635 28.2157C181.966 27.2475 180.563 25.6893 179.355 26.6604C178.285 27.5217 178.472 29.6473 178.882 30.7035C179.987 33.5471 182.597 36.0803 185.55 34.442C184.524 32.3868 183.946 30.1111 182.635 28.2157Z" fill="#302823"/>
</svg>
