<svg width="30" height="30" viewBox="0 0 30 30" fill="none" xmlns="http://www.w3.org/2000/svg">
<g id="Icon settings=Default">
<path id="Vector" d="M24.1133 17.3478L24.7316 16.5618L24.1133 17.3478L26.0465 18.8687L23.8711 22.6321L21.6071 21.7138C20.9394 21.4429 20.2143 21.5642 19.6698 21.9391C19.348 22.1606 19.0185 22.3567 18.6677 22.5295C18.0855 22.8163 17.6177 23.3767 17.5179 24.0917L17.1817 26.5H12.8184L12.4834 24.1007C12.382 23.3746 11.9027 22.8143 11.3207 22.5289C10.9785 22.3611 10.6537 22.1652 10.3327 21.9424C9.78706 21.5635 9.06041 21.4431 8.39295 21.7138L6.129 22.6321L3.9536 18.8687L5.88682 17.3478C6.44615 16.9077 6.70353 16.2266 6.64989 15.5693C6.63413 15.3762 6.62504 15.1876 6.62504 15C6.62504 14.805 6.63486 14.6046 6.65197 14.3941C6.70601 13.7294 6.43906 13.0476 5.87594 12.6126L3.9551 11.1287L6.12959 7.36686L8.40501 8.28068C9.06219 8.54461 9.77873 8.43107 10.3219 8.0595C10.647 7.83707 10.975 7.64012 11.32 7.4713C11.9029 7.18601 12.3821 6.6252 12.4834 5.89928L12.8184 3.5H17.1817L17.5167 5.89928C17.618 6.6252 18.0972 7.18601 18.6801 7.4713C19.0251 7.64012 19.3531 7.83707 19.6782 8.0595C20.2214 8.43107 20.9379 8.54461 21.5951 8.28068L23.8705 7.36686L26.045 11.1287L24.1241 12.6126C23.561 13.0476 23.2941 13.7294 23.3481 14.3941C23.3652 14.6046 23.375 14.805 23.375 15C23.375 15.1876 23.366 15.3762 23.3502 15.5693C23.2966 16.2266 23.5539 16.9077 24.1133 17.3478Z" stroke="#E9DCD3" stroke-width="2"/>
<circle id="Ellipse 33" cx="15" cy="15" r="2.75" stroke="#E9DCD3" stroke-width="2"/>
</g>
</svg>
