<svg width="30" height="30" viewBox="0 0 30 30" fill="none" xmlns="http://www.w3.org/2000/svg">
<g id="Icon scan=Default">
<path id="Vector" d="M5 8.5C5 7.94772 5.44772 7.5 6 7.5H6.5C7.05228 7.5 7.5 7.94772 7.5 8.5V21.5C7.5 22.0523 7.05228 22.5 6.5 22.5H6C5.44772 22.5 5 22.0523 5 21.5V8.5ZM8.75 8.125C8.75 7.77982 9.02982 7.5 9.375 7.5C9.72018 7.5 10 7.77982 10 8.125V21.875C10 22.2202 9.72018 22.5 9.375 22.5C9.02982 22.5 8.75 22.2202 8.75 21.875V8.125ZM11.25 8.5C11.25 7.94772 11.6977 7.5 12.25 7.5H14C14.5523 7.5 15 7.94772 15 8.5V21.5C15 22.0523 14.5523 22.5 14 22.5H12.25C11.6977 22.5 11.25 22.0523 11.25 21.5V8.5ZM16.25 8.125C16.25 7.77982 16.5298 7.5 16.875 7.5C17.2202 7.5 17.5 7.77982 17.5 8.125V21.875C17.5 22.2202 17.2202 22.5 16.875 22.5C16.5298 22.5 16.25 22.2202 16.25 21.875V8.125ZM20 8.5C20 7.94772 20.4477 7.5 21 7.5H21.5C22.0523 7.5 22.5 7.94772 22.5 8.5V21.5C22.5 22.0523 22.0523 22.5 21.5 22.5H21C20.4477 22.5 20 22.0523 20 21.5V8.5ZM23.75 8.125C23.75 7.77982 24.0298 7.5 24.375 7.5C24.7202 7.5 25 7.77982 25 8.125V21.875C25 22.2202 24.7202 22.5 24.375 22.5C24.0298 22.5 23.75 22.2202 23.75 21.875V8.125ZM2.875 4.375C2.32272 4.375 1.875 4.82272 1.875 5.375V9.0625C1.875 9.58027 1.45527 10 0.9375 10C0.419733 10 0 9.58027 0 9.0625V5C0 4.33696 0.263392 3.70107 0.732233 3.23223C1.20107 2.76339 1.83696 2.5 2.5 2.5H6.5625C7.08027 2.5 7.5 2.91973 7.5 3.4375C7.5 3.95527 7.08027 4.375 6.5625 4.375H2.875ZM27.5 2.5C28.163 2.5 28.7989 2.76339 29.2678 3.23223C29.7366 3.70107 30 4.33696 30 5V9.0625C30 9.58027 29.5803 10 29.0625 10C28.5447 10 28.125 9.58027 28.125 9.0625V5.375C28.125 4.82272 27.6773 4.375 27.125 4.375H23.4375C22.9197 4.375 22.5 3.95527 22.5 3.4375C22.5 2.91973 22.9197 2.5 23.4375 2.5H27.5ZM0.9375 20C1.45527 20 1.875 20.4197 1.875 20.9375V24.625C1.875 25.1773 2.32272 25.625 2.875 25.625H6.5625C7.08027 25.625 7.5 26.0447 7.5 26.5625C7.5 27.0803 7.08027 27.5 6.5625 27.5H2.5C1.83696 27.5 1.20107 27.2366 0.732233 26.7678C0.263392 26.2989 0 25.663 0 25V20.9375C0 20.4197 0.419733 20 0.9375 20ZM27.125 25.625C27.6773 25.625 28.125 25.1773 28.125 24.625V20.9375C28.125 20.4197 28.5447 20 29.0625 20C29.5803 20 30 20.4197 30 20.9375V25C30 25.663 29.7366 26.2989 29.2678 26.7678C28.7989 27.2366 28.163 27.5 27.5 27.5H23.4375C22.9197 27.5 22.5 27.0803 22.5 26.5625C22.5 26.0447 22.9197 25.625 23.4375 25.625H27.125Z" fill="#E9DCD3"/>
</g>
</svg>
