<svg width="64" height="51" viewBox="0 0 64 51" fill="none" xmlns="http://www.w3.org/2000/svg">
<g id="book-shelf-svgrepo-com 1">
<path id="Vector" d="M10.24 3.84C9.535 3.84 8.96 4.415 8.96 5.12V38.4C8.96 39.11 9.535 39.68 10.24 39.68H16.64C17.35 39.68 17.92 39.11 17.92 38.4V5.12C17.92 4.415 17.35 3.84 16.64 3.84H10.24ZM21.76 3.84C21.055 3.84 20.48 4.415 20.48 5.12V38.4C20.48 39.11 21.055 39.68 21.76 39.68H28.16C28.87 39.68 29.44 39.11 29.44 38.4V5.12C29.44 4.415 28.87 3.84 28.16 3.84H21.76ZM12.16 8.96H14.72C15.43 8.96 16 9.535 16 10.24C16 10.945 15.43 11.52 14.72 11.52H12.16C11.45 11.52 10.88 10.945 10.88 10.24C10.88 9.535 11.45 8.96 12.16 8.96ZM23.68 8.96H26.24C26.95 8.96 27.52 9.535 27.52 10.24C27.52 10.945 26.95 11.52 26.24 11.52H23.68C22.97 11.52 22.4 10.945 22.4 10.24C22.4 9.535 22.97 8.96 23.68 8.96ZM48.12 10.8L41.92 12.28C41.59 12.36 41.3 12.55 41.12 12.84C41.045 12.96 40.99 13.105 40.96 13.24V12.8C40.96 12.095 40.39 11.52 39.68 11.52H33.28C32.575 11.52 32 12.095 32 12.8V38.4C32 39.11 32.575 39.68 33.28 39.68H39.68C40.39 39.68 40.96 39.11 40.96 38.4V13.8L47.12 38.72C47.26 39.31 47.78 39.72 48.36 39.72C48.455 39.72 48.54 39.7 48.64 39.68L54.88 38.2C55.21 38.12 55.5 37.93 55.68 37.64C55.86 37.35 55.92 37.01 55.84 36.68L49.68 11.76C49.515 11.07 48.805 10.635 48.12 10.8ZM47.32 16.36C47.81 16.445 48.24 16.805 48.36 17.32C48.52 18.01 48.085 18.72 47.4 18.88L46.16 19.16C46.06 19.185 45.975 19.2 45.88 19.2C45.3 19.2 44.74 18.79 44.6 18.2C44.44 17.51 44.875 16.84 45.56 16.68L46.8 16.4C46.97 16.36 47.155 16.33 47.32 16.36ZM35.84 16.64H37.12C37.83 16.64 38.4 17.215 38.4 17.92C38.4 18.625 37.83 19.2 37.12 19.2H35.84C35.13 19.2 34.56 18.625 34.56 17.92C34.56 17.215 35.13 16.64 35.84 16.64ZM50.6 31.32C51.285 31.165 51.995 31.59 52.16 32.28C52.32 32.965 51.89 33.64 51.2 33.8L49.96 34.12C49.86 34.145 49.735 34.16 49.64 34.16C49.06 34.16 48.54 33.75 48.4 33.16C48.24 32.475 48.67 31.76 49.36 31.6L50.6 31.32ZM12.16 32H14.72C15.43 32 16 32.575 16 33.28C16 33.985 15.43 34.56 14.72 34.56H12.16C11.45 34.56 10.88 33.985 10.88 33.28C10.88 32.575 11.45 32 12.16 32ZM23.68 32H26.24C26.95 32 27.52 32.575 27.52 33.28C27.52 33.985 26.95 34.56 26.24 34.56H23.68C22.97 34.56 22.4 33.985 22.4 33.28C22.4 32.575 22.97 32 23.68 32ZM35.84 32H37.12C37.83 32 38.4 32.57 38.4 33.28C38.4 33.99 37.83 34.56 37.12 34.56H35.84C35.13 34.56 34.56 33.99 34.56 33.28C34.56 32.57 35.13 32 35.84 32ZM3.84 40.96C3.135 40.96 2.56 41.53 2.56 42.24V46.08C2.56 46.79 3.135 47.36 3.84 47.36H60.16C60.87 47.36 61.44 46.79 61.44 46.08V42.24C61.44 41.53 60.87 40.96 60.16 40.96H3.84Z" fill="white"/>
</g>
</svg>
