<svg width="60" height="45" viewBox="0 0 60 45" fill="none" xmlns="http://www.w3.org/2000/svg">
<path d="M8.24 0.839996C7.535 0.839996 6.96 1.415 6.96 2.12V35.4C6.96 36.11 7.535 36.68 8.24 36.68H14.64C15.35 36.68 15.92 36.11 15.92 35.4V2.12C15.92 1.415 15.35 0.839996 14.64 0.839996H8.24ZM19.76 0.839996C19.055 0.839996 18.48 1.415 18.48 2.12V35.4C18.48 36.11 19.055 36.68 19.76 36.68H26.16C26.87 36.68 27.44 36.11 27.44 35.4V2.12C27.44 1.415 26.87 0.839996 26.16 0.839996H19.76ZM10.16 5.96H12.72C13.43 5.96 14 6.535 14 7.24C14 7.945 13.43 8.52 12.72 8.52H10.16C9.45 8.52 8.88 7.945 8.88 7.24C8.88 6.535 9.45 5.96 10.16 5.96ZM21.68 5.96H24.24C24.95 5.96 25.52 6.535 25.52 7.24C25.52 7.945 24.95 8.52 24.24 8.52H21.68C20.97 8.52 20.4 7.945 20.4 7.24C20.4 6.535 20.97 5.96 21.68 5.96ZM46.12 7.8L39.92 9.28C39.59 9.36 39.3 9.55 39.12 9.84C39.045 9.96 38.99 10.105 38.96 10.24V9.8C38.96 9.095 38.39 8.52 37.68 8.52H31.28C30.575 8.52 30 9.095 30 9.8V35.4C30 36.11 30.575 36.68 31.28 36.68H37.68C38.39 36.68 38.96 36.11 38.96 35.4V10.8L45.12 35.72C45.26 36.31 45.78 36.72 46.36 36.72C46.455 36.72 46.54 36.7 46.64 36.68L52.88 35.2C53.21 35.12 53.5 34.93 53.68 34.64C53.86 34.35 53.92 34.01 53.84 33.68L47.68 8.76C47.515 8.07 46.805 7.635 46.12 7.8ZM45.32 13.36C45.81 13.445 46.24 13.805 46.36 14.32C46.52 15.01 46.085 15.72 45.4 15.88L44.16 16.16C44.06 16.185 43.975 16.2 43.88 16.2C43.3 16.2 42.74 15.79 42.6 15.2C42.44 14.51 42.875 13.84 43.56 13.68L44.8 13.4C44.97 13.36 45.155 13.33 45.32 13.36ZM33.84 13.64H35.12C35.83 13.64 36.4 14.215 36.4 14.92C36.4 15.625 35.83 16.2 35.12 16.2H33.84C33.13 16.2 32.56 15.625 32.56 14.92C32.56 14.215 33.13 13.64 33.84 13.64ZM48.6 28.32C49.285 28.165 49.995 28.59 50.16 29.28C50.32 29.965 49.89 30.64 49.2 30.8L47.96 31.12C47.86 31.145 47.735 31.16 47.64 31.16C47.06 31.16 46.54 30.75 46.4 30.16C46.24 29.475 46.67 28.76 47.36 28.6L48.6 28.32ZM10.16 29H12.72C13.43 29 14 29.575 14 30.28C14 30.985 13.43 31.56 12.72 31.56H10.16C9.45 31.56 8.88 30.985 8.88 30.28C8.88 29.575 9.45 29 10.16 29ZM21.68 29H24.24C24.95 29 25.52 29.575 25.52 30.28C25.52 30.985 24.95 31.56 24.24 31.56H21.68C20.97 31.56 20.4 30.985 20.4 30.28C20.4 29.575 20.97 29 21.68 29ZM33.84 29H35.12C35.83 29 36.4 29.57 36.4 30.28C36.4 30.99 35.83 31.56 35.12 31.56H33.84C33.13 31.56 32.56 30.99 32.56 30.28C32.56 29.57 33.13 29 33.84 29ZM1.84 37.96C1.135 37.96 0.559998 38.53 0.559998 39.24V43.08C0.559998 43.79 1.135 44.36 1.84 44.36H58.16C58.87 44.36 59.44 43.79 59.44 43.08V39.24C59.44 38.53 58.87 37.96 58.16 37.96H1.84Z" fill="white"/>
</svg>
