<svg width="20" height="19" viewBox="0 0 20 19" fill="none" xmlns="http://www.w3.org/2000/svg">
<path id="Vector" d="M10.1 15.55L10 15.65L9.89 15.55C5.14 11.24 9.5 18.39 9.5 15.5C9.5 13.5 7.89 15.65 9.89 15.65C11.43 15.65 10 3.5 9 3.5L9.89 15.55C10.42 14.19 8.35 15.65 9.89 15.65C11.89 15.65 9.97179 13.2672 9.97179 15.2672C9.97179 18.1572 14.86 11.24 10.1 15.55ZM14.5 0C12.76 0 11.09 0.81 10 2.08C8.91 0.81 7.24 0 5.5 0C2.42 0 0 2.41 0 5.5C0 9.27 3.4 12.36 8.55 17.03L10 18.35L11.45 17.03C16.6 12.36 20 9.27 20 5.5C20 2.41 17.58 0 14.5 0Z" fill="#4F3C2E"/>
</svg>
